{"glyphs":{"0":{"ha":760,"x_min":125,"x_max":753,"o":"m 238 361 q 274 125 238 218 q 375 32 311 32 q 504 115 443 32 q 602 332 565 197 q 639 614 639 467 q 603 849 639 757 q 503 942 567 942 q 374 860 436 942 q 275 642 313 778 q 238 361 238 507 m 753 588 q 701 292 753 431 q 561 69 650 153 q 369 -14 472 -14 q 190 99 256 -14 q 125 386 125 213 q 176 683 125 544 q 317 903 228 821 q 510 986 406 986 q 688 874 622 986 q 753 588 753 761 z "},"1":{"ha":476,"x_min":49,"x_max":428,"o":"m 422 0 l 49 0 l 53 28 q 169 50 143 28 q 207 156 196 72 l 297 796 q 287 894 308 871 q 178 917 265 917 l 182 944 l 401 979 l 428 979 l 313 156 q 317 50 300 71 q 426 28 333 29 l 422 0 z "},"2":{"ha":664,"x_min":63,"x_max":692,"o":"m 83 0 l 63 28 q 124 83 78 42 q 193 143 171 124 q 260 205 215 163 q 328 273 304 247 q 391 341 353 299 q 451 415 429 383 q 499 488 472 446 q 539 567 525 531 q 563 644 553 603 q 572 725 572 686 q 531 848 572 803 q 419 893 490 893 q 303 855 363 893 q 201 750 243 817 l 179 763 q 318 926 231 865 q 493 986 406 986 q 641 927 590 986 q 692 768 692 868 q 674 666 692 719 q 630 565 657 613 q 562 465 603 518 q 485 372 521 411 q 399 285 449 332 q 319 212 350 239 q 247 150 289 185 q 196 106 206 115 l 644 106 l 607 0 l 83 0 z "},"3":{"ha":696,"x_min":90,"x_max":689,"o":"m 489 986 q 631 932 574 986 q 689 794 689 878 q 620 620 689 700 q 463 514 551 540 l 463 511 q 606 438 557 499 q 656 299 656 378 q 545 73 656 160 q 299 -14 435 -14 q 151 29 213 -14 q 90 149 90 72 q 131 188 90 169 q 200 186 171 206 q 203 72 172 115 q 306 28 235 28 q 475 115 410 28 q 540 308 540 201 q 503 436 540 385 q 396 488 467 488 l 328 488 l 335 529 l 385 529 q 520 592 464 529 q 576 743 576 656 q 533 853 576 814 q 426 893 489 893 q 342 879 381 893 q 273 835 304 865 q 232 793 242 804 q 199 750 222 782 l 178 763 q 308 920 221 854 q 489 986 394 986 z "},"4":{"ha":707,"x_min":76,"x_max":700,"o":"m 672 253 l 571 253 l 557 156 q 563 50 544 72 q 672 28 581 28 l 668 0 l 293 0 l 297 28 q 413 51 386 28 q 451 156 440 74 l 465 253 l 76 253 l 88 336 l 614 979 l 672 979 l 582 336 l 700 336 l 672 253 m 144 336 l 476 336 l 544 824 l 144 336 z "},"5":{"ha":703,"x_min":90,"x_max":724,"o":"m 299 -14 q 151 29 213 -14 q 90 149 90 72 q 131 188 90 169 q 200 186 171 206 q 203 72 172 115 q 306 28 235 28 q 383 42 342 28 q 465 84 424 56 q 532 167 506 113 q 558 293 558 221 q 526 408 558 356 q 441 494 494 460 q 331 551 388 528 q 210 586 274 574 l 283 972 l 724 972 l 688 867 l 315 867 l 276 656 q 461 616 382 649 q 583 536 540 583 q 645 439 625 489 q 665 338 665 389 q 628 179 665 250 q 533 68 590 108 q 415 7 475 28 q 299 -14 354 -14 z "},"6":{"ha":710,"x_min":118,"x_max":682,"o":"m 663 986 l 671 957 q 263 485 379 849 q 472 576 367 576 q 622 509 563 576 q 682 329 682 442 q 578 81 682 175 q 351 -14 474 -14 q 219 33 274 -14 q 141 148 164 81 q 118 294 118 215 q 158 523 118 414 q 260 709 199 632 q 397 847 322 786 q 540 942 472 908 q 663 986 608 975 m 413 511 q 250 433 328 511 q 228 310 233 376 q 228 179 222 244 q 269 71 235 114 q 363 28 303 28 q 425 40 393 28 q 490 81 457 53 q 544 167 524 110 q 565 300 565 224 q 522 453 565 394 q 413 511 478 511 z "},"7":{"ha":643,"x_min":125,"x_max":733,"o":"m 650 867 l 275 867 q 193 852 215 867 q 150 768 171 838 l 125 768 l 171 972 l 711 972 l 733 944 l 264 0 l 135 0 l 650 867 z "},"8":{"ha":701,"x_min":97,"x_max":701,"o":"m 701 793 q 642 629 701 699 q 500 519 582 560 q 601 427 556 488 q 647 276 647 367 q 560 70 647 154 q 333 -14 472 -14 q 164 32 231 -14 q 97 188 97 78 q 331 494 97 388 q 241 581 283 524 q 199 715 199 639 q 292 910 199 835 q 492 986 385 986 q 640 935 578 986 q 701 793 701 883 m 308 746 q 449 547 308 624 q 597 803 597 643 q 558 912 597 881 q 481 943 519 943 q 444 936 467 943 q 388 911 421 929 q 331 850 354 893 q 308 746 308 807 m 343 28 q 474 83 411 28 q 536 242 536 138 q 483 372 536 313 q 371 467 429 431 q 256 358 304 428 q 207 200 207 289 q 249 73 207 118 q 343 28 290 28 z "},"9":{"ha":701,"x_min":153,"x_max":715,"o":"m 172 -14 l 164 15 q 571 488 457 124 q 361 396 467 396 q 212 463 271 396 q 153 643 153 531 q 257 892 153 797 q 483 986 361 986 q 656 895 597 986 q 715 679 715 804 q 675 451 715 560 q 573 264 635 342 q 436 125 511 186 q 294 31 361 64 q 172 -14 226 -3 m 422 461 q 585 539 506 461 q 607 662 601 596 q 606 793 613 728 q 566 901 600 858 q 472 944 532 944 q 411 932 443 944 q 346 891 379 919 q 291 806 313 863 q 269 672 269 749 q 313 519 269 576 q 422 461 356 461 z "}," ":{"ha":299,"x_min":0,"x_max":0,"o":""},"!":{"ha":417,"x_min":125,"x_max":417,"o":"m 264 279 l 232 279 q 256 643 243 354 q 274 972 268 932 l 417 972 q 342 639 411 926 q 264 279 274 351 m 208 -14 q 125 92 161 28 q 238 196 176 150 q 318 92 282 153 q 208 -14 272 35 z "},"\"":{"ha":574,"x_min":250,"x_max":594,"o":"m 308 657 l 250 657 l 274 1021 l 388 1021 l 308 657 m 515 657 l 457 657 l 481 1021 l 594 1021 l 515 657 z "},"#":{"ha":775,"x_min":76,"x_max":796,"o":"m 776 597 l 624 597 l 554 369 l 707 369 l 689 306 l 536 306 l 446 10 l 386 10 l 476 306 l 290 306 l 200 10 l 142 10 l 231 306 l 76 306 l 96 369 l 249 369 l 318 597 l 164 597 l 186 663 l 338 663 l 428 958 l 486 958 l 397 663 l 585 663 l 675 958 l 733 958 l 643 663 l 796 663 l 776 597 m 496 369 l 564 597 l 378 597 l 308 369 l 496 369 z "},"$":{"ha":640,"x_min":69,"x_max":668,"o":"m 325 -83 l 283 -83 l 296 11 q 69 85 163 13 l 103 269 l 128 269 q 136 161 124 206 q 176 94 149 117 q 234 63 203 72 q 307 54 265 54 q 454 114 401 54 q 507 253 507 174 q 471 353 507 310 q 383 426 435 396 q 281 486 332 456 q 194 567 231 517 q 158 682 158 617 q 235 873 158 806 q 428 954 313 940 l 443 1056 l 485 1056 l 469 958 q 668 913 597 958 l 633 744 l 608 744 q 583 869 624 824 q 476 915 543 915 q 333 862 396 915 q 271 715 271 808 q 307 623 271 663 q 395 556 343 583 q 499 499 447 529 q 586 421 550 469 q 622 306 622 372 q 544 104 622 186 q 338 13 467 22 l 325 -83 z "},"%":{"ha":1071,"x_min":222,"x_max":974,"o":"m 231 4 l 925 1000 l 963 972 l 271 -24 l 231 4 m 974 257 q 901 67 974 147 q 733 -14 829 -14 q 608 44 657 -14 q 560 190 560 103 q 631 381 560 301 q 800 461 703 461 q 925 403 876 461 q 974 257 974 344 m 649 167 q 739 28 649 28 q 827 70 793 28 q 872 165 861 113 q 883 279 883 217 q 793 419 883 419 q 715 392 747 419 q 671 321 683 365 q 653 241 658 276 q 649 167 649 206 m 638 782 q 565 591 638 671 q 396 511 492 511 q 271 569 319 511 q 222 715 222 628 q 294 906 222 826 q 463 986 367 986 q 588 928 539 986 q 638 782 638 869 m 311 692 q 401 553 311 553 q 475 577 444 553 q 520 642 506 601 q 541 723 535 683 q 547 806 547 763 q 457 944 547 944 q 383 920 414 944 q 338 855 353 896 q 317 774 324 814 q 311 692 311 735 z "},"&":{"ha":1043,"x_min":76,"x_max":1181,"o":"m 1029 479 q 1110 506 1085 471 q 1103 593 1136 542 q 1178 624 1164 668 q 1181 604 1181 615 q 1167 520 1181 563 q 1115 441 1154 478 q 1017 404 1075 404 q 978 411 997 404 q 949 424 958 418 q 919 444 939 429 q 893 463 899 460 q 844 257 892 351 q 724 102 797 163 q 562 8 650 42 q 388 -25 474 -25 q 190 36 271 -25 q 96 217 108 97 q 208 539 76 394 q 415 668 304 643 q 550 621 518 690 q 560 568 560 599 q 740 797 678 682 q 781 1000 803 913 q 899 983 889 1069 q 806 723 911 867 q 532 459 700 579 q 186 269 364 339 q 328 72 200 124 q 593 86 449 26 q 817 290 746 149 q 860 479 858 376 q 703 381 796 499 q 672 421 682 390 q 671 483 663 451 q 792 533 736 524 q 881 531 849 542 q 957 502 913 521 q 1029 479 1001 483 m 183 310 q 486 501 339 378 q 414 590 479 576 q 274 542 343 604 q 183 310 185 458 z "},"'":{"ha":367,"x_min":250,"x_max":388,"o":"m 308 657 l 250 657 l 274 1021 l 388 1021 l 308 657 z "},"(":{"ha":444,"x_min":167,"x_max":549,"o":"m 167 256 q 267 690 167 489 q 528 1007 368 892 l 549 979 q 331 657 414 849 q 249 244 249 465 q 283 -26 249 101 q 378 -233 318 -154 l 350 -261 q 216 -46 265 -185 q 167 256 167 93 z "},")":{"ha":446,"x_min":7,"x_max":390,"o":"m 390 488 q 289 55 390 254 q 28 -261 188 -144 l 7 -233 q 224 88 142 -103 q 307 500 307 279 q 272 772 307 644 q 178 979 238 900 l 206 1007 q 341 790 292 929 q 390 488 390 650 z "},"*":{"ha":653,"x_min":201,"x_max":660,"o":"m 415 494 l 375 494 l 392 690 l 215 603 l 201 642 l 368 750 l 232 860 l 257 897 l 408 810 l 447 1007 l 488 1007 l 472 810 l 647 897 l 660 860 l 494 751 l 629 642 l 604 604 l 454 692 l 415 494 z "},"+":{"ha":806,"x_min":174,"x_max":736,"o":"m 492 486 l 736 486 l 726 417 l 482 417 l 444 150 l 381 150 l 418 417 l 174 417 l 183 486 l 428 486 l 465 753 l 529 753 l 492 486 z "},",":{"ha":435,"x_min":97,"x_max":315,"o":"m 206 -14 q 122 92 158 28 q 235 196 174 150 q 315 92 279 153 q 118 -196 292 -71 l 97 -167 q 206 -14 165 -111 z "},"-":{"ha":563,"x_min":167,"x_max":493,"o":"m 493 374 l 467 283 l 167 283 l 193 374 l 493 374 z "},".":{"ha":435,"x_min":122,"x_max":315,"o":"m 206 -14 q 122 92 158 28 q 235 196 174 150 q 315 92 279 153 q 206 -14 269 35 z "},"/":{"ha":575,"x_min":104,"x_max":610,"o":"m 610 994 l 182 -17 l 104 -17 l 532 994 l 610 994 z "},":":{"ha":435,"x_min":122,"x_max":372,"o":"m 263 393 q 179 499 215 435 q 292 603 236 563 q 372 499 340 556 q 263 393 326 442 m 206 -14 q 122 92 158 28 q 235 196 174 150 q 315 92 279 153 q 206 -14 269 35 z "},";":{"ha":435,"x_min":97,"x_max":372,"o":"m 206 -14 q 122 92 158 28 q 235 196 174 150 q 315 92 279 153 q 118 -196 292 -71 l 97 -167 q 206 -14 165 -111 m 263 393 q 179 499 215 435 q 292 603 236 563 q 372 499 340 556 q 263 393 326 442 z "},"<":{"ha":753,"x_min":174,"x_max":718,"o":"m 643 136 l 629 43 l 174 301 l 190 417 l 718 675 l 706 582 l 238 358 l 643 136 z "},"=":{"ha":814,"x_min":160,"x_max":758,"o":"m 206 582 l 758 582 l 749 513 l 196 513 l 206 582 m 169 328 l 722 328 l 713 258 l 160 258 l 169 328 z "},">":{"ha":753,"x_min":139,"x_max":683,"o":"m 139 43 l 153 136 l 618 358 l 215 582 l 228 675 l 683 417 l 667 301 l 139 43 z "},"?":{"ha":599,"x_min":153,"x_max":599,"o":"m 382 986 q 535 907 472 986 q 599 714 599 828 q 582 610 599 657 q 544 534 565 563 q 482 478 522 506 q 417 438 442 450 q 344 406 392 426 q 311 376 324 396 q 296 342 299 357 q 292 303 293 326 q 292 279 292 281 l 258 279 l 249 507 q 451 572 358 507 q 543 731 543 636 q 497 877 543 808 q 376 946 451 946 q 260 786 242 946 q 156 797 156 722 q 177 894 156 854 q 235 952 199 933 q 306 978 271 971 q 382 986 342 986 m 235 -14 q 153 92 189 28 q 264 196 203 149 q 346 92 308 154 q 235 -14 299 33 z "},"@":{"ha":1153,"x_min":139,"x_max":1083,"o":"m 736 -7 q 690 149 629 -7 q 594 42 651 92 q 479 -7 536 -7 q 403 27 431 -7 q 376 121 376 61 q 423 295 376 204 q 549 449 469 386 q 710 513 628 513 q 793 447 772 513 l 856 513 l 881 513 l 740 117 q 728 49 722 63 q 767 35 735 35 q 955 140 881 35 q 1029 379 1029 244 q 951 609 1029 514 q 718 704 874 704 q 463 624 575 704 q 294 424 350 544 q 238 174 238 304 q 338 -106 238 -3 q 588 -208 439 -208 q 807 -147 699 -208 l 822 -171 q 538 -253 681 -253 q 253 -140 368 -253 q 139 163 139 -26 q 179 372 139 268 q 292 562 219 476 q 478 700 365 647 q 726 753 592 753 q 992 647 901 753 q 1083 392 1083 542 q 987 114 1083 235 q 736 -7 890 -7 m 699 207 l 742 328 q 693 476 794 476 q 581 408 636 476 q 494 258 525 339 q 463 124 463 176 q 504 47 463 47 q 578 76 539 47 q 640 131 617 104 q 699 207 663 158 z "},"A":{"ha":883,"x_min":14,"x_max":939,"o":"m 694 156 l 668 283 l 308 283 l 246 156 q 233 60 214 93 q 328 28 251 28 l 324 0 l 14 0 l 18 28 q 119 53 86 28 q 192 156 151 78 l 608 986 l 624 986 l 806 156 q 847 53 824 78 q 939 28 871 28 l 935 0 l 583 0 l 588 28 q 687 55 667 28 q 694 156 707 82 m 564 806 l 331 329 l 660 329 l 564 806 z "},"B":{"ha":778,"x_min":49,"x_max":799,"o":"m 185 972 l 558 972 q 721 915 663 972 q 779 778 779 858 q 720 624 779 700 q 553 517 661 549 l 553 514 q 740 455 682 514 q 799 313 799 396 q 781 197 799 249 q 738 114 763 146 q 672 58 713 82 q 598 24 631 35 q 518 8 565 14 q 449 1 471 1 q 392 0 426 0 l 49 0 l 53 28 q 157 51 129 28 q 196 156 185 75 l 289 817 q 281 921 300 897 q 182 944 261 944 l 185 972 m 346 486 l 301 164 q 314 72 292 96 q 396 49 336 49 q 683 297 683 49 q 627 433 683 381 q 449 486 571 486 l 346 486 m 671 778 q 631 891 671 858 q 535 924 590 924 l 407 924 l 353 531 l 456 531 q 519 542 485 531 q 588 581 553 554 q 647 658 624 607 q 671 778 671 710 z "},"C":{"ha":858,"x_min":125,"x_max":935,"o":"m 125 399 q 169 664 125 547 q 290 849 214 781 q 456 951 365 917 q 646 986 546 986 q 935 878 813 986 l 904 638 l 879 638 q 874 786 892 724 q 819 880 857 849 q 738 924 781 911 q 649 938 696 938 q 358 785 475 938 q 240 404 240 633 q 316 136 240 238 q 522 35 392 35 q 596 42 560 35 q 672 71 632 50 q 743 124 711 92 q 801 210 775 156 q 836 335 826 265 l 861 335 l 825 94 q 506 -14 672 -14 q 233 90 340 -14 q 125 399 125 193 z "},"D":{"ha":993,"x_min":49,"x_max":1014,"o":"m 49 0 l 53 28 q 160 53 136 28 q 196 156 185 79 l 289 817 q 282 920 300 896 q 182 944 264 944 l 185 972 l 521 972 q 601 972 571 972 q 690 963 632 971 q 785 941 747 956 q 871 897 824 926 q 947 827 918 868 q 994 722 975 786 q 1014 576 1014 658 q 996 405 1014 483 q 950 272 978 326 q 879 172 922 217 q 796 99 836 126 q 702 51 756 71 q 610 22 649 31 q 520 7 571 13 q 447 1 469 1 q 392 0 424 0 l 49 0 m 401 46 q 511 56 454 46 q 640 101 568 67 q 766 190 711 136 q 859 341 821 243 q 897 565 897 439 q 879 697 897 639 q 835 792 861 756 q 771 856 810 829 q 699 896 732 883 q 624 916 667 908 q 562 924 582 924 q 515 925 542 925 l 408 925 l 301 164 q 401 46 283 46 z "},"E":{"ha":764,"x_min":49,"x_max":826,"o":"m 49 0 l 53 28 q 159 53 133 28 q 196 156 185 78 l 289 817 q 283 919 300 893 q 182 944 267 944 l 185 972 l 826 972 l 804 774 l 779 774 q 775 847 779 821 q 763 891 771 874 q 733 915 756 908 q 690 924 711 922 q 621 926 668 926 l 408 926 l 353 532 l 536 532 q 628 552 607 532 q 660 654 649 572 l 686 654 l 644 360 l 618 360 q 615 465 631 443 q 529 486 600 486 l 346 486 l 301 164 q 314 74 293 100 q 401 47 335 47 l 560 47 q 675 80 635 47 q 746 221 715 113 l 771 221 l 728 0 l 49 0 z "},"F":{"ha":722,"x_min":49,"x_max":826,"o":"m 429 0 l 49 0 l 53 28 q 159 53 133 28 q 196 156 185 78 l 289 817 q 283 919 300 893 q 182 944 267 944 l 185 972 l 826 972 l 804 774 l 779 774 q 775 847 779 821 q 763 891 771 874 q 733 915 756 908 q 690 924 711 922 q 621 926 668 926 l 408 926 l 353 532 l 561 532 q 653 553 632 532 q 686 654 675 574 l 711 654 l 669 360 l 644 360 q 641 465 657 443 q 554 486 625 486 l 346 486 l 300 156 q 313 53 289 79 q 433 28 338 28 l 429 0 z "},"G":{"ha":965,"x_min":125,"x_max":1000,"o":"m 878 261 l 860 124 q 687 23 781 60 q 506 -14 593 -14 q 233 90 340 -14 q 125 399 125 193 q 169 664 125 547 q 290 849 214 781 q 456 951 365 917 q 646 986 546 986 q 935 878 813 986 l 904 638 l 879 638 q 874 786 892 724 q 819 880 857 849 q 738 924 781 911 q 649 938 696 938 q 358 785 475 938 q 240 404 240 633 q 316 136 240 238 q 522 35 392 35 q 760 157 671 35 l 774 261 q 760 363 785 338 q 640 389 736 389 l 644 417 l 1000 417 l 996 389 q 909 365 929 389 q 878 261 889 340 z "},"H":{"ha":1061,"x_min":49,"x_max":1172,"o":"m 1036 0 l 681 0 l 685 28 q 791 53 765 28 q 828 156 817 78 l 874 481 l 346 481 l 300 156 q 308 53 289 78 q 408 28 326 28 l 404 0 l 49 0 l 53 28 q 159 53 133 28 q 196 156 185 78 l 289 817 q 283 919 300 893 q 182 944 267 944 l 185 972 l 540 972 l 538 944 q 427 919 451 944 q 393 817 403 893 l 351 526 l 879 526 l 921 817 q 915 919 932 893 q 814 944 899 944 l 817 972 l 1172 972 l 1169 944 q 1060 919 1085 944 q 1026 817 1036 893 l 933 156 q 941 53 922 78 q 1040 28 960 28 l 1036 0 z "},"I":{"ha":429,"x_min":49,"x_max":540,"o":"m 404 0 l 49 0 l 53 28 q 159 53 133 28 q 196 156 185 78 l 289 817 q 283 919 300 893 q 182 944 267 944 l 185 972 l 540 972 l 538 944 q 427 919 451 944 q 393 817 403 893 l 300 156 q 308 53 289 78 q 408 28 326 28 l 404 0 z "},"J":{"ha":417,"x_min":11,"x_max":542,"o":"m 394 817 l 285 43 q 256 -67 276 -15 q 213 -153 236 -118 q 153 -224 189 -189 q 89 -281 117 -260 q 22 -329 61 -303 l 11 -310 q 178 18 146 -212 l 290 817 q 285 919 301 893 q 183 944 268 944 l 186 972 l 542 972 l 539 944 q 428 919 453 944 q 394 817 404 893 z "},"K":{"ha":864,"x_min":49,"x_max":1003,"o":"m 390 0 l 49 0 l 53 28 q 159 53 133 28 q 196 156 185 78 l 289 817 q 283 919 300 893 q 182 944 267 944 l 185 972 l 526 972 l 524 944 q 425 919 447 944 q 393 817 403 893 l 346 481 l 381 481 l 771 865 q 794 900 789 883 q 781 931 800 917 q 715 944 763 944 l 718 972 l 1003 972 l 1000 944 q 915 928 944 944 q 833 863 886 913 l 488 525 q 551 328 504 422 q 651 177 599 233 q 746 88 703 121 q 807 54 789 54 q 883 92 836 54 l 899 69 q 819 7 861 28 q 751 -14 778 -14 q 656 15 708 -14 q 551 96 603 43 q 462 240 500 149 q 415 440 424 331 l 340 440 l 300 156 q 306 53 289 79 q 394 28 322 28 l 390 0 z "},"L":{"ha":764,"x_min":49,"x_max":771,"o":"m 565 972 l 563 944 q 435 919 467 944 q 393 817 404 893 l 301 164 q 313 74 292 101 q 401 47 335 47 l 560 47 q 675 80 635 47 q 746 221 715 113 l 771 221 l 728 0 l 49 0 l 53 28 q 159 53 133 28 q 196 156 185 78 l 289 817 q 283 919 300 893 q 182 944 267 944 l 185 972 l 565 972 z "},"M":{"ha":1243,"x_min":49,"x_max":1354,"o":"m 378 28 l 374 0 l 49 0 l 53 28 q 169 53 133 28 q 217 156 206 78 l 310 817 q 298 921 321 897 q 182 944 275 944 l 185 972 l 425 972 l 658 163 l 1135 972 l 1354 972 l 1351 944 q 1238 920 1269 944 q 1194 817 1206 896 l 1101 156 q 1115 52 1090 76 q 1222 28 1140 28 l 1218 0 l 851 0 l 856 28 q 960 51 935 28 q 997 156 986 74 l 1088 797 l 611 -7 l 594 -7 l 357 797 l 267 156 q 276 51 256 75 q 378 28 296 28 z "},"N":{"ha":1047,"x_min":49,"x_max":1172,"o":"m 896 207 l 982 817 q 969 919 992 893 q 874 944 947 944 l 876 972 l 1172 972 l 1169 944 q 1072 917 1101 944 q 1033 817 1043 889 l 917 -7 l 894 -7 l 339 804 l 249 156 q 261 51 238 75 q 379 28 285 28 l 375 0 l 49 0 l 53 28 q 160 51 132 28 q 199 156 188 75 l 292 817 q 275 917 303 890 q 161 944 247 944 l 164 972 l 381 972 l 896 207 z "},"O":{"ha":1022,"x_min":125,"x_max":1036,"o":"m 511 -14 q 231 108 338 -14 q 125 417 125 231 q 280 819 125 651 q 651 986 435 986 q 930 864 824 986 q 1036 556 1036 742 q 882 153 1036 321 q 511 -14 728 -14 m 518 35 q 797 191 674 35 q 921 556 921 347 q 843 827 921 717 q 644 938 765 938 q 363 781 486 938 q 240 417 240 625 q 318 144 240 254 q 518 35 396 35 z "},"P":{"ha":743,"x_min":49,"x_max":813,"o":"m 381 397 l 333 397 l 300 156 q 313 53 289 79 q 433 28 338 28 l 429 0 l 49 0 l 53 28 q 159 53 133 28 q 196 156 185 78 l 289 817 q 283 919 300 893 q 182 944 267 944 l 185 972 l 483 972 q 813 732 813 972 q 699 480 813 563 q 381 397 586 397 m 408 926 l 339 431 l 386 431 q 696 726 696 431 q 672 831 696 788 q 610 894 649 874 q 533 922 572 914 q 453 926 493 929 l 408 926 z "},"Q":{"ha":1022,"x_min":125,"x_max":1036,"o":"m 1036 556 q 887 160 1036 325 q 526 -12 738 -6 q 444 -90 483 -46 q 710 -112 581 -62 q 865 -226 840 -162 q 867 -240 865 -231 q 863 -262 869 -250 q 847 -285 857 -275 q 813 -303 838 -296 q 754 -308 789 -310 q 643 -165 747 -228 q 410 -135 539 -103 q 399 -154 400 -151 q 357 -167 381 -186 q 344 -121 333 -149 q 353 -108 347 -114 q 475 -12 404 -49 q 221 122 317 1 q 125 417 125 242 q 280 819 125 651 q 651 986 435 986 q 930 864 824 986 q 1036 556 1036 742 m 518 35 q 797 191 674 35 q 921 556 921 347 q 843 827 921 717 q 644 938 765 938 q 363 781 486 938 q 240 417 240 625 q 318 144 240 254 q 518 35 396 35 z "},"R":{"ha":829,"x_min":49,"x_max":899,"o":"m 817 758 q 727 563 817 653 q 501 431 638 472 q 551 286 517 353 q 622 178 585 219 q 699 108 660 138 q 765 66 738 78 q 807 54 793 54 q 883 92 836 54 l 899 69 q 819 7 861 28 q 751 -14 778 -14 q 683 -1 721 -14 q 603 44 646 13 q 523 121 560 75 q 458 240 486 167 q 424 403 431 314 l 335 403 l 300 156 q 313 53 289 79 q 433 28 338 28 l 429 0 l 49 0 l 53 28 q 159 53 133 28 q 196 156 185 78 l 289 817 q 283 919 300 893 q 182 944 267 944 l 185 972 l 483 972 q 736 913 656 972 q 817 758 817 854 m 408 926 l 340 444 l 418 444 q 628 563 556 485 q 701 749 701 642 q 640 879 701 832 q 453 926 578 926 l 408 926 z "},"S":{"ha":653,"x_min":76,"x_max":682,"o":"m 682 940 l 649 772 l 624 772 q 595 897 636 851 q 489 943 554 943 q 349 890 411 943 q 286 743 286 836 q 312 658 286 697 q 375 590 338 618 q 458 529 413 563 q 540 464 503 496 q 603 384 578 432 q 629 279 629 336 q 541 67 629 150 q 308 -17 453 -17 q 76 57 174 -17 l 108 242 l 135 242 q 177 72 128 118 q 314 26 226 26 q 461 86 408 26 q 514 225 514 146 q 478 331 514 282 q 393 418 443 381 q 293 494 343 456 q 208 587 243 532 q 172 708 172 642 q 269 917 172 849 q 501 986 367 986 q 682 940 614 986 z "},"T":{"ha":882,"x_min":139,"x_max":972,"o":"m 172 972 l 972 972 l 951 774 l 925 774 q 921 861 925 832 q 896 906 917 890 q 851 924 875 921 q 768 926 826 926 l 619 926 l 511 156 q 524 53 500 79 q 643 28 549 28 l 639 0 l 233 0 l 238 28 q 364 53 333 28 q 406 156 394 79 l 514 926 l 367 926 q 283 924 308 926 q 231 906 257 921 q 193 861 206 890 q 164 774 181 832 l 139 774 l 172 972 z "},"U":{"ha":967,"x_min":167,"x_max":1092,"o":"m 957 817 l 892 351 q 856 209 881 271 q 789 94 832 147 q 673 14 746 42 q 500 -14 600 -14 q 344 16 408 -14 q 251 98 281 46 q 212 219 222 150 q 215 365 201 288 l 279 817 q 270 918 289 892 q 167 944 251 944 l 169 972 l 525 972 l 522 944 q 418 919 440 944 q 385 817 396 893 l 328 413 q 535 39 275 39 q 839 347 794 39 l 906 817 q 893 917 915 889 q 783 944 871 944 l 786 972 l 1092 972 l 1089 944 q 992 917 1018 944 q 957 817 967 890 z "},"V":{"ha":958,"x_min":139,"x_max":1083,"o":"m 388 818 l 532 163 l 851 818 q 869 859 863 842 q 875 893 875 876 q 866 920 875 910 q 836 938 857 931 q 782 944 815 944 l 785 972 l 1083 972 l 1081 944 q 1013 934 1042 944 q 963 901 983 924 q 935 864 943 878 q 911 818 926 850 l 499 -7 l 463 -7 l 265 817 q 228 911 247 890 q 139 944 200 944 l 142 972 l 485 972 l 482 944 q 424 935 447 944 q 392 915 401 926 q 381 883 382 904 q 381 851 379 863 q 388 818 383 840 z "},"W":{"ha":1331,"x_min":139,"x_max":1456,"o":"m 810 818 l 932 181 l 1222 818 q 1241 868 1236 849 q 1242 907 1246 888 q 1217 935 1239 926 q 1154 944 1196 944 l 1157 972 l 1456 972 l 1453 944 q 1365 922 1401 944 q 1314 878 1328 900 q 1282 818 1300 857 l 896 -7 l 860 -7 l 740 567 l 474 -7 l 436 -7 l 265 817 q 253 864 258 849 q 236 902 249 879 q 199 935 224 925 q 139 944 175 944 l 142 972 l 446 972 l 443 944 q 400 933 415 944 q 382 899 385 921 q 381 860 379 876 q 388 818 382 844 l 508 181 l 722 653 l 689 817 q 677 864 682 847 q 659 903 672 881 q 622 935 646 925 q 563 944 599 944 l 565 972 l 907 972 l 904 944 q 824 923 849 944 q 803 873 799 901 q 810 818 807 844 z "},"X":{"ha":983,"x_min":35,"x_max":1067,"o":"m 689 147 l 542 435 l 297 143 q 267 57 249 86 q 378 28 285 28 l 374 0 l 35 0 l 39 28 q 149 59 104 28 q 250 158 193 90 l 519 481 l 324 817 q 309 841 319 822 q 294 868 299 860 q 278 891 289 876 q 259 913 268 906 q 238 928 250 919 q 213 941 226 938 q 182 944 199 944 l 185 972 l 542 972 l 539 944 q 451 926 478 944 q 428 884 425 908 q 451 825 432 860 l 594 569 l 810 831 q 742 944 901 944 l 744 972 l 1067 972 l 1064 944 q 981 926 1018 944 q 921 885 943 907 q 857 815 899 864 l 615 525 l 814 157 q 821 142 814 156 q 831 124 828 129 q 841 106 833 119 q 855 86 849 93 q 871 69 861 79 q 890 52 881 58 q 913 40 900 46 q 940 31 925 33 q 969 28 954 28 l 965 0 l 597 0 l 601 28 q 685 44 660 28 q 709 85 711 61 q 689 147 707 110 z "},"Y":{"ha":858,"x_min":139,"x_max":983,"o":"m 385 835 l 518 474 l 753 842 q 697 944 819 944 l 700 972 l 983 972 l 981 944 q 878 917 918 944 q 797 825 839 890 l 536 417 l 500 156 q 516 52 489 76 q 632 28 543 28 l 628 0 l 222 0 l 226 28 q 349 52 314 28 q 394 156 383 76 l 431 417 l 263 844 q 224 921 238 908 q 139 944 200 944 l 142 972 l 471 972 l 468 944 q 381 919 400 944 q 385 835 363 894 z "},"Z":{"ha":825,"x_min":49,"x_max":901,"o":"m 879 972 l 901 944 l 200 60 l 569 60 q 726 93 681 60 q 804 236 771 126 l 831 236 l 783 0 l 69 0 l 49 28 l 751 914 l 360 914 q 285 904 314 914 q 238 869 256 894 q 213 822 221 843 q 193 757 206 801 l 168 757 l 208 972 l 879 972 z "},"[":{"ha":390,"x_min":69,"x_max":494,"o":"m 315 863 l 178 -118 q 194 -210 168 -194 q 321 -226 219 -226 l 315 -264 l 69 -264 l 249 1008 l 494 1008 l 489 971 q 357 955 388 971 q 315 863 326 939 z "},"\\":{"ha":622,"x_min":264,"x_max":483,"o":"m 406 -17 l 264 994 l 342 994 l 483 -17 l 406 -17 z "},"]":{"ha":390,"x_min":7,"x_max":432,"o":"m 186 -118 l 324 863 q 308 955 335 939 q 181 971 282 971 l 186 1008 l 432 1008 l 253 -264 l 7 -264 l 13 -226 q 144 -210 114 -226 q 186 -118 175 -194 z "},"^":{"ha":751,"x_min":208,"x_max":717,"o":"m 565 972 l 717 478 l 657 478 l 518 865 l 268 478 l 208 478 l 499 972 l 565 972 z "},"_":{"ha":644,"x_min":0,"x_max":651,"o":"m 639 -169 l 0 -169 l 13 -83 l 651 -83 l 639 -169 z "},"`":{"ha":335,"x_min":197,"x_max":369,"o":"m 343 731 l 197 972 q 251 981 218 985 q 308 958 285 978 l 369 731 l 343 731 z "},"a":{"ha":685,"x_min":111,"x_max":726,"o":"m 601 103 l 681 653 q 668 667 683 664 q 528 681 594 681 q 350 647 428 681 q 228 564 272 614 q 157 449 185 514 q 120 328 129 383 q 111 221 111 274 q 149 57 111 128 q 246 -14 188 -14 q 380 65 313 -14 q 529 283 447 143 l 504 118 q 518 19 494 51 q 579 -14 542 -14 q 647 7 606 -14 q 726 69 689 28 l 711 92 q 646 56 674 61 q 608 65 618 51 q 601 103 597 79 m 578 643 l 536 351 q 408 148 479 243 q 293 53 336 53 q 235 103 260 53 q 210 222 210 153 q 229 394 210 314 q 290 539 249 474 q 405 633 331 604 q 578 643 479 663 z "},"b":{"ha":665,"x_min":124,"x_max":693,"o":"m 126 21 l 239 829 q 240 925 251 906 q 160 944 228 944 l 164 972 l 349 986 q 358 982 354 986 q 361 972 363 978 l 275 381 q 424 599 357 521 q 558 678 492 678 q 655 607 617 678 q 693 443 693 536 q 684 336 693 390 q 648 217 675 282 q 577 102 621 151 q 456 19 533 53 q 278 -14 378 -14 q 138 3 225 -14 q 126 21 124 6 m 594 442 q 569 561 594 511 q 511 611 544 611 q 397 516 468 611 q 268 313 325 421 l 228 24 q 372 25 308 8 q 477 81 436 42 q 545 180 518 121 q 583 304 572 239 q 594 442 594 369 z "},"c":{"ha":582,"x_min":111,"x_max":624,"o":"m 444 681 q 624 536 624 681 q 583 490 624 513 q 511 481 542 467 q 439 640 575 640 q 314 574 368 640 q 235 428 260 508 q 211 281 211 349 q 260 114 211 172 q 386 58 308 56 q 551 121 464 61 l 561 96 q 390 -1 474 22 q 246 3 307 -24 q 148 98 185 29 q 111 268 111 167 q 142 443 111 363 q 221 574 172 524 q 328 653 269 625 q 444 681 386 681 z "},"d":{"ha":692,"x_min":111,"x_max":733,"o":"m 585 660 l 610 829 q 610 925 622 906 q 531 944 599 944 l 535 972 l 719 986 q 729 982 725 986 q 732 972 733 978 l 607 103 q 613 65 603 79 q 651 56 624 51 q 717 92 679 61 l 732 69 q 653 7 694 28 q 585 -14 611 -14 q 524 19 547 -14 q 510 118 500 51 l 535 283 q 385 67 456 147 q 246 -14 314 -14 q 149 57 188 -14 q 111 221 111 128 q 128 348 111 278 q 181 497 144 418 q 290 628 217 575 q 460 681 363 681 q 585 660 517 681 m 210 222 q 235 103 210 153 q 293 53 260 53 q 411 150 336 53 q 542 351 486 247 l 581 632 q 490 646 535 646 q 283 524 357 646 q 210 222 210 403 z "},"e":{"ha":557,"x_min":111,"x_max":613,"o":"m 613 544 q 572 433 613 475 q 472 379 532 390 q 347 376 413 368 q 228 408 282 383 q 213 268 213 342 q 260 109 213 164 q 386 58 308 54 q 551 121 464 61 l 561 96 q 390 -1 474 22 q 246 3 307 -24 q 148 98 185 29 q 111 268 111 167 q 142 443 111 363 q 221 574 172 524 q 328 653 269 625 q 444 681 386 681 q 561 648 510 681 q 613 544 613 615 m 439 640 q 312 583 363 640 q 236 438 261 526 q 329 418 283 422 q 419 423 375 414 q 491 468 464 432 q 518 565 518 504 q 439 640 518 640 z "},"f":{"ha":410,"x_min":-82,"x_max":547,"o":"m 136 -4 l 224 621 l 128 621 l 133 667 l 229 667 l 233 692 q 344 906 251 813 q 511 1000 438 1000 q 536 996 525 1000 q 546 963 547 992 q 508 885 544 935 q 498 895 507 886 q 483 908 489 904 q 469 919 478 913 q 451 929 460 926 q 435 932 443 932 q 329 667 368 932 l 475 667 l 469 621 l 324 621 l 232 -29 q 121 -244 214 -150 q -46 -337 28 -337 q -71 -333 -60 -337 q -81 -301 -82 -329 q -43 -222 -79 -272 q -33 -233 -42 -224 q -18 -246 -24 -242 q -3 -257 -12 -250 q 14 -267 6 -264 q 31 -269 22 -269 q 136 -4 99 -269 z "},"g":{"ha":660,"x_min":83,"x_max":689,"o":"m 535 283 l 500 49 q 476 -58 492 -6 q 435 -169 461 -111 q 365 -262 408 -226 q 268 -297 321 -297 q 196 -137 132 -297 q 124 -147 165 -124 q 83 -193 83 -169 q 263 -337 83 -337 q 478 -244 385 -337 q 597 33 571 -151 l 686 653 q 674 667 689 664 q 533 681 600 681 q 356 647 433 681 q 234 564 278 614 q 163 449 190 514 q 126 328 135 383 q 117 221 117 274 q 155 57 117 128 q 251 -14 193 -14 q 385 65 318 -14 q 535 283 453 143 m 215 222 q 235 394 215 314 q 295 539 254 474 q 410 633 336 604 q 583 643 485 663 l 542 351 q 413 148 485 243 q 299 53 342 53 q 240 103 265 53 q 215 222 215 153 z "},"h":{"ha":703,"x_min":125,"x_max":744,"o":"m 228 0 l 138 -12 q 125 0 125 -12 l 243 829 q 244 925 256 906 q 164 944 232 944 l 168 972 l 353 986 q 365 972 365 986 l 279 383 q 435 597 354 513 q 583 681 515 681 q 678 513 701 681 l 619 103 q 626 65 615 79 q 664 56 636 51 q 729 92 692 61 l 744 69 q 665 7 707 28 q 597 -14 624 -14 q 536 19 560 -14 q 522 118 513 51 l 572 478 q 575 581 583 547 q 536 614 567 614 q 408 514 492 614 q 272 315 324 414 l 228 0 z "},"i":{"ha":344,"x_min":111,"x_max":386,"o":"m 289 790 q 218 882 250 822 q 314 972 264 936 q 386 882 360 933 q 289 790 349 833 m 310 542 l 246 103 q 252 65 242 79 q 290 56 263 51 q 356 92 318 61 l 371 69 q 292 7 333 28 q 224 -14 250 -14 q 163 19 186 -14 q 149 118 139 51 l 210 551 q 211 588 214 571 q 201 617 208 606 q 175 624 194 628 q 126 596 156 619 l 111 618 q 235 674 183 674 q 297 640 272 674 q 310 542 321 607 z "},"j":{"ha":310,"x_min":-57,"x_max":393,"o":"m 296 790 q 224 882 260 821 q 321 972 272 938 q 393 882 363 936 q 296 790 356 833 m 142 18 l 217 551 q 218 588 221 571 q 208 617 215 606 q 182 624 201 628 q 133 596 163 619 l 118 618 q 242 674 190 674 q 303 641 279 674 q 317 542 326 608 l 246 43 q 153 -175 226 -93 q -46 -329 79 -257 l -57 -310 q 72 -186 21 -261 q 142 18 124 -111 z "},"k":{"ha":667,"x_min":125,"x_max":708,"o":"m 228 0 l 138 -12 q 125 0 125 -12 l 243 829 q 244 925 256 906 q 164 944 232 944 l 168 972 l 353 986 q 365 972 365 986 l 271 307 q 354 427 308 367 q 460 554 400 488 q 579 656 519 621 q 683 678 639 692 q 694 671 688 676 q 704 654 700 665 q 707 628 708 643 q 691 591 706 614 q 647 543 676 568 q 393 428 561 622 q 433 235 404 315 q 497 119 461 156 q 559 69 532 83 q 607 54 586 54 q 683 92 636 54 l 699 69 q 619 7 661 28 q 551 -14 578 -14 q 486 -1 517 -14 q 419 45 456 11 q 358 155 383 79 q 324 340 332 231 q 264 253 292 296 l 228 0 z "},"l":{"ha":338,"x_min":132,"x_max":365,"o":"m 364 972 l 239 103 q 245 65 235 79 q 283 56 256 51 q 349 92 311 61 l 364 69 q 285 7 326 28 q 217 -14 243 -14 q 156 19 179 -14 q 142 118 132 51 l 242 829 q 242 925 254 906 q 163 944 231 944 l 167 972 l 351 986 q 361 982 357 986 q 364 972 365 978 z "},"m":{"ha":1051,"x_min":111,"x_max":1093,"o":"m 278 315 l 233 0 l 143 -12 q 131 0 131 -12 l 210 551 q 211 588 214 571 q 201 617 208 606 q 175 624 194 628 q 126 596 156 619 l 111 618 q 235 674 183 674 q 297 640 272 674 q 310 542 321 607 l 285 383 q 435 601 364 521 q 572 681 506 681 q 665 513 689 681 l 649 390 q 796 602 726 524 q 932 681 865 681 q 1026 513 1050 681 l 968 103 q 974 65 964 79 q 1013 56 985 51 q 1078 92 1040 61 l 1093 69 q 1014 7 1056 28 q 946 -14 972 -14 q 885 19 908 -14 q 871 118 861 51 l 921 478 q 924 581 932 547 q 885 614 915 614 q 767 519 842 614 q 639 319 693 424 l 594 0 l 504 -12 q 492 0 492 -12 l 560 478 q 563 581 571 547 q 525 614 556 614 q 408 517 482 614 q 278 315 333 421 z "},"n":{"ha":708,"x_min":111,"x_max":750,"o":"m 310 542 l 285 383 q 440 597 360 513 q 589 681 521 681 q 683 513 707 681 l 625 103 q 631 65 621 79 q 669 56 642 51 q 735 92 697 61 l 750 69 q 671 7 713 28 q 603 -14 629 -14 q 542 19 565 -14 q 528 118 518 51 l 578 478 q 581 581 589 547 q 542 614 572 614 q 413 514 497 614 q 278 315 329 414 l 233 0 l 143 -12 q 131 0 131 -12 l 210 551 q 211 588 214 571 q 201 617 208 606 q 175 624 194 628 q 126 596 156 619 l 111 618 q 235 674 183 674 q 297 640 272 674 q 310 542 321 607 z "},"o":{"ha":625,"x_min":111,"x_max":667,"o":"m 442 681 q 607 599 547 681 q 667 392 667 517 q 570 106 667 225 q 335 -14 474 -14 q 170 67 229 -14 q 111 274 111 147 q 207 561 111 442 q 442 681 303 681 m 346 26 q 453 65 408 26 q 522 167 499 104 q 554 294 544 231 q 564 424 564 357 q 432 640 564 640 q 324 602 369 640 q 256 500 278 564 q 224 373 233 436 q 214 243 214 310 q 346 26 214 26 z "},"p":{"ha":683,"x_min":0,"x_max":711,"o":"m 239 -11 l 217 -175 q 216 -272 201 -247 q 315 -296 231 -296 l 311 -324 l 0 -324 l 4 -296 q 88 -278 72 -296 q 114 -190 104 -260 q 116 -183 115 -186 q 117 -175 117 -179 l 219 551 q 221 588 224 571 q 211 617 218 606 q 185 624 204 628 q 136 596 165 619 l 121 618 q 244 674 193 674 q 306 640 282 674 q 319 542 331 607 l 293 381 q 442 599 375 521 q 576 678 510 678 q 673 607 635 678 q 711 443 711 536 q 702 336 711 390 q 665 217 693 282 q 594 102 638 151 q 472 19 550 53 q 294 -14 394 -14 q 239 -11 275 -14 m 286 313 l 244 24 q 417 33 343 4 q 533 126 492 61 q 593 271 574 192 q 613 442 613 350 q 588 561 613 511 q 529 611 563 611 q 415 516 486 611 q 286 313 343 421 z "},"q":{"ha":682,"x_min":111,"x_max":683,"o":"m 564 -174 l 681 653 q 668 667 683 664 q 528 681 594 681 q 350 647 428 681 q 228 564 272 614 q 157 449 185 514 q 120 328 129 383 q 111 221 111 274 q 149 57 111 128 q 246 -14 188 -14 q 380 65 313 -14 q 529 283 447 143 l 464 -174 q 432 -274 453 -253 q 340 -296 411 -296 l 336 -324 l 629 -324 l 633 -296 q 563 -273 574 -296 q 564 -174 551 -250 m 578 643 l 536 351 q 408 148 479 243 q 293 53 336 53 q 235 103 260 53 q 210 222 210 153 q 229 394 210 314 q 290 539 249 474 q 405 633 331 604 q 578 643 479 663 z "},"r":{"ha":467,"x_min":111,"x_max":578,"o":"m 310 542 l 282 375 q 333 490 304 435 q 398 594 363 544 q 474 667 433 643 q 553 678 515 690 q 563 671 557 676 q 574 654 569 665 q 576 628 578 643 q 560 591 575 614 q 517 543 546 568 q 278 315 411 632 l 233 0 l 143 -12 q 131 0 131 -12 l 210 551 q 211 588 214 571 q 201 617 208 606 q 175 624 194 628 q 126 596 156 619 l 111 618 q 235 674 183 674 q 297 640 272 674 q 310 542 321 607 z "},"s":{"ha":515,"x_min":97,"x_max":557,"o":"m 275 -14 q 151 23 206 -14 q 97 135 97 60 q 134 176 97 156 q 199 185 171 196 q 187 72 168 117 q 276 26 206 26 q 382 63 344 26 q 419 144 419 99 q 381 243 419 194 q 296 324 342 292 q 211 403 250 357 q 172 497 172 450 q 238 633 172 586 q 393 681 303 681 q 509 642 461 681 q 557 536 557 604 q 522 497 557 517 q 460 489 488 478 q 468 594 486 549 q 393 640 450 640 q 311 607 347 640 q 275 525 275 574 q 315 446 275 488 q 401 372 354 404 q 487 289 447 339 q 526 186 526 239 q 501 93 526 133 q 438 31 476 53 q 357 -3 399 8 q 275 -14 315 -14 z "},"t":{"ha":431,"x_min":153,"x_max":500,"o":"m 358 829 l 335 667 l 500 667 l 494 621 l 329 621 l 272 213 q 303 48 254 83 q 436 92 351 13 l 451 69 q 283 -14 375 -14 q 208 10 236 -14 q 172 72 179 35 q 165 135 165 110 q 168 183 165 161 l 229 621 l 153 621 l 158 660 q 274 711 226 660 q 346 829 321 763 l 358 829 z "},"u":{"ha":697,"x_min":111,"x_max":739,"o":"m 310 542 l 260 189 q 257 86 249 119 q 296 53 265 53 q 417 151 340 53 q 549 351 494 249 l 593 667 l 683 679 q 696 667 696 679 l 614 103 q 620 65 610 79 q 658 56 631 51 q 724 92 686 61 l 739 69 q 660 7 701 28 q 592 -14 618 -14 q 531 19 554 -14 q 517 118 507 51 l 542 283 q 249 -14 368 -14 q 154 154 131 -14 l 210 551 q 211 588 214 571 q 201 617 208 606 q 175 624 194 628 q 126 596 156 619 l 111 618 q 235 674 183 674 q 296 641 272 674 q 310 542 319 608 z "},"v":{"ha":599,"x_min":83,"x_max":640,"o":"m 360 0 l 301 -12 q 289 0 289 -12 l 188 572 q 182 595 185 588 q 170 615 179 603 q 143 623 161 628 q 99 596 125 618 l 83 618 q 207 674 156 674 q 267 650 244 674 q 300 560 290 626 l 371 92 q 458 235 426 182 q 526 372 489 288 q 563 507 563 457 q 508 600 563 579 q 589 700 539 700 q 640 611 640 700 q 360 0 640 431 z "},"w":{"ha":947,"x_min":83,"x_max":989,"o":"m 624 667 l 719 92 q 806 235 775 182 q 874 372 838 288 q 911 507 911 457 q 857 600 911 579 q 938 700 888 700 q 989 611 989 700 q 708 0 989 431 l 650 -12 q 638 0 638 -12 l 558 433 q 360 0 444 131 l 301 -12 q 289 0 289 -12 l 188 572 q 182 595 185 588 q 170 615 179 603 q 143 623 161 628 q 99 596 125 618 l 83 618 q 207 674 156 674 q 267 650 244 674 q 300 560 290 626 l 371 92 q 494 366 422 175 q 593 657 567 557 l 624 667 z "},"x":{"ha":663,"x_min":83,"x_max":746,"o":"m 350 583 l 421 397 q 576 612 494 526 q 721 678 657 697 q 731 671 725 676 q 742 654 738 665 q 744 628 746 643 q 728 591 743 614 q 685 543 714 568 q 635 565 661 565 q 584 550 608 565 q 532 503 560 535 q 482 438 504 472 q 433 360 460 404 q 543 103 496 194 q 686 92 589 13 l 701 69 q 622 7 664 28 q 554 -14 581 -14 q 432 97 478 -14 q 371 251 410 149 q 310 147 340 193 q 246 59 281 101 q 176 -2 211 17 q 108 -11 140 -21 q 98 -4 104 -10 q 88 13 92 1 q 85 38 83 24 q 101 76 86 53 q 144 124 115 99 q 183 102 164 107 q 219 107 201 97 q 254 131 238 117 q 290 174 271 146 q 324 227 310 201 q 358 289 339 253 l 239 576 q 132 596 206 657 l 117 618 q 240 674 189 674 q 278 670 264 674 q 314 646 293 667 q 350 583 335 625 z "},"y":{"ha":603,"x_min":13,"x_max":644,"o":"m 328 -28 l 192 572 q 185 594 188 588 q 172 614 182 601 q 145 622 163 626 q 103 596 128 617 l 88 618 q 211 674 160 674 q 269 650 247 674 q 304 560 292 626 l 397 79 q 515 308 463 183 q 567 507 567 432 q 513 600 567 579 q 593 700 543 700 q 644 611 644 700 q 584 385 644 542 q 437 67 524 228 q 242 -215 350 -93 q 53 -337 135 -337 q 40 -335 47 -337 q 24 -322 32 -332 q 15 -299 17 -312 q 22 -260 13 -285 q 53 -204 31 -235 q 132 -218 107 -221 q 328 -28 225 -207 z "},"z":{"ha":567,"x_min":83,"x_max":622,"o":"m 617 667 l 622 656 l 206 101 q 347 80 258 107 q 458 53 436 53 q 564 92 515 53 l 579 69 q 390 -18 499 -18 q 261 -3 367 -18 q 93 0 156 13 l 83 18 l 506 583 l 339 583 q 244 567 268 583 q 204 488 219 550 l 179 488 l 213 653 q 229 667 215 667 l 617 667 z "},"{":{"ha":376,"x_min":104,"x_max":481,"o":"m 183 375 l 182 371 q 262 294 249 363 q 232 49 275 226 q 211 -72 214 -21 q 213 -151 208 -124 q 238 -199 217 -178 q 268 -224 258 -219 q 307 -242 278 -229 l 294 -279 q 132 -150 150 -239 q 138 -33 124 -117 q 167 127 151 50 q 171 277 183 204 q 104 372 158 350 q 198 470 165 397 q 236 619 231 543 q 251 778 242 694 q 278 896 260 863 q 476 1025 324 985 l 481 988 q 449 976 456 978 q 421 961 443 974 q 390 938 399 949 q 366 906 382 928 q 344 856 350 883 q 331 788 338 829 q 322 697 324 747 q 285 455 318 526 q 183 375 253 383 z "},"|":{"ha":339,"x_min":104,"x_max":374,"o":"m 374 1068 l 175 -343 l 104 -343 l 303 1068 l 374 1068 z "},"}":{"ha":379,"x_min":7,"x_max":379,"o":"m 301 371 l 303 375 q 224 451 236 383 q 254 697 211 519 q 274 818 272 767 q 273 897 276 869 q 249 944 269 924 q 218 970 228 965 q 179 988 208 975 l 192 1025 q 301 976 260 1006 q 354 896 342 947 q 348 778 363 861 q 317 619 333 694 q 313 470 301 543 q 379 372 325 397 q 286 276 318 349 q 249 127 254 204 q 235 -33 244 50 q 208 -150 226 -117 q 11 -279 158 -239 l 7 -242 q 96 -192 72 -217 q 164 49 158 -128 q 200 292 168 221 q 301 371 232 363 z "},"~":{"ha":864,"x_min":181,"x_max":822,"o":"m 794 529 l 822 507 q 642 363 724 363 q 474 386 582 363 q 313 410 367 410 q 210 356 257 410 l 181 378 q 363 522 279 522 q 529 499 422 522 q 690 475 636 475 q 794 529 746 475 z "}," ":{"ha":149,"x_min":0,"x_max":0,"o":""},"¡":{"ha":403,"x_min":83,"x_max":375,"o":"m 236 375 l 268 375 q 246 14 258 301 q 226 -318 233 -274 l 83 -318 q 157 13 89 -275 q 236 375 225 301 m 294 668 q 375 563 338 629 q 264 458 325 506 q 182 563 219 500 q 294 668 226 618 z "},"¢":{"ha":636,"x_min":125,"x_max":636,"o":"m 367 47 l 324 47 l 338 151 q 183 221 242 149 q 125 422 125 293 q 217 701 125 596 q 431 818 310 806 l 447 925 l 490 925 l 474 819 q 636 675 636 810 q 594 624 636 650 q 525 619 553 597 q 453 779 588 779 q 327 717 381 779 q 251 578 274 654 q 228 433 228 501 q 276 272 228 326 q 402 222 325 217 q 568 288 479 228 l 578 263 q 382 157 475 176 l 367 47 z "},"£":{"ha":790,"x_min":51,"x_max":808,"o":"m 240 485 l 247 531 l 372 531 l 415 678 q 560 892 450 799 q 743 986 669 986 q 747 904 807 986 l 721 871 q 656 918 682 918 q 507 653 582 918 l 472 531 l 651 531 l 644 485 l 458 485 l 421 350 q 378 247 411 311 q 301 132 344 182 q 403 135 357 147 q 477 105 450 124 q 537 67 504 86 q 596 49 569 49 q 646 67 626 49 q 665 110 665 85 q 654 147 665 128 q 728 174 728 238 q 683 46 728 107 q 556 -15 639 -15 q 435 8 494 -15 q 326 54 375 31 q 242 78 276 78 q 92 -14 185 24 q 61 26 71 -4 q 60 89 51 57 q 231 121 106 115 q 321 350 269 175 l 360 485 l 240 485 z "},"¤":{"ha":650,"x_min":83,"x_max":650,"o":"m 158 319 q 236 496 158 413 l 157 615 l 189 646 l 271 525 q 394 567 328 567 q 508 525 463 567 l 621 644 l 650 618 l 535 497 q 572 371 572 446 q 494 193 572 274 q 571 78 539 125 l 538 46 l 458 164 q 332 122 399 122 q 221 164 265 122 q 110 46 136 75 l 83 78 l 194 193 q 158 319 158 246 m 197 322 q 238 211 197 257 q 339 165 279 165 q 474 225 415 165 q 532 367 532 285 q 491 479 532 433 q 389 525 450 525 q 256 464 315 525 q 197 322 197 403 z "},"¥":{"ha":944,"x_min":194,"x_max":1000,"o":"m 239 314 l 244 360 l 458 360 l 467 417 l 444 481 l 263 481 l 268 526 l 428 526 l 318 844 q 301 891 306 879 q 282 919 296 903 q 248 940 268 936 q 194 944 228 944 l 197 972 l 526 972 l 524 944 q 437 919 456 944 q 440 835 418 894 l 554 474 l 769 842 q 715 944 836 944 l 718 972 l 1000 972 l 997 944 q 897 917 936 944 q 814 825 858 890 l 636 526 l 801 526 l 796 481 l 610 481 l 572 417 l 564 360 l 778 360 l 772 314 l 558 314 l 536 156 q 552 52 525 76 q 668 28 579 28 l 664 0 l 258 0 l 263 28 q 385 52 350 28 q 431 156 419 76 l 453 314 l 239 314 z "},"¦":{"ha":331,"x_min":104,"x_max":365,"o":"m 365 1190 l 292 658 l 221 658 l 294 1190 l 365 1190 m 250 361 l 175 -171 l 104 -171 l 179 361 l 250 361 z "},"§":{"ha":725,"x_min":139,"x_max":725,"o":"m 299 593 q 315 474 296 532 q 363 374 333 417 q 425 285 392 332 q 484 197 458 238 q 520 101 510 157 q 515 -12 531 46 q 568 189 568 89 q 548 296 568 243 q 498 388 528 349 q 436 472 468 426 q 380 557 404 517 q 345 651 356 597 q 350 761 335 704 q 299 593 311 686 m 454 -143 q 333 -235 408 -217 q 198 -213 257 -254 q 139 -90 139 -172 q 180 -40 139 -65 q 250 -37 221 -15 q 226 -155 217 -112 q 306 -197 236 -197 q 410 -131 367 -197 q 454 0 454 -64 q 430 112 454 56 q 371 215 406 168 q 301 310 336 263 q 242 418 267 358 q 218 540 218 478 q 410 892 218 718 q 531 984 456 965 q 666 962 607 1003 q 725 839 725 921 q 683 789 725 814 q 614 786 642 764 q 638 903 647 861 q 560 946 629 946 q 453 880 497 946 q 410 750 410 814 q 447 613 410 683 q 529 489 485 542 q 611 360 574 436 q 649 208 649 285 q 454 -143 649 32 z "},"¨":{"ha":504,"x_min":181,"x_max":557,"o":"m 240 781 q 181 857 208 806 q 261 932 222 906 q 321 857 294 901 q 240 781 289 815 m 476 781 q 417 857 443 808 q 497 932 458 906 q 557 857 535 899 q 476 781 528 818 z "},"©":{"ha":1113,"x_min":167,"x_max":1057,"o":"m 167 447 q 322 825 167 664 q 679 986 478 986 q 949 865 842 986 q 1057 567 1057 743 q 901 189 1057 350 q 544 28 746 28 q 274 149 381 28 q 167 447 167 269 m 215 454 q 311 190 215 297 q 551 82 407 82 q 869 225 731 82 q 1008 560 1008 368 q 913 824 1008 717 q 671 932 817 932 q 354 789 493 932 q 215 454 215 646 m 326 457 q 428 724 326 632 q 668 817 529 817 q 833 776 757 817 l 815 649 l 785 649 q 767 744 792 711 q 663 778 742 778 q 485 681 554 778 q 417 461 417 585 q 460 301 417 365 q 586 236 504 236 q 701 270 667 236 q 744 365 735 304 l 775 365 l 757 238 q 581 197 669 197 q 399 263 472 197 q 326 457 326 329 z "},"ª":{"ha":447,"x_min":153,"x_max":475,"o":"m 471 569 l 475 553 q 407 535 435 535 q 354 588 364 535 q 229 535 286 535 q 174 561 196 535 q 153 632 153 588 q 161 672 153 654 q 190 700 169 689 q 224 717 210 711 q 270 728 238 724 q 313 734 303 733 q 357 738 324 735 q 375 739 369 739 l 394 882 q 349 961 406 961 q 276 927 300 961 q 258 860 253 893 q 192 861 192 818 q 256 947 192 907 q 376 986 319 986 q 440 970 418 986 q 464 937 461 954 q 464 894 467 919 l 424 610 q 424 586 422 596 q 435 567 425 576 q 471 569 446 557 m 219 644 q 257 569 214 569 q 357 610 310 569 l 372 718 q 251 697 275 711 q 219 644 225 682 z "},"«":{"ha":663,"x_min":167,"x_max":628,"o":"m 167 343 l 413 571 l 435 550 l 289 364 q 274 340 275 346 q 282 319 274 335 l 376 135 l 349 114 l 167 343 m 360 343 l 606 571 l 628 550 l 482 364 q 467 340 468 346 q 475 319 467 335 l 569 135 l 542 114 l 360 343 z "},"¬":{"ha":893,"x_min":174,"x_max":824,"o":"m 185 467 l 824 467 l 776 135 l 697 135 l 732 381 l 174 381 l 185 467 z "},"®":{"ha":1113,"x_min":167,"x_max":1057,"o":"m 167 447 q 322 825 167 664 q 679 986 478 986 q 949 865 842 986 q 1057 567 1057 743 q 901 189 1057 350 q 544 28 746 28 q 274 149 381 28 q 167 447 167 269 m 215 454 q 311 190 215 297 q 551 82 407 82 q 869 225 731 82 q 1008 560 1008 368 q 913 824 1008 717 q 671 932 817 932 q 354 789 493 932 q 215 454 215 646 m 681 503 l 796 236 l 764 217 l 585 490 l 547 490 l 522 321 q 527 271 518 288 q 575 254 536 254 l 571 226 l 368 226 l 372 254 q 424 270 411 254 q 440 321 436 286 l 493 694 q 447 763 503 763 l 451 790 l 607 790 q 674 788 646 790 q 738 775 701 785 q 794 740 774 765 q 814 676 814 715 q 681 503 814 551 m 583 756 l 551 525 l 589 525 q 726 671 726 525 q 690 738 726 721 q 583 756 653 756 z "},"¯":{"ha":526,"x_min":171,"x_max":579,"o":"m 579 863 l 569 790 l 171 790 l 181 863 l 579 863 z "},"°":{"ha":646,"x_min":253,"x_max":653,"o":"m 253 785 q 322 956 253 883 q 482 1028 390 1028 q 604 974 556 1028 q 653 839 653 919 q 583 670 653 742 q 422 599 513 599 q 301 652 349 599 q 253 785 253 706 m 307 793 q 342 696 307 735 q 429 657 376 657 q 547 709 496 657 q 597 832 597 761 q 563 930 597 890 q 474 969 528 969 q 358 917 408 969 q 307 793 307 864 z "},"±":{"ha":829,"x_min":139,"x_max":760,"o":"m 515 486 l 760 486 l 750 417 l 506 417 l 468 150 l 404 150 l 442 417 l 197 417 l 207 486 l 451 486 l 489 753 l 553 753 l 515 486 m 149 69 l 701 69 l 692 0 l 139 0 l 149 69 z "},"²":{"ha":476,"x_min":74,"x_max":454,"o":"m 83 667 l 74 683 q 149 745 131 729 q 221 810 168 761 q 297 891 274 860 q 342 969 319 922 q 364 1057 364 1015 q 342 1122 364 1099 q 282 1144 319 1144 q 156 1067 207 1144 l 140 1075 q 225 1165 175 1132 q 329 1199 275 1199 q 422 1168 389 1199 q 454 1082 454 1138 q 443 1022 454 1053 q 408 960 432 992 q 365 905 385 929 q 308 849 344 881 q 253 803 271 818 q 199 760 236 789 q 160 729 163 732 l 429 729 l 406 667 l 83 667 z "},"³":{"ha":493,"x_min":86,"x_max":451,"o":"m 326 1199 q 418 1169 385 1199 q 451 1096 451 1139 q 408 1004 451 1050 q 303 943 365 958 l 303 942 q 399 904 364 938 q 433 825 433 871 q 367 702 433 744 q 218 660 300 660 q 124 688 161 660 q 90 758 86 715 q 123 786 94 782 q 171 774 151 790 q 169 713 154 740 q 222 686 185 686 q 309 726 275 686 q 343 832 343 767 q 322 901 343 874 q 261 928 301 928 l 225 928 l 229 954 l 256 954 q 333 990 303 954 q 364 1068 364 1025 q 342 1124 364 1103 q 283 1144 319 1144 q 153 1067 208 1144 l 139 1075 q 221 1164 171 1129 q 326 1199 271 1199 z "},"´":{"ha":335,"x_min":163,"x_max":404,"o":"m 404 972 l 189 731 l 163 731 l 288 958 q 351 981 318 978 q 404 972 385 985 z "},"µ":{"ha":697,"x_min":-46,"x_max":739,"o":"m 172 29 l 240 510 q 242 609 254 586 q 161 632 229 632 l 165 660 l 363 667 l 299 206 q 307 97 288 136 q 390 58 326 58 q 553 131 464 58 l 607 510 q 604 611 618 590 q 515 632 590 632 l 519 660 l 729 667 l 660 171 q 658 72 646 94 q 739 49 671 49 l 735 21 l 533 -14 l 549 99 q 267 -8 381 -50 q 152 -215 244 -126 q -11 -304 60 -304 q -35 -300 -25 -304 q -44 -267 -46 -296 q -7 -189 -43 -239 q 65 -236 40 -236 q 172 29 135 -236 z "},"μ":{"ha":697,"x_min":-46,"x_max":739,"o":"m 172 29 l 240 510 q 242 609 254 586 q 161 632 229 632 l 165 660 l 363 667 l 299 206 q 307 97 288 136 q 390 58 326 58 q 553 131 464 58 l 607 510 q 604 611 618 590 q 515 632 590 632 l 519 660 l 729 667 l 660 171 q 658 72 646 94 q 739 49 671 49 l 735 21 l 533 -14 l 549 99 q 267 -8 381 -50 q 152 -215 244 -126 q -11 -304 60 -304 q -35 -300 -25 -304 q -44 -267 -46 -296 q -7 -189 -43 -239 q 65 -236 40 -236 q 172 29 135 -236 z "},"¶":{"ha":828,"x_min":208,"x_max":828,"o":"m 715 872 l 614 149 q 502 -66 596 28 q 335 -160 408 -160 q 310 -156 321 -160 q 301 -123 299 -151 q 339 -44 303 -94 q 411 -92 386 -92 q 517 174 478 -92 l 556 451 l 464 451 q 208 664 208 451 q 288 895 208 818 q 536 972 367 972 l 828 972 l 825 944 q 756 934 781 944 q 726 911 732 924 q 715 872 719 899 z "},"·":{"ha":429,"x_min":167,"x_max":360,"o":"m 249 288 q 167 393 204 326 q 278 497 219 454 q 360 393 325 451 q 249 288 317 339 z "},"¸":{"ha":343,"x_min":28,"x_max":256,"o":"m 115 0 l 147 0 l 139 -47 q 153 -76 136 -65 q 194 -92 171 -87 q 236 -114 217 -97 q 256 -160 256 -131 q 180 -256 256 -217 q 29 -290 104 -296 l 28 -257 q 175 -175 175 -257 q 161 -137 175 -150 q 132 -122 147 -124 q 107 -106 117 -119 q 103 -64 97 -92 l 115 0 z "},"¹":{"ha":371,"x_min":65,"x_max":304,"o":"m 299 667 l 65 667 l 68 686 q 133 699 118 686 q 154 753 147 711 l 206 1093 q 201 1145 213 1133 q 140 1157 190 1157 l 143 1176 l 286 1196 l 304 1196 l 238 753 q 240 699 231 711 q 301 686 250 688 l 299 667 z "},"º":{"ha":485,"x_min":153,"x_max":513,"o":"m 368 986 q 474 934 436 986 q 513 800 513 882 q 450 613 513 690 q 297 535 388 535 q 191 588 229 535 q 153 722 153 640 q 215 909 153 832 q 368 986 278 986 m 304 561 q 377 588 347 561 q 421 657 407 614 q 440 740 435 700 q 446 821 446 779 q 360 961 446 961 q 288 935 318 961 q 244 865 258 908 q 225 783 231 822 q 219 701 219 743 q 304 561 219 561 z "},"»":{"ha":663,"x_min":139,"x_max":600,"o":"m 224 571 l 407 343 l 160 114 l 139 135 l 282 319 q 295 340 294 335 q 289 364 296 346 l 197 550 l 224 571 m 417 571 l 600 343 l 353 114 l 332 135 l 475 319 q 488 340 488 335 q 482 364 489 346 l 390 550 l 417 571 z "},"¼":{"ha":922,"x_min":69,"x_max":876,"o":"m 121 4 l 815 1000 l 853 972 l 161 -24 l 121 4 m 861 144 l 801 144 l 794 89 q 798 28 788 40 q 861 15 808 15 l 858 0 l 640 0 l 643 15 q 710 28 694 15 q 733 89 726 42 l 740 144 l 515 144 l 522 192 l 826 558 l 861 558 l 808 192 l 876 192 l 861 144 m 554 192 l 747 192 l 786 469 l 554 192 m 286 417 l 69 417 l 72 432 q 140 445 125 432 q 161 506 154 458 l 214 871 q 208 926 221 914 q 144 939 196 939 l 147 956 l 275 975 l 290 975 l 224 506 q 226 445 217 457 q 289 432 235 433 l 286 417 z "},"½":{"ha":960,"x_min":69,"x_max":935,"o":"m 121 4 l 815 1000 l 853 972 l 161 -24 l 121 4 m 286 417 l 69 417 l 72 432 q 140 445 125 432 q 161 506 154 458 l 214 871 q 208 926 221 914 q 144 939 196 939 l 147 956 l 275 975 l 290 975 l 224 506 q 226 445 217 457 q 289 432 235 433 l 286 417 m 582 0 l 569 15 q 609 50 575 21 q 654 90 643 79 q 697 128 665 100 q 741 173 728 157 q 779 217 754 189 q 815 265 804 244 q 840 313 826 286 q 860 364 854 339 q 865 414 865 389 q 842 484 865 458 q 776 510 818 510 q 709 488 743 510 q 650 428 675 465 l 638 435 q 717 528 667 493 q 819 563 768 563 q 906 528 876 563 q 935 438 935 494 q 917 360 935 401 q 875 285 899 318 q 813 210 851 251 q 750 149 774 169 q 688 95 726 128 q 647 60 650 63 l 907 60 l 885 0 l 582 0 z "},"¾":{"ha":1014,"x_min":94,"x_max":968,"o":"m 213 4 l 907 1000 l 944 972 l 253 -24 l 213 4 m 953 144 l 893 144 l 886 89 q 890 28 879 40 q 953 15 900 15 l 950 0 l 732 0 l 735 15 q 802 28 786 15 q 825 89 818 42 l 832 144 l 607 144 l 614 192 l 918 558 l 953 558 l 900 192 l 968 192 l 953 144 m 646 192 l 839 192 l 878 469 l 646 192 m 325 979 q 408 948 375 979 q 442 869 442 917 q 401 770 442 815 q 310 710 361 725 l 310 708 q 394 666 365 700 q 422 588 422 632 q 358 458 422 508 q 215 408 293 408 q 129 433 164 408 q 94 501 94 457 q 117 524 94 514 q 158 522 140 533 q 160 457 142 482 q 219 432 178 432 q 317 482 279 432 q 356 593 356 532 q 334 665 356 636 q 271 694 313 694 l 232 694 l 236 718 l 265 718 q 344 755 311 718 q 376 840 376 792 q 351 903 376 881 q 289 926 325 926 q 224 908 254 926 q 184 878 193 889 q 157 844 175 868 l 144 851 q 220 941 169 903 q 325 979 271 979 z "},"¿":{"ha":590,"x_min":111,"x_max":556,"o":"m 326 -332 q 174 -253 236 -332 q 111 -60 111 -175 q 128 44 111 -3 q 165 120 144 92 q 226 176 186 149 q 290 216 265 204 q 363 249 315 228 q 397 278 385 258 q 411 313 408 297 q 415 351 414 328 q 415 375 415 374 l 449 375 l 458 147 q 257 83 349 147 q 165 -76 165 18 q 211 -223 165 -154 q 332 -292 257 -292 q 450 -132 468 -292 q 553 -143 553 -67 q 531 -240 553 -200 q 473 -298 510 -279 q 401 -324 436 -317 q 326 -332 367 -332 m 474 668 q 556 563 518 629 q 443 458 504 504 q 361 563 399 500 q 474 668 406 618 z "},"À":{"ha":883,"x_min":14,"x_max":939,"o":"m 694 156 l 668 283 l 308 283 l 246 156 q 233 60 214 93 q 328 28 251 28 l 324 0 l 14 0 l 18 28 q 119 53 86 28 q 192 156 151 78 l 608 986 l 624 986 l 806 156 q 847 53 824 78 q 939 28 871 28 l 935 0 l 583 0 l 588 28 q 687 55 667 28 q 694 156 707 82 m 564 806 l 331 329 l 660 329 l 564 806 m 625 1036 l 479 1278 q 533 1287 500 1290 q 590 1264 567 1283 l 651 1036 l 625 1036 z "},"Á":{"ha":883,"x_min":14,"x_max":939,"o":"m 694 156 l 668 283 l 308 283 l 246 156 q 233 60 214 93 q 328 28 251 28 l 324 0 l 14 0 l 18 28 q 119 53 86 28 q 192 156 151 78 l 608 986 l 624 986 l 806 156 q 847 53 824 78 q 939 28 871 28 l 935 0 l 583 0 l 588 28 q 687 55 667 28 q 694 156 707 82 m 564 806 l 331 329 l 660 329 l 564 806 m 800 1278 l 585 1036 l 558 1036 l 683 1264 q 747 1287 714 1283 q 800 1278 781 1290 z "},"Â":{"ha":883,"x_min":14,"x_max":939,"o":"m 694 156 l 668 283 l 308 283 l 246 156 q 233 60 214 93 q 328 28 251 28 l 324 0 l 14 0 l 18 28 q 119 53 86 28 q 192 156 151 78 l 608 986 l 624 986 l 806 156 q 847 53 824 78 q 939 28 871 28 l 935 0 l 583 0 l 588 28 q 687 55 667 28 q 694 156 707 82 m 564 806 l 331 329 l 660 329 l 564 806 m 817 1036 l 785 1036 l 643 1181 l 461 1036 l 431 1036 l 621 1268 l 690 1268 l 817 1036 z "},"Ã":{"ha":883,"x_min":14,"x_max":939,"o":"m 694 156 l 668 283 l 308 283 l 246 156 q 233 60 214 93 q 328 28 251 28 l 324 0 l 14 0 l 18 28 q 119 53 86 28 q 192 156 151 78 l 608 986 l 624 986 l 806 156 q 847 53 824 78 q 939 28 871 28 l 935 0 l 583 0 l 588 28 q 687 55 667 28 q 694 156 707 82 m 564 806 l 331 329 l 660 329 l 564 806 m 438 1079 l 419 1094 q 558 1204 493 1204 q 656 1182 594 1204 q 750 1160 718 1160 q 826 1206 789 1160 l 844 1190 q 706 1081 771 1081 q 608 1103 669 1081 q 514 1125 546 1125 q 438 1079 475 1125 z "},"Ä":{"ha":883,"x_min":14,"x_max":939,"o":"m 694 156 l 668 283 l 308 283 l 246 156 q 233 60 214 93 q 328 28 251 28 l 324 0 l 14 0 l 18 28 q 119 53 86 28 q 192 156 151 78 l 608 986 l 624 986 l 806 156 q 847 53 824 78 q 939 28 871 28 l 935 0 l 583 0 l 588 28 q 687 55 667 28 q 694 156 707 82 m 564 806 l 331 329 l 660 329 l 564 806 m 506 1086 q 446 1163 474 1111 q 526 1238 488 1211 q 586 1163 560 1207 q 506 1086 554 1121 m 742 1086 q 682 1163 708 1114 q 763 1238 724 1211 q 822 1163 800 1204 q 742 1086 793 1124 z "},"Å":{"ha":883,"x_min":14,"x_max":939,"o":"m 496 1063 q 541 1174 496 1126 q 646 1221 586 1221 q 725 1185 693 1221 q 757 1099 757 1150 q 720 998 757 1042 q 632 943 683 954 l 806 156 q 847 53 824 78 q 939 28 871 28 l 935 0 l 583 0 l 588 28 q 687 55 667 28 q 694 156 707 82 l 668 283 l 308 283 l 246 156 q 233 60 214 93 q 328 28 251 28 l 324 0 l 14 0 l 18 28 q 119 53 86 28 q 192 156 151 78 l 586 942 q 521 983 546 949 q 496 1063 496 1017 m 564 806 l 331 329 l 660 329 l 564 806 m 547 1069 q 566 1017 547 1038 q 614 996 585 996 q 676 1024 649 996 q 704 1090 704 1053 q 685 1144 704 1122 q 638 1165 667 1165 q 574 1137 601 1165 q 547 1069 547 1108 z "},"Æ":{"ha":1161,"x_min":14,"x_max":1224,"o":"m 1126 0 l 699 0 q 615 22 642 0 q 589 79 589 44 q 593 156 589 114 l 611 283 l 319 283 l 242 156 q 217 114 226 131 q 204 80 208 97 q 206 52 200 63 q 228 35 211 42 q 276 29 246 29 l 272 0 l 14 0 l 18 29 q 94 45 64 29 q 140 81 125 61 q 190 156 156 101 l 690 972 l 1224 972 l 1203 774 l 1176 774 q 1172 847 1176 821 q 1160 891 1168 874 q 1131 915 1153 908 q 1087 924 1108 922 q 1018 926 1065 926 l 807 926 l 751 532 l 933 532 q 1026 553 1004 532 q 1058 654 1047 574 l 1083 654 l 1042 360 l 1017 360 q 1013 465 1029 443 q 926 486 997 486 l 744 486 l 700 164 q 711 74 690 100 q 799 47 732 47 l 958 47 q 1074 80 1033 47 q 1143 221 1114 113 l 1169 221 l 1126 0 m 347 329 l 617 329 l 697 904 l 347 329 z "},"Ç":{"ha":858,"x_min":125,"x_max":935,"o":"m 125 399 q 169 664 125 547 q 290 849 214 781 q 456 951 365 917 q 646 986 546 986 q 935 878 813 986 l 904 638 l 879 638 q 874 786 892 724 q 819 880 857 849 q 738 924 781 911 q 649 938 696 938 q 358 785 475 938 q 240 404 240 633 q 316 136 240 238 q 522 35 392 35 q 596 42 560 35 q 672 71 632 50 q 743 124 711 92 q 801 210 775 156 q 836 335 826 265 l 861 335 l 825 94 q 514 -14 676 -10 l 508 -47 q 523 -76 506 -65 q 563 -92 540 -87 q 606 -114 586 -97 q 625 -160 625 -131 q 549 -256 625 -217 q 399 -290 474 -296 l 397 -257 q 544 -175 544 -257 q 531 -137 544 -150 q 501 -122 517 -124 q 476 -106 486 -119 q 472 -64 467 -92 l 482 -12 q 225 97 325 -6 q 125 399 125 200 z "},"È":{"ha":764,"x_min":49,"x_max":826,"o":"m 49 0 l 53 28 q 159 53 133 28 q 196 156 185 78 l 289 817 q 283 919 300 893 q 182 944 267 944 l 185 972 l 826 972 l 804 774 l 779 774 q 775 847 779 821 q 763 891 771 874 q 733 915 756 908 q 690 924 711 922 q 621 926 668 926 l 408 926 l 353 532 l 536 532 q 628 552 607 532 q 660 654 649 572 l 686 654 l 644 360 l 618 360 q 615 465 631 443 q 529 486 600 486 l 346 486 l 301 164 q 314 74 293 100 q 401 47 335 47 l 560 47 q 675 80 635 47 q 746 221 715 113 l 771 221 l 728 0 l 49 0 m 569 1036 l 424 1278 q 478 1287 444 1290 q 535 1264 511 1283 l 596 1036 l 569 1036 z "},"É":{"ha":764,"x_min":49,"x_max":826,"o":"m 49 0 l 53 28 q 159 53 133 28 q 196 156 185 78 l 289 817 q 283 919 300 893 q 182 944 267 944 l 185 972 l 826 972 l 804 774 l 779 774 q 775 847 779 821 q 763 891 771 874 q 733 915 756 908 q 690 924 711 922 q 621 926 668 926 l 408 926 l 353 532 l 536 532 q 628 552 607 532 q 660 654 649 572 l 686 654 l 644 360 l 618 360 q 615 465 631 443 q 529 486 600 486 l 346 486 l 301 164 q 314 74 293 100 q 401 47 335 47 l 560 47 q 675 80 635 47 q 746 221 715 113 l 771 221 l 728 0 l 49 0 m 669 1278 l 454 1036 l 428 1036 l 553 1264 q 617 1287 583 1283 q 669 1278 650 1290 z "},"Ê":{"ha":764,"x_min":49,"x_max":826,"o":"m 49 0 l 53 28 q 159 53 133 28 q 196 156 185 78 l 289 817 q 283 919 300 893 q 182 944 267 944 l 185 972 l 826 972 l 804 774 l 779 774 q 775 847 779 821 q 763 891 771 874 q 733 915 756 908 q 690 924 711 922 q 621 926 668 926 l 408 926 l 353 532 l 536 532 q 628 552 607 532 q 660 654 649 572 l 686 654 l 644 360 l 618 360 q 615 465 631 443 q 529 486 600 486 l 346 486 l 301 164 q 314 74 293 100 q 401 47 335 47 l 560 47 q 675 80 635 47 q 746 221 715 113 l 771 221 l 728 0 l 49 0 m 733 1036 l 701 1036 l 560 1181 l 378 1036 l 347 1036 l 538 1268 l 607 1268 l 733 1036 z "},"Ë":{"ha":764,"x_min":49,"x_max":826,"o":"m 49 0 l 53 28 q 159 53 133 28 q 196 156 185 78 l 289 817 q 283 919 300 893 q 182 944 267 944 l 185 972 l 826 972 l 804 774 l 779 774 q 775 847 779 821 q 763 891 771 874 q 733 915 756 908 q 690 924 711 922 q 621 926 668 926 l 408 926 l 353 532 l 536 532 q 628 552 607 532 q 660 654 649 572 l 686 654 l 644 360 l 618 360 q 615 465 631 443 q 529 486 600 486 l 346 486 l 301 164 q 314 74 293 100 q 401 47 335 47 l 560 47 q 675 80 635 47 q 746 221 715 113 l 771 221 l 728 0 l 49 0 m 426 1086 q 367 1163 394 1111 q 447 1238 408 1211 q 507 1163 481 1207 q 426 1086 475 1121 m 663 1086 q 603 1163 629 1114 q 683 1238 644 1211 q 743 1163 721 1204 q 663 1086 714 1124 z "},"Ì":{"ha":429,"x_min":49,"x_max":540,"o":"m 404 0 l 49 0 l 53 28 q 159 53 133 28 q 196 156 185 78 l 289 817 q 283 919 300 893 q 182 944 267 944 l 185 972 l 540 972 l 538 944 q 427 919 451 944 q 393 817 403 893 l 300 156 q 308 53 289 78 q 408 28 326 28 l 404 0 m 421 1036 l 275 1278 q 329 1287 296 1290 q 386 1264 363 1283 l 447 1036 l 421 1036 z "},"Í":{"ha":429,"x_min":49,"x_max":546,"o":"m 404 0 l 49 0 l 53 28 q 159 53 133 28 q 196 156 185 78 l 289 817 q 283 919 300 893 q 182 944 267 944 l 185 972 l 540 972 l 538 944 q 427 919 451 944 q 393 817 403 893 l 300 156 q 308 53 289 78 q 408 28 326 28 l 404 0 m 546 1278 l 331 1036 l 304 1036 l 429 1264 q 493 1287 460 1283 q 546 1278 526 1290 z "},"Î":{"ha":429,"x_min":49,"x_max":563,"o":"m 404 0 l 49 0 l 53 28 q 159 53 133 28 q 196 156 185 78 l 289 817 q 283 919 300 893 q 182 944 267 944 l 185 972 l 540 972 l 538 944 q 427 919 451 944 q 393 817 403 893 l 300 156 q 308 53 289 78 q 408 28 326 28 l 404 0 m 563 1036 l 531 1036 l 389 1181 l 207 1036 l 176 1036 l 367 1268 l 436 1268 l 563 1036 z "},"Ï":{"ha":429,"x_min":49,"x_max":578,"o":"m 404 0 l 49 0 l 53 28 q 159 53 133 28 q 196 156 185 78 l 289 817 q 283 919 300 893 q 182 944 267 944 l 185 972 l 540 972 l 538 944 q 427 919 451 944 q 393 817 403 893 l 300 156 q 308 53 289 78 q 408 28 326 28 l 404 0 m 261 1086 q 201 1163 229 1111 q 282 1238 243 1211 q 342 1163 315 1207 q 261 1086 310 1121 m 497 1086 q 438 1163 464 1114 q 518 1238 479 1211 q 578 1163 556 1204 q 497 1086 549 1124 z "},"Ð":{"ha":993,"x_min":49,"x_max":1014,"o":"m 114 463 l 119 508 l 244 508 l 289 817 q 282 920 300 896 q 182 944 264 944 l 185 972 l 521 972 q 601 972 571 972 q 690 963 632 971 q 785 941 747 956 q 871 897 824 926 q 947 827 918 868 q 994 722 975 786 q 1014 576 1014 658 q 996 405 1014 483 q 950 272 978 326 q 879 172 922 217 q 796 99 836 126 q 702 51 756 71 q 610 22 649 31 q 520 7 571 13 q 447 1 469 1 q 392 0 424 0 l 49 0 l 53 28 q 160 53 136 28 q 196 156 185 79 l 239 463 l 114 463 m 401 46 q 511 56 454 46 q 640 101 568 67 q 766 190 711 136 q 859 341 821 243 q 897 565 897 439 q 879 697 897 639 q 835 792 861 756 q 771 856 810 829 q 699 896 732 883 q 624 916 667 908 q 562 924 582 924 q 515 925 542 925 l 408 925 l 349 508 l 503 508 l 497 463 l 343 463 l 301 164 q 401 46 283 46 z "},"Ñ":{"ha":1047,"x_min":49,"x_max":1172,"o":"m 896 207 l 982 817 q 969 919 992 893 q 874 944 947 944 l 876 972 l 1172 972 l 1169 944 q 1072 917 1101 944 q 1033 817 1043 889 l 917 -7 l 894 -7 l 339 804 l 249 156 q 261 51 238 75 q 379 28 285 28 l 375 0 l 49 0 l 53 28 q 160 51 132 28 q 199 156 188 75 l 292 817 q 275 917 303 890 q 161 944 247 944 l 164 972 l 381 972 l 896 207 m 522 1079 l 504 1094 q 643 1204 578 1204 q 741 1182 679 1204 q 835 1160 803 1160 q 911 1206 874 1160 l 929 1190 q 790 1081 856 1081 q 692 1103 754 1081 q 599 1125 631 1125 q 522 1079 560 1125 z "},"Ò":{"ha":1022,"x_min":125,"x_max":1036,"o":"m 511 -14 q 231 108 338 -14 q 125 417 125 231 q 280 819 125 651 q 651 986 435 986 q 930 864 824 986 q 1036 556 1036 742 q 882 153 1036 321 q 511 -14 728 -14 m 518 35 q 797 191 674 35 q 921 556 921 347 q 843 827 921 717 q 644 938 765 938 q 363 781 486 938 q 240 417 240 625 q 318 144 240 254 q 518 35 396 35 m 693 1036 l 547 1278 q 601 1287 568 1290 q 658 1264 635 1283 l 719 1036 l 693 1036 z "},"Ó":{"ha":1022,"x_min":125,"x_max":1036,"o":"m 511 -14 q 231 108 338 -14 q 125 417 125 231 q 280 819 125 651 q 651 986 435 986 q 930 864 824 986 q 1036 556 1036 742 q 882 153 1036 321 q 511 -14 728 -14 m 518 35 q 797 191 674 35 q 921 556 921 347 q 843 827 921 717 q 644 938 765 938 q 363 781 486 938 q 240 417 240 625 q 318 144 240 254 q 518 35 396 35 m 810 1278 l 594 1036 l 568 1036 l 693 1264 q 757 1287 724 1283 q 810 1278 790 1290 z "},"Ô":{"ha":1022,"x_min":125,"x_max":1036,"o":"m 511 -14 q 231 108 338 -14 q 125 417 125 231 q 280 819 125 651 q 651 986 435 986 q 930 864 824 986 q 1036 556 1036 742 q 882 153 1036 321 q 511 -14 728 -14 m 518 35 q 797 191 674 35 q 921 556 921 347 q 843 827 921 717 q 644 938 765 938 q 363 781 486 938 q 240 417 240 625 q 318 144 240 254 q 518 35 396 35 m 857 1036 l 825 1036 l 683 1181 l 501 1036 l 471 1036 l 661 1268 l 731 1268 l 857 1036 z "},"Õ":{"ha":1022,"x_min":125,"x_max":1036,"o":"m 511 -14 q 231 108 338 -14 q 125 417 125 231 q 280 819 125 651 q 651 986 435 986 q 930 864 824 986 q 1036 556 1036 742 q 882 153 1036 321 q 511 -14 728 -14 m 518 35 q 797 191 674 35 q 921 556 921 347 q 843 827 921 717 q 644 938 765 938 q 363 781 486 938 q 240 417 240 625 q 318 144 240 254 q 518 35 396 35 m 478 1079 l 460 1094 q 599 1204 533 1204 q 697 1182 635 1204 q 790 1160 758 1160 q 867 1206 829 1160 l 885 1190 q 746 1081 811 1081 q 648 1103 710 1081 q 554 1125 586 1125 q 478 1079 515 1125 z "},"Ö":{"ha":1022,"x_min":125,"x_max":1036,"o":"m 511 -14 q 231 108 338 -14 q 125 417 125 231 q 280 819 125 651 q 651 986 435 986 q 930 864 824 986 q 1036 556 1036 742 q 882 153 1036 321 q 511 -14 728 -14 m 518 35 q 797 191 674 35 q 921 556 921 347 q 843 827 921 717 q 644 938 765 938 q 363 781 486 938 q 240 417 240 625 q 318 144 240 254 q 518 35 396 35 m 533 1086 q 474 1163 501 1111 q 554 1238 515 1211 q 614 1163 588 1207 q 533 1086 582 1121 m 769 1086 q 710 1163 736 1114 q 790 1238 751 1211 q 850 1163 828 1204 q 769 1086 821 1124 z "},"×":{"ha":668,"x_min":139,"x_max":626,"o":"m 390 501 l 589 689 l 626 639 l 428 451 l 575 264 l 524 214 l 376 403 l 176 214 l 139 264 l 338 451 l 192 640 l 243 689 l 390 501 z "},"Ø":{"ha":1056,"x_min":125,"x_max":1069,"o":"m 154 -29 l 125 0 l 238 122 q 143 417 143 240 q 298 819 143 651 q 669 986 453 986 q 931 882 824 986 l 1040 1001 l 1069 972 l 958 850 q 1054 556 1054 731 q 900 153 1054 321 q 529 -14 746 -14 q 265 92 368 -14 l 154 -29 m 258 417 q 306 197 258 292 l 869 814 q 663 938 789 938 q 381 781 504 938 q 258 417 258 625 m 536 35 q 815 191 692 35 q 939 556 939 347 q 890 776 939 676 l 326 158 q 536 35 406 35 z "},"Ù":{"ha":967,"x_min":167,"x_max":1092,"o":"m 957 817 l 892 351 q 856 209 881 271 q 789 94 832 147 q 673 14 746 42 q 500 -14 600 -14 q 344 16 408 -14 q 251 98 281 46 q 212 219 222 150 q 215 365 201 288 l 279 817 q 270 918 289 892 q 167 944 251 944 l 169 972 l 525 972 l 522 944 q 418 919 440 944 q 385 817 396 893 l 328 413 q 535 39 275 39 q 839 347 794 39 l 906 817 q 893 917 915 889 q 783 944 871 944 l 786 972 l 1092 972 l 1089 944 q 992 917 1018 944 q 957 817 967 890 m 713 1036 l 567 1278 q 621 1287 588 1290 q 678 1264 654 1283 l 739 1036 l 713 1036 z "},"Ú":{"ha":967,"x_min":167,"x_max":1092,"o":"m 957 817 l 892 351 q 856 209 881 271 q 789 94 832 147 q 673 14 746 42 q 500 -14 600 -14 q 344 16 408 -14 q 251 98 281 46 q 212 219 222 150 q 215 365 201 288 l 279 817 q 270 918 289 892 q 167 944 251 944 l 169 972 l 525 972 l 522 944 q 418 919 440 944 q 385 817 396 893 l 328 413 q 535 39 275 39 q 839 347 794 39 l 906 817 q 893 917 915 889 q 783 944 871 944 l 786 972 l 1092 972 l 1089 944 q 992 917 1018 944 q 957 817 967 890 m 789 1278 l 574 1036 l 547 1036 l 672 1264 q 736 1287 703 1283 q 789 1278 769 1290 z "},"Û":{"ha":967,"x_min":167,"x_max":1092,"o":"m 957 817 l 892 351 q 856 209 881 271 q 789 94 832 147 q 673 14 746 42 q 500 -14 600 -14 q 344 16 408 -14 q 251 98 281 46 q 212 219 222 150 q 215 365 201 288 l 279 817 q 270 918 289 892 q 167 944 251 944 l 169 972 l 525 972 l 522 944 q 418 919 440 944 q 385 817 396 893 l 328 413 q 535 39 275 39 q 839 347 794 39 l 906 817 q 893 917 915 889 q 783 944 871 944 l 786 972 l 1092 972 l 1089 944 q 992 917 1018 944 q 957 817 967 890 m 865 1036 l 833 1036 l 692 1181 l 510 1036 l 479 1036 l 669 1268 l 739 1268 l 865 1036 z "},"Ü":{"ha":967,"x_min":167,"x_max":1092,"o":"m 957 817 l 892 351 q 856 209 881 271 q 789 94 832 147 q 673 14 746 42 q 500 -14 600 -14 q 344 16 408 -14 q 251 98 281 46 q 212 219 222 150 q 215 365 201 288 l 279 817 q 270 918 289 892 q 167 944 251 944 l 169 972 l 525 972 l 522 944 q 418 919 440 944 q 385 817 396 893 l 328 413 q 535 39 275 39 q 839 347 794 39 l 906 817 q 893 917 915 889 q 783 944 871 944 l 786 972 l 1092 972 l 1089 944 q 992 917 1018 944 q 957 817 967 890 m 560 1086 q 500 1163 528 1111 q 581 1238 542 1211 q 640 1163 614 1207 q 560 1086 608 1121 m 796 1086 q 736 1163 763 1114 q 817 1238 778 1211 q 876 1163 854 1204 q 796 1086 847 1124 z "},"Ý":{"ha":858,"x_min":139,"x_max":983,"o":"m 385 835 l 518 474 l 753 842 q 697 944 819 944 l 700 972 l 983 972 l 981 944 q 878 917 918 944 q 797 825 839 890 l 536 417 l 500 156 q 516 52 489 76 q 632 28 543 28 l 628 0 l 222 0 l 226 28 q 349 52 314 28 q 394 156 383 76 l 431 417 l 263 844 q 224 921 238 908 q 139 944 200 944 l 142 972 l 471 972 l 468 944 q 381 919 400 944 q 385 835 363 894 m 728 1278 l 513 1036 l 486 1036 l 611 1264 q 675 1287 642 1283 q 728 1278 708 1290 z "},"Þ":{"ha":781,"x_min":49,"x_max":801,"o":"m 385 758 l 308 214 l 385 214 q 456 219 422 214 q 535 245 490 225 q 610 299 579 265 q 664 393 642 332 q 686 536 686 454 q 664 653 686 606 q 604 722 642 700 q 533 751 567 743 q 461 758 500 758 l 385 758 m 196 156 l 289 817 q 281 919 300 894 q 182 944 263 944 l 185 972 l 565 972 l 563 944 q 435 919 467 944 q 393 817 404 893 l 389 792 l 465 792 q 713 722 625 792 q 801 528 801 653 q 688 273 801 365 q 379 181 574 181 l 303 181 l 300 156 q 313 53 289 79 q 433 28 338 28 l 429 0 l 49 0 l 53 28 q 159 53 133 28 q 196 156 185 78 z "},"ß":{"ha":750,"x_min":-96,"x_max":750,"o":"m 122 -4 l 210 621 l 114 621 l 119 667 l 215 667 l 219 692 q 326 908 238 815 q 497 1000 415 1000 q 585 972 563 1000 q 594 892 607 943 q 558 784 581 840 q 513 656 536 728 q 490 531 490 583 q 517 470 490 499 q 582 416 544 442 q 658 363 619 390 q 723 292 696 335 q 750 200 750 250 q 670 39 750 92 q 497 -14 590 -14 q 326 46 382 -14 l 354 199 l 379 199 q 411 67 376 107 q 517 26 446 26 q 605 64 568 26 q 642 144 642 101 q 603 241 642 194 q 518 319 564 288 q 433 397 472 350 q 394 497 394 444 q 415 569 394 529 q 461 644 436 608 q 507 720 486 681 q 526 802 528 760 q 494 885 525 844 q 421 932 454 932 q 315 667 354 932 l 218 -29 q 108 -244 201 -150 q -60 -337 14 -337 q -85 -333 -74 -337 q -94 -301 -96 -329 q -57 -222 -93 -272 q -47 -233 -56 -224 q -32 -246 -37 -242 q -17 -257 -26 -250 q 0 -267 -8 -264 q 17 -269 8 -269 q 122 -4 85 -269 z "},"à":{"ha":685,"x_min":111,"x_max":726,"o":"m 681 653 l 601 103 q 608 65 597 79 q 646 56 618 51 q 711 92 674 61 l 726 69 q 647 7 689 28 q 579 -14 606 -14 q 518 19 542 -14 q 504 118 494 51 l 529 283 q 380 65 447 143 q 246 -14 313 -14 q 149 57 188 -14 q 111 221 111 128 q 120 328 111 274 q 157 449 129 383 q 228 564 185 514 q 350 647 272 614 q 528 681 428 681 q 668 667 594 681 q 681 653 683 664 m 536 351 l 578 643 q 405 633 479 663 q 290 539 331 604 q 229 394 249 474 q 210 222 210 314 q 235 103 210 153 q 293 53 260 53 q 408 148 336 53 q 536 351 479 243 m 525 731 l 379 972 q 433 981 400 985 q 490 958 467 978 l 551 731 l 525 731 z "},"á":{"ha":685,"x_min":111,"x_max":726,"o":"m 681 653 l 601 103 q 608 65 597 79 q 646 56 618 51 q 711 92 674 61 l 726 69 q 647 7 689 28 q 579 -14 606 -14 q 518 19 542 -14 q 504 118 494 51 l 529 283 q 380 65 447 143 q 246 -14 313 -14 q 149 57 188 -14 q 111 221 111 128 q 120 328 111 274 q 157 449 129 383 q 228 564 185 514 q 350 647 272 614 q 528 681 428 681 q 668 667 594 681 q 681 653 683 664 m 536 351 l 578 643 q 405 633 479 663 q 290 539 331 604 q 229 394 249 474 q 210 222 210 314 q 235 103 210 153 q 293 53 260 53 q 408 148 336 53 q 536 351 479 243 m 647 972 l 432 731 l 406 731 l 531 958 q 594 981 561 978 q 647 972 628 985 z "},"â":{"ha":685,"x_min":111,"x_max":726,"o":"m 681 653 l 601 103 q 608 65 597 79 q 646 56 618 51 q 711 92 674 61 l 726 69 q 647 7 689 28 q 579 -14 606 -14 q 518 19 542 -14 q 504 118 494 51 l 529 283 q 380 65 447 143 q 246 -14 313 -14 q 149 57 188 -14 q 111 221 111 128 q 120 328 111 274 q 157 449 129 383 q 228 564 185 514 q 350 647 272 614 q 528 681 428 681 q 668 667 594 681 q 681 653 683 664 m 536 351 l 578 643 q 405 633 479 663 q 290 539 331 604 q 229 394 249 474 q 210 222 210 314 q 235 103 210 153 q 293 53 260 53 q 408 148 336 53 q 536 351 479 243 m 664 731 l 632 731 l 490 875 l 308 731 l 278 731 l 468 963 l 538 963 l 664 731 z "},"ã":{"ha":685,"x_min":111,"x_max":726,"o":"m 681 653 l 601 103 q 608 65 597 79 q 646 56 618 51 q 711 92 674 61 l 726 69 q 647 7 689 28 q 579 -14 606 -14 q 518 19 542 -14 q 504 118 494 51 l 529 283 q 380 65 447 143 q 246 -14 313 -14 q 149 57 188 -14 q 111 221 111 128 q 120 328 111 274 q 157 449 129 383 q 228 564 185 514 q 350 647 272 614 q 528 681 428 681 q 668 667 594 681 q 681 653 683 664 m 536 351 l 578 643 q 405 633 479 663 q 290 539 331 604 q 229 394 249 474 q 210 222 210 314 q 235 103 210 153 q 293 53 260 53 q 408 148 336 53 q 536 351 479 243 m 283 774 l 265 789 q 404 899 339 899 q 502 876 440 899 q 596 854 564 854 q 672 900 635 854 l 690 885 q 551 775 617 775 q 453 797 515 775 q 360 819 392 819 q 283 774 321 819 z "},"ä":{"ha":685,"x_min":111,"x_max":726,"o":"m 681 653 l 601 103 q 608 65 597 79 q 646 56 618 51 q 711 92 674 61 l 726 69 q 647 7 689 28 q 579 -14 606 -14 q 518 19 542 -14 q 504 118 494 51 l 529 283 q 380 65 447 143 q 246 -14 313 -14 q 149 57 188 -14 q 111 221 111 128 q 120 328 111 274 q 157 449 129 383 q 228 564 185 514 q 350 647 272 614 q 528 681 428 681 q 668 667 594 681 q 681 653 683 664 m 536 351 l 578 643 q 405 633 479 663 q 290 539 331 604 q 229 394 249 474 q 210 222 210 314 q 235 103 210 153 q 293 53 260 53 q 408 148 336 53 q 536 351 479 243 m 351 781 q 292 857 319 806 q 372 932 333 906 q 432 857 406 901 q 351 781 400 815 m 588 781 q 528 857 554 808 q 608 932 569 906 q 668 857 646 899 q 588 781 639 818 z "},"å":{"ha":685,"x_min":111,"x_max":726,"o":"m 681 653 l 601 103 q 608 65 597 79 q 646 56 618 51 q 711 92 674 61 l 726 69 q 647 7 689 28 q 579 -14 606 -14 q 518 19 542 -14 q 504 118 494 51 l 529 283 q 380 65 447 143 q 246 -14 313 -14 q 149 57 188 -14 q 111 221 111 128 q 120 328 111 274 q 157 449 129 383 q 228 564 185 514 q 350 647 272 614 q 528 681 428 681 q 668 667 594 681 q 681 653 683 664 m 536 351 l 578 643 q 405 633 479 663 q 290 539 331 604 q 229 394 249 474 q 210 222 210 314 q 235 103 210 153 q 293 53 260 53 q 408 148 336 53 q 536 351 479 243 m 347 886 q 392 997 347 950 q 497 1044 438 1044 q 576 1009 544 1044 q 608 922 608 974 q 563 811 608 858 q 457 764 517 764 q 378 799 408 764 q 347 886 347 835 m 399 893 q 417 840 399 861 q 465 819 436 819 q 528 848 500 819 q 556 914 556 876 q 537 967 556 946 q 489 989 518 989 q 426 960 453 989 q 399 893 399 932 z "},"æ":{"ha":899,"x_min":111,"x_max":954,"o":"m 479 117 q 353 21 421 56 q 231 -14 285 -14 q 144 27 176 -14 q 111 136 111 68 q 140 219 111 186 q 230 268 168 253 q 326 288 292 283 q 435 296 360 292 q 441 297 439 296 q 447 297 443 297 q 453 297 450 297 q 485 519 454 331 q 413 642 501 642 q 304 589 340 642 q 275 485 268 536 q 210 457 235 460 q 179 463 185 454 q 174 485 174 472 q 270 619 174 558 q 457 681 367 681 q 589 600 576 681 q 786 681 678 681 q 903 648 851 681 q 954 544 954 615 q 914 433 954 475 q 814 379 874 390 q 689 376 754 368 q 569 408 624 383 q 554 268 554 342 q 602 109 554 164 q 728 58 650 54 q 893 121 806 61 l 903 96 q 645 -11 761 -21 q 479 117 529 -1 m 271 39 q 369 65 313 39 q 471 143 425 92 q 453 268 453 196 q 376 263 401 265 q 315 254 350 261 q 264 236 281 247 q 233 204 247 225 q 215 154 219 183 q 271 39 207 39 m 781 640 q 653 583 704 640 q 578 438 603 526 q 671 418 625 422 q 761 423 717 414 q 833 468 806 432 q 860 565 860 504 q 781 640 860 640 z "},"ç":{"ha":582,"x_min":111,"x_max":624,"o":"m 444 681 q 624 536 624 681 q 581 485 624 511 q 511 481 539 458 q 439 640 575 640 q 314 574 368 640 q 235 428 260 508 q 211 281 211 349 q 260 114 211 172 q 386 58 308 56 q 551 121 464 61 l 561 96 q 336 -10 444 -3 l 331 -47 q 346 -76 328 -65 q 387 -92 364 -87 q 429 -114 410 -97 q 449 -160 449 -131 q 372 -256 449 -217 q 221 -290 296 -296 l 219 -257 q 367 -175 367 -257 q 353 -137 367 -150 q 324 -122 339 -124 q 299 -106 308 -119 q 294 -64 289 -92 l 304 -10 q 164 71 217 -3 q 111 268 111 144 q 142 443 111 363 q 221 574 172 524 q 328 653 269 625 q 444 681 386 681 z "},"è":{"ha":557,"x_min":111,"x_max":613,"o":"m 613 544 q 572 433 613 475 q 472 379 532 390 q 347 376 413 368 q 228 408 282 383 q 213 268 213 342 q 260 109 213 164 q 386 58 308 54 q 551 121 464 61 l 561 96 q 390 -1 474 22 q 246 3 307 -24 q 148 98 185 29 q 111 268 111 167 q 142 443 111 363 q 221 574 172 524 q 328 653 269 625 q 444 681 386 681 q 561 648 510 681 q 613 544 613 615 m 439 640 q 312 583 363 640 q 236 438 261 526 q 329 418 283 422 q 419 423 375 414 q 491 468 464 432 q 518 565 518 504 q 439 640 518 640 m 454 731 l 308 972 q 363 981 329 985 q 419 958 396 978 l 481 731 l 454 731 z "},"é":{"ha":557,"x_min":111,"x_max":613,"o":"m 613 544 q 572 433 613 475 q 472 379 532 390 q 347 376 413 368 q 228 408 282 383 q 213 268 213 342 q 260 109 213 164 q 386 58 308 54 q 551 121 464 61 l 561 96 q 390 -1 474 22 q 246 3 307 -24 q 148 98 185 29 q 111 268 111 167 q 142 443 111 363 q 221 574 172 524 q 328 653 269 625 q 444 681 386 681 q 561 648 510 681 q 613 544 613 615 m 439 640 q 312 583 363 640 q 236 438 261 526 q 329 418 283 422 q 419 423 375 414 q 491 468 464 432 q 518 565 518 504 q 439 640 518 640 m 569 972 l 354 731 l 328 731 l 453 958 q 517 981 483 978 q 569 972 550 985 z "},"ê":{"ha":557,"x_min":111,"x_max":621,"o":"m 613 544 q 572 433 613 475 q 472 379 532 390 q 347 376 413 368 q 228 408 282 383 q 213 268 213 342 q 260 109 213 164 q 386 58 308 54 q 551 121 464 61 l 561 96 q 390 -1 474 22 q 246 3 307 -24 q 148 98 185 29 q 111 268 111 167 q 142 443 111 363 q 221 574 172 524 q 328 653 269 625 q 444 681 386 681 q 561 648 510 681 q 613 544 613 615 m 439 640 q 312 583 363 640 q 236 438 261 526 q 329 418 283 422 q 419 423 375 414 q 491 468 464 432 q 518 565 518 504 q 439 640 518 640 m 621 731 l 589 731 l 447 875 l 265 731 l 235 731 l 425 963 l 494 963 l 621 731 z "},"ë":{"ha":557,"x_min":111,"x_max":619,"o":"m 613 544 q 572 433 613 475 q 472 379 532 390 q 347 376 413 368 q 228 408 282 383 q 213 268 213 342 q 260 109 213 164 q 386 58 308 54 q 551 121 464 61 l 561 96 q 390 -1 474 22 q 246 3 307 -24 q 148 98 185 29 q 111 268 111 167 q 142 443 111 363 q 221 574 172 524 q 328 653 269 625 q 444 681 386 681 q 561 648 510 681 q 613 544 613 615 m 439 640 q 312 583 363 640 q 236 438 261 526 q 329 418 283 422 q 419 423 375 414 q 491 468 464 432 q 518 565 518 504 q 439 640 518 640 m 303 781 q 243 857 271 806 q 324 932 285 906 q 383 857 357 901 q 303 781 351 815 m 539 781 q 479 857 506 808 q 560 932 521 906 q 619 857 597 899 q 539 781 590 818 z "},"ì":{"ha":344,"x_min":111,"x_max":371,"o":"m 310 542 l 246 103 q 252 65 242 79 q 290 56 263 51 q 356 92 318 61 l 371 69 q 292 7 333 28 q 224 -14 250 -14 q 163 19 186 -14 q 149 118 139 51 l 210 551 q 211 588 214 571 q 201 617 208 606 q 175 624 194 628 q 126 596 156 619 l 111 618 q 235 674 183 674 q 297 640 272 674 q 310 542 321 607 m 271 731 l 125 972 q 179 981 146 985 q 236 958 213 978 l 297 731 l 271 731 z "},"í":{"ha":344,"x_min":111,"x_max":438,"o":"m 310 542 l 246 103 q 252 65 242 79 q 290 56 263 51 q 356 92 318 61 l 371 69 q 292 7 333 28 q 224 -14 250 -14 q 163 19 186 -14 q 149 118 139 51 l 210 551 q 211 588 214 571 q 201 617 208 606 q 175 624 194 628 q 126 596 156 619 l 111 618 q 235 674 183 674 q 297 640 272 674 q 310 542 321 607 m 438 972 l 222 731 l 196 731 l 321 958 q 385 981 351 978 q 438 972 418 985 z "},"î":{"ha":344,"x_min":86,"x_max":472,"o":"m 310 542 l 246 103 q 252 65 242 79 q 290 56 263 51 q 356 92 318 61 l 371 69 q 292 7 333 28 q 224 -14 250 -14 q 163 19 186 -14 q 149 118 139 51 l 210 551 q 211 588 214 571 q 201 617 208 606 q 175 624 194 628 q 126 596 156 619 l 111 618 q 235 674 183 674 q 297 640 272 674 q 310 542 321 607 m 472 731 l 440 731 l 299 875 l 117 731 l 86 731 l 276 963 l 346 963 l 472 731 z "},"ï":{"ha":344,"x_min":110,"x_max":486,"o":"m 310 542 l 246 103 q 252 65 242 79 q 290 56 263 51 q 356 92 318 61 l 371 69 q 292 7 333 28 q 224 -14 250 -14 q 163 19 186 -14 q 149 118 139 51 l 210 551 q 211 588 214 571 q 201 617 208 606 q 175 624 194 628 q 126 596 156 619 l 111 618 q 235 674 183 674 q 297 640 272 674 q 310 542 321 607 m 169 781 q 110 857 138 806 q 190 932 151 906 q 250 857 224 901 q 169 781 218 815 m 406 781 q 346 857 372 808 q 426 932 388 906 q 486 857 464 899 q 406 781 457 818 z "},"ð":{"ha":717,"x_min":111,"x_max":717,"o":"m 436 726 l 410 758 l 515 858 q 379 957 461 922 l 400 986 q 554 894 478 968 l 651 986 l 678 954 l 583 864 q 717 489 717 713 q 670 253 717 368 q 534 63 624 139 q 335 -14 444 -14 q 177 49 243 -14 q 111 219 111 113 q 211 474 111 371 q 435 576 311 576 q 611 485 538 576 q 540 825 624 700 l 436 726 m 471 511 q 294 417 374 511 q 215 183 215 322 q 253 64 215 100 q 338 28 290 28 q 447 71 397 28 q 528 180 497 114 q 578 310 560 246 q 604 433 597 375 q 471 511 553 511 z "},"ñ":{"ha":708,"x_min":111,"x_max":750,"o":"m 310 542 l 285 383 q 440 597 360 513 q 589 681 521 681 q 683 513 707 681 l 625 103 q 631 65 621 79 q 669 56 642 51 q 735 92 697 61 l 750 69 q 671 7 713 28 q 603 -14 629 -14 q 542 19 565 -14 q 528 118 518 51 l 578 478 q 581 581 589 547 q 542 614 572 614 q 413 514 497 614 q 278 315 329 414 l 233 0 l 143 -12 q 131 0 131 -12 l 210 551 q 211 588 214 571 q 201 617 208 606 q 175 624 194 628 q 126 596 156 619 l 111 618 q 235 674 183 674 q 297 640 272 674 q 310 542 321 607 m 289 774 l 271 789 q 410 899 344 899 q 508 876 446 899 q 601 854 569 854 q 678 900 640 854 l 696 885 q 557 775 622 775 q 459 797 521 775 q 365 819 397 819 q 289 774 326 819 z "},"ò":{"ha":625,"x_min":111,"x_max":667,"o":"m 442 681 q 607 599 547 681 q 667 392 667 517 q 570 106 667 225 q 335 -14 474 -14 q 170 67 229 -14 q 111 274 111 147 q 207 561 111 442 q 442 681 303 681 m 346 26 q 453 65 408 26 q 522 167 499 104 q 554 294 544 231 q 564 424 564 357 q 432 640 564 640 q 324 602 369 640 q 256 500 278 564 q 224 373 233 436 q 214 243 214 310 q 346 26 214 26 m 467 731 l 321 972 q 375 981 342 985 q 432 958 408 978 l 493 731 l 467 731 z "},"ó":{"ha":625,"x_min":111,"x_max":667,"o":"m 442 681 q 607 599 547 681 q 667 392 667 517 q 570 106 667 225 q 335 -14 474 -14 q 170 67 229 -14 q 111 274 111 147 q 207 561 111 442 q 442 681 303 681 m 346 26 q 453 65 408 26 q 522 167 499 104 q 554 294 544 231 q 564 424 564 357 q 432 640 564 640 q 324 602 369 640 q 256 500 278 564 q 224 373 233 436 q 214 243 214 310 q 346 26 214 26 m 597 972 l 382 731 l 356 731 l 481 958 q 544 981 511 978 q 597 972 578 985 z "},"ô":{"ha":625,"x_min":111,"x_max":667,"o":"m 442 681 q 607 599 547 681 q 667 392 667 517 q 570 106 667 225 q 335 -14 474 -14 q 170 67 229 -14 q 111 274 111 147 q 207 561 111 442 q 442 681 303 681 m 346 26 q 453 65 408 26 q 522 167 499 104 q 554 294 544 231 q 564 424 564 357 q 432 640 564 640 q 324 602 369 640 q 256 500 278 564 q 224 373 233 436 q 214 243 214 310 q 346 26 214 26 m 631 731 l 599 731 l 457 875 l 275 731 l 244 731 l 435 963 l 504 963 l 631 731 z "},"õ":{"ha":625,"x_min":111,"x_max":667,"o":"m 442 681 q 607 599 547 681 q 667 392 667 517 q 570 106 667 225 q 335 -14 474 -14 q 170 67 229 -14 q 111 274 111 147 q 207 561 111 442 q 442 681 303 681 m 346 26 q 453 65 408 26 q 522 167 499 104 q 554 294 544 231 q 564 424 564 357 q 432 640 564 640 q 324 602 369 640 q 256 500 278 564 q 224 373 233 436 q 214 243 214 310 q 346 26 214 26 m 260 774 l 242 789 q 381 899 315 899 q 478 876 417 899 q 572 854 540 854 q 649 900 611 854 l 667 885 q 528 775 593 775 q 430 797 492 775 q 336 819 368 819 q 260 774 297 819 z "},"ö":{"ha":625,"x_min":111,"x_max":667,"o":"m 442 681 q 607 599 547 681 q 667 392 667 517 q 570 106 667 225 q 335 -14 474 -14 q 170 67 229 -14 q 111 274 111 147 q 207 561 111 442 q 442 681 303 681 m 346 26 q 453 65 408 26 q 522 167 499 104 q 554 294 544 231 q 564 424 564 357 q 432 640 564 640 q 324 602 369 640 q 256 500 278 564 q 224 373 233 436 q 214 243 214 310 q 346 26 214 26 m 319 781 q 260 857 288 806 q 340 932 301 906 q 400 857 374 901 q 319 781 368 815 m 556 781 q 496 857 522 808 q 576 932 538 906 q 636 857 614 899 q 556 781 607 818 z "},"÷":{"ha":806,"x_min":174,"x_max":736,"o":"m 353 215 q 377 275 353 250 q 433 300 401 300 q 475 281 458 300 q 492 235 492 263 q 468 175 492 200 q 413 150 444 150 q 369 169 386 150 q 353 215 353 188 m 417 668 q 441 728 417 703 q 497 753 465 753 q 539 734 522 753 q 556 688 556 715 q 532 628 556 653 q 476 603 508 603 q 433 622 450 603 q 417 668 417 640 m 183 486 l 736 486 l 726 417 l 174 417 l 183 486 z "},"ø":{"ha":667,"x_min":100,"x_max":672,"o":"m 131 -26 l 100 0 l 163 79 q 113 274 113 156 q 208 561 113 442 q 443 681 304 681 q 586 624 529 681 l 642 693 l 672 667 l 614 592 q 668 392 668 514 q 572 106 668 225 q 336 -14 475 -14 q 188 47 244 -14 l 131 -26 m 347 26 q 450 63 406 26 q 519 157 494 100 q 557 281 544 214 q 569 410 569 347 q 556 518 568 472 l 235 108 q 347 26 267 26 m 433 640 q 330 604 375 640 q 260 513 285 568 q 224 392 236 458 q 212 264 211 325 q 222 156 213 203 l 542 565 q 433 640 507 640 z "},"ù":{"ha":697,"x_min":111,"x_max":739,"o":"m 310 542 l 260 189 q 257 86 249 119 q 296 53 265 53 q 417 151 340 53 q 549 351 494 249 l 593 667 l 683 679 q 696 667 696 679 l 614 103 q 620 65 610 79 q 658 56 631 51 q 724 92 686 61 l 739 69 q 660 7 701 28 q 592 -14 618 -14 q 531 19 554 -14 q 517 118 507 51 l 542 283 q 249 -14 368 -14 q 154 154 131 -14 l 210 551 q 211 588 214 571 q 201 617 208 606 q 175 624 194 628 q 126 596 156 619 l 111 618 q 235 674 183 674 q 296 641 272 674 q 310 542 319 608 m 511 731 l 365 972 q 419 981 386 985 q 476 958 453 978 l 538 731 l 511 731 z "},"ú":{"ha":697,"x_min":111,"x_max":739,"o":"m 310 542 l 260 189 q 257 86 249 119 q 296 53 265 53 q 417 151 340 53 q 549 351 494 249 l 593 667 l 683 679 q 696 667 696 679 l 614 103 q 620 65 610 79 q 658 56 631 51 q 724 92 686 61 l 739 69 q 660 7 701 28 q 592 -14 618 -14 q 531 19 554 -14 q 517 118 507 51 l 542 283 q 249 -14 368 -14 q 154 154 131 -14 l 210 551 q 211 588 214 571 q 201 617 208 606 q 175 624 194 628 q 126 596 156 619 l 111 618 q 235 674 183 674 q 296 641 272 674 q 310 542 319 608 m 603 972 l 388 731 l 361 731 l 486 958 q 550 981 517 978 q 603 972 583 985 z "},"û":{"ha":697,"x_min":111,"x_max":739,"o":"m 310 542 l 260 189 q 257 86 249 119 q 296 53 265 53 q 417 151 340 53 q 549 351 494 249 l 593 667 l 683 679 q 696 667 696 679 l 614 103 q 620 65 610 79 q 658 56 631 51 q 724 92 686 61 l 739 69 q 660 7 701 28 q 592 -14 618 -14 q 531 19 554 -14 q 517 118 507 51 l 542 283 q 249 -14 368 -14 q 154 154 131 -14 l 210 551 q 211 588 214 571 q 201 617 208 606 q 175 624 194 628 q 126 596 156 619 l 111 618 q 235 674 183 674 q 296 641 272 674 q 310 542 319 608 m 658 731 l 626 731 l 485 875 l 303 731 l 272 731 l 463 963 l 532 963 l 658 731 z "},"ü":{"ha":697,"x_min":111,"x_max":739,"o":"m 310 542 l 260 189 q 257 86 249 119 q 296 53 265 53 q 417 151 340 53 q 549 351 494 249 l 593 667 l 683 679 q 696 667 696 679 l 614 103 q 620 65 610 79 q 658 56 631 51 q 724 92 686 61 l 739 69 q 660 7 701 28 q 592 -14 618 -14 q 531 19 554 -14 q 517 118 507 51 l 542 283 q 249 -14 368 -14 q 154 154 131 -14 l 210 551 q 211 588 214 571 q 201 617 208 606 q 175 624 194 628 q 126 596 156 619 l 111 618 q 235 674 183 674 q 296 641 272 674 q 310 542 319 608 m 353 781 q 293 857 321 806 q 374 932 335 906 q 433 857 407 901 q 353 781 401 815 m 589 781 q 529 857 556 808 q 610 932 571 906 q 669 857 647 899 q 589 781 640 818 z "},"ý":{"ha":603,"x_min":13,"x_max":644,"o":"m 328 -28 l 192 572 q 185 594 188 588 q 172 614 182 601 q 145 622 163 626 q 103 596 128 617 l 88 618 q 211 674 160 674 q 269 650 247 674 q 304 560 292 626 l 397 79 q 515 308 463 183 q 567 507 567 432 q 513 600 567 579 q 593 700 543 700 q 644 611 644 700 q 584 385 644 542 q 437 67 524 228 q 242 -215 350 -93 q 53 -337 135 -337 q 40 -335 47 -337 q 24 -322 32 -332 q 15 -299 17 -312 q 22 -260 13 -285 q 53 -204 31 -235 q 132 -218 107 -221 q 328 -28 225 -207 m 576 972 l 361 731 l 335 731 l 460 958 q 524 981 490 978 q 576 972 557 985 z "},"þ":{"ha":714,"x_min":0,"x_max":714,"o":"m 240 -11 l 218 -175 q 217 -272 201 -247 q 317 -296 232 -296 l 313 -324 l 0 -324 l 4 -296 q 60 -293 40 -296 q 91 -274 79 -290 q 106 -246 103 -258 q 114 -193 108 -233 q 117 -175 115 -182 l 258 829 q 259 925 271 906 q 179 944 247 944 l 183 972 l 368 986 q 378 982 374 986 q 381 972 382 978 l 297 389 q 444 600 375 522 q 579 678 513 678 q 676 607 638 678 q 714 443 714 536 q 705 336 714 390 q 668 217 696 282 q 597 102 640 151 q 475 19 553 53 q 297 -14 397 -14 q 240 -11 276 -14 m 615 442 q 590 561 615 511 q 532 611 565 611 q 416 516 489 611 q 288 314 343 421 l 246 22 q 419 33 344 4 q 534 127 493 63 q 595 271 575 192 q 615 442 615 350 z "},"ÿ":{"ha":603,"x_min":13,"x_max":644,"o":"m 328 -28 l 192 572 q 185 594 188 588 q 172 614 182 601 q 145 622 163 626 q 103 596 128 617 l 88 618 q 211 674 160 674 q 269 650 247 674 q 304 560 292 626 l 397 79 q 515 308 463 183 q 567 507 567 432 q 513 600 567 579 q 593 700 543 700 q 644 611 644 700 q 584 385 644 542 q 437 67 524 228 q 242 -215 350 -93 q 53 -337 135 -337 q 40 -335 47 -337 q 24 -322 32 -332 q 15 -299 17 -312 q 22 -260 13 -285 q 53 -204 31 -235 q 132 -218 107 -221 q 328 -28 225 -207 m 314 781 q 254 857 282 806 q 335 932 296 906 q 394 857 368 901 q 314 781 363 815 m 550 781 q 490 857 517 808 q 571 932 532 906 q 631 857 608 899 q 550 781 601 818 z "},"Ā":{"ha":883,"x_min":14,"x_max":939,"o":"m 694 156 l 668 283 l 308 283 l 246 156 q 233 60 214 93 q 328 28 251 28 l 324 0 l 14 0 l 18 28 q 119 53 86 28 q 192 156 151 78 l 608 986 l 624 986 l 806 156 q 847 53 824 78 q 939 28 871 28 l 935 0 l 583 0 l 588 28 q 687 55 667 28 q 694 156 707 82 m 564 806 l 331 329 l 660 329 l 564 806 m 836 1168 l 826 1096 l 428 1096 l 438 1168 l 836 1168 z "},"ā":{"ha":685,"x_min":111,"x_max":726,"o":"m 681 653 l 601 103 q 608 65 597 79 q 646 56 618 51 q 711 92 674 61 l 726 69 q 647 7 689 28 q 579 -14 606 -14 q 518 19 542 -14 q 504 118 494 51 l 529 283 q 380 65 447 143 q 246 -14 313 -14 q 149 57 188 -14 q 111 221 111 128 q 120 328 111 274 q 157 449 129 383 q 228 564 185 514 q 350 647 272 614 q 528 681 428 681 q 668 667 594 681 q 681 653 683 664 m 536 351 l 578 643 q 405 633 479 663 q 290 539 331 604 q 229 394 249 474 q 210 222 210 314 q 235 103 210 153 q 293 53 260 53 q 408 148 336 53 q 536 351 479 243 m 671 863 l 661 790 l 263 790 l 272 863 l 671 863 z "},"Ă":{"ha":883,"x_min":14,"x_max":939,"o":"m 694 156 l 668 283 l 308 283 l 246 156 q 233 60 214 93 q 328 28 251 28 l 324 0 l 14 0 l 18 28 q 119 53 86 28 q 192 156 151 78 l 608 986 l 624 986 l 806 156 q 847 53 824 78 q 939 28 871 28 l 935 0 l 583 0 l 588 28 q 687 55 667 28 q 694 156 707 82 m 564 806 l 331 329 l 660 329 l 564 806 m 460 1257 l 492 1257 q 531 1172 494 1207 q 625 1136 568 1136 q 726 1172 681 1136 q 789 1257 772 1207 l 821 1257 q 747 1110 810 1174 q 613 1046 685 1046 q 502 1105 544 1046 q 460 1257 460 1164 z "},"ă":{"ha":685,"x_min":111,"x_max":726,"o":"m 681 653 l 601 103 q 608 65 597 79 q 646 56 618 51 q 711 92 674 61 l 726 69 q 647 7 689 28 q 579 -14 606 -14 q 518 19 542 -14 q 504 118 494 51 l 529 283 q 380 65 447 143 q 246 -14 313 -14 q 149 57 188 -14 q 111 221 111 128 q 120 328 111 274 q 157 449 129 383 q 228 564 185 514 q 350 647 272 614 q 528 681 428 681 q 668 667 594 681 q 681 653 683 664 m 536 351 l 578 643 q 405 633 479 663 q 290 539 331 604 q 229 394 249 474 q 210 222 210 314 q 235 103 210 153 q 293 53 260 53 q 408 148 336 53 q 536 351 479 243 m 300 951 l 332 951 q 372 866 335 901 q 465 831 408 831 q 567 866 521 831 q 629 951 613 901 l 661 951 q 588 804 650 868 q 453 740 525 740 q 342 799 385 740 q 300 951 300 858 z "},"Ą":{"ha":883,"x_min":14,"x_max":939,"o":"m 935 0 l 853 0 q 733 -186 729 -108 q 793 -240 738 -236 q 889 -218 835 -244 l 883 -260 q 749 -318 810 -318 q 676 -289 703 -318 q 649 -214 649 -260 q 806 0 649 -96 l 583 0 l 588 28 q 687 55 667 28 q 694 156 707 82 l 668 283 l 308 283 l 246 156 q 233 60 214 93 q 328 28 251 28 l 324 0 l 14 0 l 18 28 q 119 53 86 28 q 192 156 151 78 l 608 986 l 624 986 l 806 156 q 847 53 824 78 q 939 28 871 28 l 935 0 m 564 806 l 331 329 l 660 329 l 564 806 z "},"ą":{"ha":685,"x_min":111,"x_max":726,"o":"m 601 103 l 681 653 q 668 667 683 664 q 528 681 594 681 q 350 647 428 681 q 228 564 272 614 q 157 449 185 514 q 120 328 129 383 q 111 221 111 274 q 149 57 111 128 q 246 -14 188 -14 q 380 65 313 -14 q 529 283 447 143 l 504 118 q 514 26 496 58 q 565 -12 532 -7 q 428 -214 428 -103 q 455 -289 428 -260 q 528 -318 482 -318 q 663 -260 589 -318 l 668 -218 q 531 -224 574 -262 q 539 -103 488 -186 q 629 -1 569 -54 q 726 69 681 18 l 711 92 q 646 56 674 61 q 608 65 618 51 q 601 103 597 79 m 578 643 l 536 351 q 408 148 479 243 q 293 53 336 53 q 235 103 260 53 q 210 222 210 153 q 229 394 210 314 q 290 539 249 474 q 405 633 331 604 q 578 643 479 663 z "},"Ć":{"ha":858,"x_min":125,"x_max":935,"o":"m 125 399 q 169 664 125 547 q 290 849 214 781 q 456 951 365 917 q 646 986 546 986 q 935 878 813 986 l 904 638 l 879 638 q 874 786 892 724 q 819 880 857 849 q 738 924 781 911 q 649 938 696 938 q 358 785 475 938 q 240 404 240 633 q 316 136 240 238 q 522 35 392 35 q 596 42 560 35 q 672 71 632 50 q 743 124 711 92 q 801 210 775 156 q 836 335 826 265 l 861 335 l 825 94 q 506 -14 672 -14 q 233 90 340 -14 q 125 399 125 193 m 751 1278 l 536 1036 l 510 1036 l 635 1264 q 699 1287 665 1283 q 751 1278 732 1290 z "},"ć":{"ha":582,"x_min":111,"x_max":624,"o":"m 444 681 q 624 536 624 681 q 583 490 624 513 q 511 481 542 467 q 439 640 575 640 q 314 574 368 640 q 235 428 260 508 q 211 281 211 349 q 260 114 211 172 q 386 58 308 56 q 551 121 464 61 l 561 96 q 390 -1 474 22 q 246 3 307 -24 q 148 98 185 29 q 111 268 111 167 q 142 443 111 363 q 221 574 172 524 q 328 653 269 625 q 444 681 386 681 m 593 972 l 378 731 l 351 731 l 476 958 q 540 981 507 978 q 593 972 574 985 z "},"Ĉ":{"ha":858,"x_min":125,"x_max":935,"o":"m 125 399 q 169 664 125 547 q 290 849 214 781 q 456 951 365 917 q 646 986 546 986 q 935 878 813 986 l 904 638 l 879 638 q 874 786 892 724 q 819 880 857 849 q 738 924 781 911 q 649 938 696 938 q 358 785 475 938 q 240 404 240 633 q 316 136 240 238 q 522 35 392 35 q 596 42 560 35 q 672 71 632 50 q 743 124 711 92 q 801 210 775 156 q 836 335 826 265 l 861 335 l 825 94 q 506 -14 672 -14 q 233 90 340 -14 q 125 399 125 193 m 807 1036 l 775 1036 l 633 1181 l 451 1036 l 421 1036 l 611 1268 l 681 1268 l 807 1036 z "},"ĉ":{"ha":582,"x_min":111,"x_max":625,"o":"m 444 681 q 624 536 624 681 q 583 490 624 513 q 511 481 542 467 q 439 640 575 640 q 314 574 368 640 q 235 428 260 508 q 211 281 211 349 q 260 114 211 172 q 386 58 308 56 q 551 121 464 61 l 561 96 q 390 -1 474 22 q 246 3 307 -24 q 148 98 185 29 q 111 268 111 167 q 142 443 111 363 q 221 574 172 524 q 328 653 269 625 q 444 681 386 681 m 625 731 l 593 731 l 451 875 l 269 731 l 239 731 l 429 963 l 499 963 l 625 731 z "},"Ċ":{"ha":858,"x_min":125,"x_max":935,"o":"m 125 399 q 169 664 125 547 q 290 849 214 781 q 456 951 365 917 q 646 986 546 986 q 935 878 813 986 l 904 638 l 879 638 q 874 786 892 724 q 819 880 857 849 q 738 924 781 911 q 649 938 696 938 q 358 785 475 938 q 240 404 240 633 q 316 136 240 238 q 522 35 392 35 q 596 42 560 35 q 672 71 632 50 q 743 124 711 92 q 801 210 775 156 q 836 335 826 265 l 861 335 l 825 94 q 506 -14 672 -14 q 233 90 340 -14 q 125 399 125 193 m 621 1086 q 561 1163 589 1111 q 642 1238 603 1211 q 701 1163 675 1207 q 621 1086 669 1121 z "},"ċ":{"ha":582,"x_min":111,"x_max":624,"o":"m 444 681 q 624 536 624 681 q 583 490 624 513 q 511 481 542 467 q 439 640 575 640 q 314 574 368 640 q 235 428 260 508 q 211 281 211 349 q 260 114 211 172 q 386 58 308 56 q 551 121 464 61 l 561 96 q 390 -1 474 22 q 246 3 307 -24 q 148 98 185 29 q 111 268 111 167 q 142 443 111 363 q 221 574 172 524 q 328 653 269 625 q 444 681 386 681 m 439 781 q 379 857 407 806 q 460 932 421 906 q 519 857 493 901 q 439 781 488 815 z "},"Č":{"ha":858,"x_min":125,"x_max":935,"o":"m 125 399 q 169 664 125 547 q 290 849 214 781 q 456 951 365 917 q 646 986 546 986 q 935 878 813 986 l 904 638 l 879 638 q 874 786 892 724 q 819 880 857 849 q 738 924 781 911 q 649 938 696 938 q 358 785 475 938 q 240 404 240 633 q 316 136 240 238 q 522 35 392 35 q 596 42 560 35 q 672 71 632 50 q 743 124 711 92 q 801 210 775 156 q 836 335 826 265 l 861 335 l 825 94 q 506 -14 672 -14 q 233 90 340 -14 q 125 399 125 193 m 783 1268 l 815 1268 l 622 1036 l 553 1036 l 429 1268 l 460 1268 l 600 1124 l 783 1268 z "},"č":{"ha":582,"x_min":111,"x_max":646,"o":"m 444 681 q 624 536 624 681 q 583 490 624 513 q 511 481 542 467 q 439 640 575 640 q 314 574 368 640 q 235 428 260 508 q 211 281 211 349 q 260 114 211 172 q 386 58 308 56 q 551 121 464 61 l 561 96 q 390 -1 474 22 q 246 3 307 -24 q 148 98 185 29 q 111 268 111 167 q 142 443 111 363 q 221 574 172 524 q 328 653 269 625 q 444 681 386 681 m 614 963 l 646 963 l 453 731 l 383 731 l 260 963 l 290 963 l 431 818 l 614 963 z "},"Ď":{"ha":993,"x_min":49,"x_max":1014,"o":"m 49 0 l 53 28 q 160 53 136 28 q 196 156 185 79 l 289 817 q 282 920 300 896 q 182 944 264 944 l 185 972 l 521 972 q 601 972 571 972 q 690 963 632 971 q 785 941 747 956 q 871 897 824 926 q 947 827 918 868 q 994 722 975 786 q 1014 576 1014 658 q 996 405 1014 483 q 950 272 978 326 q 879 172 922 217 q 796 99 836 126 q 702 51 756 71 q 610 22 649 31 q 520 7 571 13 q 447 1 469 1 q 392 0 424 0 l 49 0 m 401 46 q 511 56 454 46 q 640 101 568 67 q 766 190 711 136 q 859 341 821 243 q 897 565 897 439 q 879 697 897 639 q 835 792 861 756 q 771 856 810 829 q 699 896 732 883 q 624 916 667 908 q 562 924 582 924 q 515 925 542 925 l 408 925 l 301 164 q 401 46 283 46 m 733 1268 l 765 1268 l 572 1036 l 503 1036 l 379 1268 l 410 1268 l 550 1124 l 733 1268 z "},"ď":{"ha":692,"x_min":111,"x_max":869,"o":"m 585 660 l 610 829 q 610 925 622 906 q 531 944 599 944 l 535 972 l 719 986 q 729 982 725 986 q 732 972 733 978 l 607 103 q 613 65 603 79 q 651 56 624 51 q 717 92 679 61 l 732 69 q 653 7 694 28 q 585 -14 611 -14 q 524 19 547 -14 q 510 118 500 51 l 535 283 q 385 67 456 147 q 246 -14 314 -14 q 149 57 188 -14 q 111 221 111 128 q 128 348 111 278 q 181 497 144 418 q 290 628 217 575 q 460 681 363 681 q 585 660 517 681 m 210 222 q 235 103 210 153 q 293 53 260 53 q 411 150 336 53 q 542 351 486 247 l 581 632 q 490 646 535 646 q 283 524 357 646 q 210 222 210 403 m 807 696 l 760 696 l 779 988 l 869 988 l 807 696 z "},"Đ":{"ha":993,"x_min":49,"x_max":1014,"o":"m 114 463 l 119 508 l 244 508 l 289 817 q 282 920 300 896 q 182 944 264 944 l 185 972 l 521 972 q 601 972 571 972 q 690 963 632 971 q 785 941 747 956 q 871 897 824 926 q 947 827 918 868 q 994 722 975 786 q 1014 576 1014 658 q 996 405 1014 483 q 950 272 978 326 q 879 172 922 217 q 796 99 836 126 q 702 51 756 71 q 610 22 649 31 q 520 7 571 13 q 447 1 469 1 q 392 0 424 0 l 49 0 l 53 28 q 160 53 136 28 q 196 156 185 79 l 239 463 l 114 463 m 401 46 q 511 56 454 46 q 640 101 568 67 q 766 190 711 136 q 859 341 821 243 q 897 565 897 439 q 879 697 897 639 q 835 792 861 756 q 771 856 810 829 q 699 896 732 883 q 624 916 667 908 q 562 924 582 924 q 515 925 542 925 l 408 925 l 349 508 l 503 508 l 497 463 l 343 463 l 301 164 q 401 46 283 46 z "},"đ":{"ha":692,"x_min":111,"x_max":790,"o":"m 510 800 l 517 846 l 611 846 q 608 928 619 913 q 531 944 596 944 l 535 972 l 719 986 q 729 982 725 986 q 732 972 733 978 l 714 846 l 790 846 l 783 800 l 707 800 l 607 103 q 613 65 603 79 q 651 56 624 51 q 717 92 679 61 l 732 69 q 653 7 694 28 q 585 -14 611 -14 q 524 19 547 -14 q 510 118 500 51 l 535 283 q 385 67 456 147 q 246 -14 314 -14 q 149 57 188 -14 q 111 221 111 128 q 128 348 111 278 q 181 497 144 418 q 290 628 217 575 q 460 681 363 681 q 585 660 517 681 l 606 800 l 510 800 m 210 222 q 235 103 210 153 q 293 53 260 53 q 411 150 336 53 q 542 351 486 247 l 581 632 q 490 646 535 646 q 283 524 357 646 q 210 222 210 403 z "},"Ē":{"ha":764,"x_min":49,"x_max":826,"o":"m 49 0 l 53 28 q 159 53 133 28 q 196 156 185 78 l 289 817 q 283 919 300 893 q 182 944 267 944 l 185 972 l 826 972 l 804 774 l 779 774 q 775 847 779 821 q 763 891 771 874 q 733 915 756 908 q 690 924 711 922 q 621 926 668 926 l 408 926 l 353 532 l 536 532 q 628 552 607 532 q 660 654 649 572 l 686 654 l 644 360 l 618 360 q 615 465 631 443 q 529 486 600 486 l 346 486 l 301 164 q 314 74 293 100 q 401 47 335 47 l 560 47 q 675 80 635 47 q 746 221 715 113 l 771 221 l 728 0 l 49 0 m 756 1168 l 746 1096 l 347 1096 l 357 1168 l 756 1168 z "},"ē":{"ha":557,"x_min":111,"x_max":633,"o":"m 613 544 q 572 433 613 475 q 472 379 532 390 q 347 376 413 368 q 228 408 282 383 q 213 268 213 342 q 260 109 213 164 q 386 58 308 54 q 551 121 464 61 l 561 96 q 390 -1 474 22 q 246 3 307 -24 q 148 98 185 29 q 111 268 111 167 q 142 443 111 363 q 221 574 172 524 q 328 653 269 625 q 444 681 386 681 q 561 648 510 681 q 613 544 613 615 m 439 640 q 312 583 363 640 q 236 438 261 526 q 329 418 283 422 q 419 423 375 414 q 491 468 464 432 q 518 565 518 504 q 439 640 518 640 m 633 863 l 624 790 l 225 790 l 235 863 l 633 863 z "},"Ĕ":{"ha":764,"x_min":49,"x_max":826,"o":"m 49 0 l 53 28 q 159 53 133 28 q 196 156 185 78 l 289 817 q 283 919 300 893 q 182 944 267 944 l 185 972 l 826 972 l 804 774 l 779 774 q 775 847 779 821 q 763 891 771 874 q 733 915 756 908 q 690 924 711 922 q 621 926 668 926 l 408 926 l 353 532 l 536 532 q 628 552 607 532 q 660 654 649 572 l 686 654 l 644 360 l 618 360 q 615 465 631 443 q 529 486 600 486 l 346 486 l 301 164 q 314 74 293 100 q 401 47 335 47 l 560 47 q 675 80 635 47 q 746 221 715 113 l 771 221 l 728 0 l 49 0 m 374 1257 l 406 1257 q 445 1172 408 1207 q 539 1136 482 1136 q 640 1172 594 1136 q 703 1257 686 1207 l 735 1257 q 661 1110 724 1174 q 526 1046 599 1046 q 416 1105 458 1046 q 374 1257 374 1164 z "},"ĕ":{"ha":557,"x_min":111,"x_max":613,"o":"m 613 544 q 572 433 613 475 q 472 379 532 390 q 347 376 413 368 q 228 408 282 383 q 213 268 213 342 q 260 109 213 164 q 386 58 308 54 q 551 121 464 61 l 561 96 q 390 -1 474 22 q 246 3 307 -24 q 148 98 185 29 q 111 268 111 167 q 142 443 111 363 q 221 574 172 524 q 328 653 269 625 q 444 681 386 681 q 561 648 510 681 q 613 544 613 615 m 439 640 q 312 583 363 640 q 236 438 261 526 q 329 418 283 422 q 419 423 375 414 q 491 468 464 432 q 518 565 518 504 q 439 640 518 640 m 250 951 l 282 951 q 322 866 285 901 q 415 831 358 831 q 517 866 471 831 q 579 951 563 901 l 611 951 q 538 804 600 868 q 403 740 475 740 q 292 799 335 740 q 250 951 250 858 z "},"Ė":{"ha":764,"x_min":49,"x_max":826,"o":"m 49 0 l 53 28 q 159 53 133 28 q 196 156 185 78 l 289 817 q 283 919 300 893 q 182 944 267 944 l 185 972 l 826 972 l 804 774 l 779 774 q 775 847 779 821 q 763 891 771 874 q 733 915 756 908 q 690 924 711 922 q 621 926 668 926 l 408 926 l 353 532 l 536 532 q 628 552 607 532 q 660 654 649 572 l 686 654 l 644 360 l 618 360 q 615 465 631 443 q 529 486 600 486 l 346 486 l 301 164 q 314 74 293 100 q 401 47 335 47 l 560 47 q 675 80 635 47 q 746 221 715 113 l 771 221 l 728 0 l 49 0 m 550 1086 q 490 1163 518 1111 q 571 1238 532 1211 q 631 1163 604 1207 q 550 1086 599 1121 z "},"ė":{"ha":557,"x_min":111,"x_max":613,"o":"m 613 544 q 572 433 613 475 q 472 379 532 390 q 347 376 413 368 q 228 408 282 383 q 213 268 213 342 q 260 109 213 164 q 386 58 308 54 q 551 121 464 61 l 561 96 q 390 -1 474 22 q 246 3 307 -24 q 148 98 185 29 q 111 268 111 167 q 142 443 111 363 q 221 574 172 524 q 328 653 269 625 q 444 681 386 681 q 561 648 510 681 q 613 544 613 615 m 439 640 q 312 583 363 640 q 236 438 261 526 q 329 418 283 422 q 419 423 375 414 q 491 468 464 432 q 518 565 518 504 q 439 640 518 640 m 435 781 q 375 857 403 806 q 456 932 417 906 q 515 857 489 901 q 435 781 483 815 z "},"Ę":{"ha":764,"x_min":49,"x_max":826,"o":"m 728 0 l 654 0 q 535 -186 531 -108 q 594 -240 539 -236 q 690 -218 636 -244 l 685 -260 q 550 -318 611 -318 q 477 -289 504 -318 q 450 -214 450 -260 q 607 0 450 -96 l 49 0 l 53 28 q 159 53 133 28 q 196 156 185 78 l 289 817 q 283 919 300 893 q 182 944 267 944 l 185 972 l 826 972 l 804 774 l 779 774 q 775 847 779 821 q 763 891 771 874 q 733 915 756 908 q 690 924 711 922 q 621 926 668 926 l 408 926 l 353 532 l 536 532 q 628 552 607 532 q 660 654 649 572 l 686 654 l 644 360 l 618 360 q 615 465 631 443 q 529 486 600 486 l 346 486 l 301 164 q 314 74 293 100 q 401 47 335 47 l 560 47 q 675 80 635 47 q 746 221 715 113 l 771 221 l 728 0 z "},"ę":{"ha":557,"x_min":111,"x_max":613,"o":"m 613 544 q 572 433 613 475 q 472 379 532 390 q 347 376 413 368 q 228 408 282 383 q 213 268 213 342 q 260 109 213 164 q 386 58 308 54 q 551 121 464 61 l 561 96 q 392 0 472 21 q 274 -186 268 -108 q 333 -240 278 -236 q 429 -218 376 -243 l 424 -260 q 289 -318 350 -318 q 216 -289 243 -318 q 189 -214 189 -260 q 328 -11 189 -101 q 171 61 231 -14 q 111 268 111 136 q 142 443 111 363 q 221 574 172 524 q 328 653 269 625 q 444 681 386 681 q 561 648 510 681 q 613 544 613 615 m 439 640 q 312 583 363 640 q 236 438 261 526 q 329 418 283 422 q 419 423 375 414 q 491 468 464 432 q 518 565 518 504 q 439 640 518 640 z "},"Ě":{"ha":764,"x_min":49,"x_max":826,"o":"m 49 0 l 53 28 q 159 53 133 28 q 196 156 185 78 l 289 817 q 283 919 300 893 q 182 944 267 944 l 185 972 l 826 972 l 804 774 l 779 774 q 775 847 779 821 q 763 891 771 874 q 733 915 756 908 q 690 924 711 922 q 621 926 668 926 l 408 926 l 353 532 l 536 532 q 628 552 607 532 q 660 654 649 572 l 686 654 l 644 360 l 618 360 q 615 465 631 443 q 529 486 600 486 l 346 486 l 301 164 q 314 74 293 100 q 401 47 335 47 l 560 47 q 675 80 635 47 q 746 221 715 113 l 771 221 l 728 0 l 49 0 m 731 1268 l 763 1268 l 569 1036 l 500 1036 l 376 1268 l 407 1268 l 547 1124 l 731 1268 z "},"ě":{"ha":557,"x_min":111,"x_max":636,"o":"m 613 544 q 572 433 613 475 q 472 379 532 390 q 347 376 413 368 q 228 408 282 383 q 213 268 213 342 q 260 109 213 164 q 386 58 308 54 q 551 121 464 61 l 561 96 q 390 -1 474 22 q 246 3 307 -24 q 148 98 185 29 q 111 268 111 167 q 142 443 111 363 q 221 574 172 524 q 328 653 269 625 q 444 681 386 681 q 561 648 510 681 q 613 544 613 615 m 439 640 q 312 583 363 640 q 236 438 261 526 q 329 418 283 422 q 419 423 375 414 q 491 468 464 432 q 518 565 518 504 q 439 640 518 640 m 604 963 l 636 963 l 443 731 l 374 731 l 250 963 l 281 963 l 421 818 l 604 963 z "},"Ĝ":{"ha":965,"x_min":125,"x_max":1000,"o":"m 878 261 l 860 124 q 687 23 781 60 q 506 -14 593 -14 q 233 90 340 -14 q 125 399 125 193 q 169 664 125 547 q 290 849 214 781 q 456 951 365 917 q 646 986 546 986 q 935 878 813 986 l 904 638 l 879 638 q 874 786 892 724 q 819 880 857 849 q 738 924 781 911 q 649 938 696 938 q 358 785 475 938 q 240 404 240 633 q 316 136 240 238 q 522 35 392 35 q 760 157 671 35 l 774 261 q 760 363 785 338 q 640 389 736 389 l 644 417 l 1000 417 l 996 389 q 909 365 929 389 q 878 261 889 340 m 831 1036 l 799 1036 l 657 1181 l 475 1036 l 444 1036 l 635 1268 l 704 1268 l 831 1036 z "},"ĝ":{"ha":660,"x_min":83,"x_max":689,"o":"m 500 49 l 535 283 q 385 65 453 143 q 251 -14 318 -14 q 155 57 193 -14 q 117 221 117 128 q 126 328 117 274 q 163 449 135 383 q 234 564 190 514 q 356 647 278 614 q 533 681 433 681 q 674 667 600 681 q 686 653 689 664 l 597 33 q 478 -244 571 -151 q 263 -337 385 -337 q 83 -193 83 -337 q 124 -147 83 -169 q 196 -137 165 -124 q 268 -297 132 -297 q 365 -262 321 -297 q 435 -169 408 -226 q 476 -58 461 -111 q 500 49 492 -6 m 215 222 q 240 103 215 153 q 299 53 265 53 q 413 148 342 53 q 542 351 485 243 l 583 643 q 410 633 485 663 q 295 539 336 604 q 235 394 254 474 q 215 222 215 314 m 651 731 l 619 731 l 478 875 l 296 731 l 265 731 l 456 963 l 525 963 l 651 731 z "},"Ğ":{"ha":965,"x_min":125,"x_max":1000,"o":"m 878 261 l 860 124 q 687 23 781 60 q 506 -14 593 -14 q 233 90 340 -14 q 125 399 125 193 q 169 664 125 547 q 290 849 214 781 q 456 951 365 917 q 646 986 546 986 q 935 878 813 986 l 904 638 l 879 638 q 874 786 892 724 q 819 880 857 849 q 738 924 781 911 q 649 938 696 938 q 358 785 475 938 q 240 404 240 633 q 316 136 240 238 q 522 35 392 35 q 760 157 671 35 l 774 261 q 760 363 785 338 q 640 389 736 389 l 644 417 l 1000 417 l 996 389 q 909 365 929 389 q 878 261 889 340 m 457 1257 l 489 1257 q 528 1172 492 1207 q 622 1136 565 1136 q 724 1172 678 1136 q 786 1257 769 1207 l 818 1257 q 744 1110 807 1174 q 610 1046 682 1046 q 499 1105 542 1046 q 457 1257 457 1164 z "},"ğ":{"ha":660,"x_min":83,"x_max":689,"o":"m 500 49 l 535 283 q 385 65 453 143 q 251 -14 318 -14 q 155 57 193 -14 q 117 221 117 128 q 126 328 117 274 q 163 449 135 383 q 234 564 190 514 q 356 647 278 614 q 533 681 433 681 q 674 667 600 681 q 686 653 689 664 l 597 33 q 478 -244 571 -151 q 263 -337 385 -337 q 83 -193 83 -337 q 124 -147 83 -169 q 196 -137 165 -124 q 268 -297 132 -297 q 365 -262 321 -297 q 435 -169 408 -226 q 476 -58 461 -111 q 500 49 492 -6 m 215 222 q 240 103 215 153 q 299 53 265 53 q 413 148 342 53 q 542 351 485 243 l 583 643 q 410 633 485 663 q 295 539 336 604 q 235 394 254 474 q 215 222 215 314 m 282 951 l 314 951 q 353 866 317 901 q 447 831 390 831 q 549 866 503 831 q 611 951 594 901 l 643 951 q 569 804 632 868 q 435 740 507 740 q 324 799 367 740 q 282 951 282 858 z "},"Ġ":{"ha":965,"x_min":125,"x_max":1000,"o":"m 878 261 l 860 124 q 687 23 781 60 q 506 -14 593 -14 q 233 90 340 -14 q 125 399 125 193 q 169 664 125 547 q 290 849 214 781 q 456 951 365 917 q 646 986 546 986 q 935 878 813 986 l 904 638 l 879 638 q 874 786 892 724 q 819 880 857 849 q 738 924 781 911 q 649 938 696 938 q 358 785 475 938 q 240 404 240 633 q 316 136 240 238 q 522 35 392 35 q 760 157 671 35 l 774 261 q 760 363 785 338 q 640 389 736 389 l 644 417 l 1000 417 l 996 389 q 909 365 929 389 q 878 261 889 340 m 639 1086 q 579 1163 607 1111 q 660 1238 621 1211 q 719 1163 693 1207 q 639 1086 688 1121 z "},"ġ":{"ha":660,"x_min":83,"x_max":689,"o":"m 500 49 l 535 283 q 385 65 453 143 q 251 -14 318 -14 q 155 57 193 -14 q 117 221 117 128 q 126 328 117 274 q 163 449 135 383 q 234 564 190 514 q 356 647 278 614 q 533 681 433 681 q 674 667 600 681 q 686 653 689 664 l 597 33 q 478 -244 571 -151 q 263 -337 385 -337 q 83 -193 83 -337 q 124 -147 83 -169 q 196 -137 165 -124 q 268 -297 132 -297 q 365 -262 321 -297 q 435 -169 408 -226 q 476 -58 461 -111 q 500 49 492 -6 m 215 222 q 240 103 215 153 q 299 53 265 53 q 413 148 342 53 q 542 351 485 243 l 583 643 q 410 633 485 663 q 295 539 336 604 q 235 394 254 474 q 215 222 215 314 m 464 781 q 404 857 432 806 q 485 932 446 906 q 544 857 518 901 q 464 781 513 815 z "},"Ģ":{"ha":965,"x_min":125,"x_max":1000,"o":"m 878 261 l 860 124 q 687 23 781 60 q 506 -14 593 -14 q 233 90 340 -14 q 125 399 125 193 q 169 664 125 547 q 290 849 214 781 q 456 951 365 917 q 646 986 546 986 q 935 878 813 986 l 904 638 l 879 638 q 874 786 892 724 q 819 880 857 849 q 738 924 781 911 q 649 938 696 938 q 358 785 475 938 q 240 404 240 633 q 316 136 240 238 q 522 35 392 35 q 760 157 671 35 l 774 261 q 760 363 785 338 q 640 389 736 389 l 644 417 l 1000 417 l 996 389 q 909 365 929 389 q 878 261 889 340 m 413 -400 l 394 -376 q 481 -254 454 -328 q 415 -169 440 -217 q 504 -86 453 -126 q 571 -169 542 -122 q 413 -400 553 -300 z "},"ģ":{"ha":660,"x_min":83,"x_max":689,"o":"m 500 49 l 535 283 q 385 65 453 143 q 251 -14 318 -14 q 155 57 193 -14 q 117 221 117 128 q 126 328 117 274 q 163 449 135 383 q 234 564 190 514 q 356 647 278 614 q 533 681 433 681 q 674 667 600 681 q 686 653 689 664 l 597 33 q 478 -244 571 -151 q 263 -337 385 -337 q 83 -193 83 -337 q 124 -147 83 -169 q 196 -137 165 -124 q 268 -297 132 -297 q 365 -262 321 -297 q 435 -169 408 -226 q 476 -58 461 -111 q 500 49 492 -6 m 215 222 q 240 103 215 153 q 299 53 265 53 q 413 148 342 53 q 542 351 485 243 l 583 643 q 410 633 485 663 q 295 539 336 604 q 235 394 254 474 q 215 222 215 314 m 546 1071 l 564 1047 q 478 925 504 1001 q 543 840 514 892 q 454 757 506 797 q 388 840 417 793 q 546 1071 406 971 z "},"Ĥ":{"ha":1061,"x_min":49,"x_max":1172,"o":"m 1036 0 l 681 0 l 685 28 q 791 53 765 28 q 828 156 817 78 l 874 481 l 346 481 l 300 156 q 308 53 289 78 q 408 28 326 28 l 404 0 l 49 0 l 53 28 q 159 53 133 28 q 196 156 185 78 l 289 817 q 283 919 300 893 q 182 944 267 944 l 185 972 l 540 972 l 538 944 q 427 919 451 944 q 393 817 403 893 l 351 526 l 879 526 l 921 817 q 915 919 932 893 q 814 944 899 944 l 817 972 l 1172 972 l 1169 944 q 1060 919 1085 944 q 1026 817 1036 893 l 933 156 q 941 53 922 78 q 1040 28 960 28 l 1036 0 m 894 1036 l 863 1036 l 721 1181 l 539 1036 l 508 1036 l 699 1268 l 768 1268 l 894 1036 z "},"ĥ":{"ha":703,"x_min":117,"x_max":744,"o":"m 228 0 l 138 -12 q 125 0 125 -12 l 243 829 q 244 925 256 906 q 164 944 232 944 l 168 972 l 353 986 q 365 972 365 986 l 279 383 q 435 597 354 513 q 583 681 515 681 q 678 513 701 681 l 619 103 q 626 65 615 79 q 664 56 636 51 q 729 92 692 61 l 744 69 q 665 7 707 28 q 597 -14 624 -14 q 536 19 560 -14 q 522 118 513 51 l 572 478 q 575 581 583 547 q 536 614 567 614 q 408 514 492 614 q 272 315 324 414 l 228 0 m 503 1000 l 471 1000 l 329 1144 l 147 1000 l 117 1000 l 307 1232 l 376 1232 l 503 1000 z "},"Ħ":{"ha":1061,"x_min":49,"x_max":1172,"o":"m 1036 0 l 681 0 l 685 28 q 791 53 765 28 q 828 156 817 78 l 874 481 l 346 481 l 300 156 q 308 53 289 78 q 408 28 326 28 l 404 0 l 49 0 l 53 28 q 159 53 133 28 q 196 156 185 78 l 272 699 l 147 699 l 153 744 l 278 744 l 289 817 q 283 919 300 893 q 182 944 267 944 l 185 972 l 540 972 l 538 944 q 427 919 451 944 q 393 817 403 893 l 382 744 l 910 744 l 921 817 q 915 919 932 893 q 814 944 899 944 l 817 972 l 1172 972 l 1169 944 q 1060 919 1085 944 q 1026 817 1036 893 l 1015 744 l 1140 744 l 1135 699 l 1010 699 l 933 156 q 941 53 922 78 q 1040 28 960 28 l 1036 0 m 376 699 l 351 526 l 879 526 l 904 699 l 376 699 z "},"ħ":{"ha":703,"x_min":125,"x_max":744,"o":"m 143 800 l 150 846 l 244 846 q 241 928 253 913 q 164 944 229 944 l 168 972 l 353 986 q 365 972 365 986 l 347 846 l 444 846 l 438 800 l 340 800 l 279 383 q 435 597 354 513 q 583 681 515 681 q 678 513 701 681 l 619 103 q 626 65 615 79 q 664 56 636 51 q 729 92 692 61 l 744 69 q 665 7 707 28 q 597 -14 624 -14 q 536 19 560 -14 q 522 118 513 51 l 572 478 q 575 581 583 547 q 536 614 567 614 q 408 514 492 614 q 272 315 324 414 l 228 0 l 138 -12 q 125 0 125 -12 l 239 800 l 143 800 z "},"Ĩ":{"ha":429,"x_min":49,"x_max":593,"o":"m 404 0 l 49 0 l 53 28 q 159 53 133 28 q 196 156 185 78 l 289 817 q 283 919 300 893 q 182 944 267 944 l 185 972 l 540 972 l 538 944 q 427 919 451 944 q 393 817 403 893 l 300 156 q 308 53 289 78 q 408 28 326 28 l 404 0 m 186 1079 l 168 1094 q 307 1204 242 1204 q 405 1182 343 1204 q 499 1160 467 1160 q 575 1206 538 1160 l 593 1190 q 454 1081 519 1081 q 356 1103 418 1081 q 263 1125 294 1125 q 186 1079 224 1125 z "},"ĩ":{"ha":344,"x_min":79,"x_max":504,"o":"m 310 542 l 246 103 q 252 65 242 79 q 290 56 263 51 q 356 92 318 61 l 371 69 q 292 7 333 28 q 224 -14 250 -14 q 163 19 186 -14 q 149 118 139 51 l 210 551 q 211 588 214 571 q 201 617 208 606 q 175 624 194 628 q 126 596 156 619 l 111 618 q 235 674 183 674 q 297 640 272 674 q 310 542 321 607 m 97 774 l 79 789 q 218 899 153 899 q 316 876 254 899 q 410 854 378 854 q 486 900 449 854 l 504 885 q 365 775 431 775 q 267 797 329 775 q 174 819 206 819 q 97 774 135 819 z "},"Ī":{"ha":429,"x_min":49,"x_max":589,"o":"m 404 0 l 49 0 l 53 28 q 159 53 133 28 q 196 156 185 78 l 289 817 q 283 919 300 893 q 182 944 267 944 l 185 972 l 540 972 l 538 944 q 427 919 451 944 q 393 817 403 893 l 300 156 q 308 53 289 78 q 408 28 326 28 l 404 0 m 589 1168 l 579 1096 l 181 1096 l 190 1168 l 589 1168 z "},"ī":{"ha":344,"x_min":89,"x_max":497,"o":"m 310 542 l 246 103 q 252 65 242 79 q 290 56 263 51 q 356 92 318 61 l 371 69 q 292 7 333 28 q 224 -14 250 -14 q 163 19 186 -14 q 149 118 139 51 l 210 551 q 211 588 214 571 q 201 617 208 606 q 175 624 194 628 q 126 596 156 619 l 111 618 q 235 674 183 674 q 297 640 272 674 q 310 542 321 607 m 497 863 l 488 790 l 89 790 l 99 863 l 497 863 z "},"Ĭ":{"ha":429,"x_min":49,"x_max":572,"o":"m 404 0 l 49 0 l 53 28 q 159 53 133 28 q 196 156 185 78 l 289 817 q 283 919 300 893 q 182 944 267 944 l 185 972 l 540 972 l 538 944 q 427 919 451 944 q 393 817 403 893 l 300 156 q 308 53 289 78 q 408 28 326 28 l 404 0 m 211 1257 l 243 1257 q 283 1172 246 1207 q 376 1136 319 1136 q 478 1172 432 1136 q 540 1257 524 1207 l 572 1257 q 499 1110 561 1174 q 364 1046 436 1046 q 253 1105 296 1046 q 211 1257 211 1164 z "},"ĭ":{"ha":344,"x_min":111,"x_max":478,"o":"m 310 542 l 246 103 q 252 65 242 79 q 290 56 263 51 q 356 92 318 61 l 371 69 q 292 7 333 28 q 224 -14 250 -14 q 163 19 186 -14 q 149 118 139 51 l 210 551 q 211 588 214 571 q 201 617 208 606 q 175 624 194 628 q 126 596 156 619 l 111 618 q 235 674 183 674 q 297 640 272 674 q 310 542 321 607 m 117 951 l 149 951 q 188 866 151 901 q 282 831 225 831 q 383 866 338 831 q 446 951 429 901 l 478 951 q 404 804 467 868 q 269 740 342 740 q 159 799 201 740 q 117 951 117 858 z "},"Į":{"ha":429,"x_min":49,"x_max":540,"o":"m 404 0 l 310 0 q 190 -186 186 -108 q 250 -240 194 -236 q 346 -218 292 -244 l 340 -260 q 206 -318 267 -318 q 133 -289 160 -318 q 106 -214 106 -260 q 263 0 106 -96 l 49 0 l 53 28 q 159 53 133 28 q 196 156 185 78 l 289 817 q 283 919 300 893 q 182 944 267 944 l 185 972 l 540 972 l 538 944 q 427 919 451 944 q 393 817 403 893 l 300 156 q 308 53 289 78 q 408 28 326 28 l 404 0 z "},"į":{"ha":344,"x_min":72,"x_max":386,"o":"m 310 542 l 246 103 q 252 65 242 79 q 290 56 263 51 q 356 92 318 61 l 371 69 q 274 -1 325 18 q 157 -186 150 -110 q 219 -240 161 -237 q 313 -218 260 -243 l 307 -260 q 172 -318 233 -318 q 99 -289 126 -318 q 72 -214 72 -260 q 210 -12 72 -103 q 158 26 176 -7 q 149 118 140 58 l 210 551 q 211 588 214 571 q 201 617 208 606 q 175 624 194 628 q 126 596 156 619 l 111 618 q 235 674 183 674 q 297 640 272 674 q 310 542 321 607 m 289 790 q 218 882 250 822 q 314 972 264 936 q 386 882 360 933 q 289 790 349 833 z "},"İ":{"ha":429,"x_min":49,"x_max":540,"o":"m 404 0 l 49 0 l 53 28 q 159 53 133 28 q 196 156 185 78 l 289 817 q 283 919 300 893 q 182 944 267 944 l 185 972 l 540 972 l 538 944 q 427 919 451 944 q 393 817 403 893 l 300 156 q 308 53 289 78 q 408 28 326 28 l 404 0 m 378 1086 q 318 1163 346 1111 q 399 1238 360 1211 q 458 1163 432 1207 q 378 1086 426 1121 z "},"ı":{"ha":344,"x_min":111,"x_max":371,"o":"m 310 542 l 246 103 q 252 65 242 79 q 290 56 263 51 q 356 92 318 61 l 371 69 q 292 7 333 28 q 224 -14 250 -14 q 163 19 186 -14 q 149 118 139 51 l 210 551 q 211 588 214 571 q 201 617 208 606 q 175 624 194 628 q 126 596 156 619 l 111 618 q 235 674 183 674 q 297 640 272 674 q 310 542 321 607 z "},"Ĵ":{"ha":417,"x_min":11,"x_max":565,"o":"m 394 817 l 285 43 q 256 -67 276 -15 q 213 -153 236 -118 q 153 -224 189 -189 q 89 -281 117 -260 q 22 -329 61 -303 l 11 -310 q 178 18 146 -212 l 290 817 q 285 919 301 893 q 183 944 268 944 l 186 972 l 542 972 l 539 944 q 428 919 453 944 q 394 817 404 893 m 565 1036 l 533 1036 l 392 1181 l 210 1036 l 179 1036 l 369 1268 l 439 1268 l 565 1036 z "},"ĵ":{"ha":310,"x_min":-57,"x_max":481,"o":"m 142 18 l 217 551 q 218 588 221 571 q 208 617 215 606 q 182 624 201 628 q 133 596 163 619 l 118 618 q 242 674 190 674 q 303 641 279 674 q 317 542 326 608 l 246 43 q 153 -175 226 -93 q -46 -329 79 -257 l -57 -310 q 72 -186 21 -261 q 142 18 124 -111 m 481 731 l 449 731 l 307 875 l 125 731 l 94 731 l 285 963 l 354 963 l 481 731 z "},"Ķ":{"ha":864,"x_min":49,"x_max":1003,"o":"m 390 0 l 49 0 l 53 28 q 159 53 133 28 q 196 156 185 78 l 289 817 q 283 919 300 893 q 182 944 267 944 l 185 972 l 526 972 l 524 944 q 425 919 447 944 q 393 817 403 893 l 346 481 l 381 481 l 771 865 q 794 900 789 883 q 781 931 800 917 q 715 944 763 944 l 718 972 l 1003 972 l 1000 944 q 915 928 944 944 q 833 863 886 913 l 488 525 q 551 328 504 422 q 651 177 599 233 q 746 88 703 121 q 807 54 789 54 q 883 92 836 54 l 899 69 q 819 7 861 28 q 751 -14 778 -14 q 656 15 708 -14 q 551 96 603 43 q 462 240 500 149 q 415 440 424 331 l 340 440 l 300 156 q 306 53 289 79 q 394 28 322 28 l 390 0 m 339 -400 l 321 -376 q 407 -254 381 -328 q 342 -169 367 -217 q 431 -86 379 -126 q 497 -169 468 -122 q 339 -400 479 -300 z "},"ķ":{"ha":667,"x_min":125,"x_max":708,"o":"m 228 0 l 138 -12 q 125 0 125 -12 l 243 829 q 244 925 256 906 q 164 944 232 944 l 168 972 l 353 986 q 365 972 365 986 l 271 307 q 354 427 308 367 q 460 554 400 488 q 579 656 519 621 q 683 678 639 692 q 694 671 688 676 q 704 654 700 665 q 707 628 708 643 q 691 591 706 614 q 647 543 676 568 q 393 428 561 622 q 433 235 404 315 q 497 119 461 156 q 559 69 532 83 q 607 54 586 54 q 683 92 636 54 l 699 69 q 619 7 661 28 q 551 -14 578 -14 q 486 -1 517 -14 q 419 45 456 11 q 358 155 383 79 q 324 340 332 231 q 264 253 292 296 l 228 0 m 224 -400 l 206 -376 q 292 -254 265 -328 q 226 -169 251 -217 q 315 -86 264 -126 q 382 -169 353 -122 q 224 -400 364 -300 z "},"Ĺ":{"ha":764,"x_min":49,"x_max":771,"o":"m 565 972 l 563 944 q 435 919 467 944 q 393 817 404 893 l 301 164 q 313 74 292 101 q 401 47 335 47 l 560 47 q 675 80 635 47 q 746 221 715 113 l 771 221 l 728 0 l 49 0 l 53 28 q 159 53 133 28 q 196 156 185 78 l 289 817 q 283 919 300 893 q 182 944 267 944 l 185 972 l 565 972 m 551 1278 l 336 1036 l 310 1036 l 435 1264 q 499 1287 465 1283 q 551 1278 532 1290 z "},"ĺ":{"ha":338,"x_min":132,"x_max":507,"o":"m 364 972 l 239 103 q 245 65 235 79 q 283 56 256 51 q 349 92 311 61 l 364 69 q 285 7 326 28 q 217 -14 243 -14 q 156 19 179 -14 q 142 118 132 51 l 242 829 q 242 925 254 906 q 163 944 231 944 l 167 972 l 351 986 q 361 982 357 986 q 364 972 365 978 m 507 1265 l 292 1024 l 265 1024 l 390 1251 q 454 1274 421 1271 q 507 1265 488 1278 z "},"Ļ":{"ha":764,"x_min":49,"x_max":771,"o":"m 565 972 l 563 944 q 435 919 467 944 q 393 817 404 893 l 301 164 q 313 74 292 101 q 401 47 335 47 l 560 47 q 675 80 635 47 q 746 221 715 113 l 771 221 l 728 0 l 49 0 l 53 28 q 159 53 133 28 q 196 156 185 78 l 289 817 q 283 919 300 893 q 182 944 267 944 l 185 972 l 565 972 m 311 -400 l 293 -376 q 379 -254 353 -328 q 314 -169 339 -217 q 403 -86 351 -126 q 469 -169 440 -122 q 311 -400 451 -300 z "},"ļ":{"ha":338,"x_min":81,"x_max":365,"o":"m 364 972 l 239 103 q 245 65 235 79 q 283 56 256 51 q 349 92 311 61 l 364 69 q 285 7 326 28 q 217 -14 243 -14 q 156 19 179 -14 q 142 118 132 51 l 242 829 q 242 925 254 906 q 163 944 231 944 l 167 972 l 351 986 q 361 982 357 986 q 364 972 365 978 m 99 -400 l 81 -376 q 167 -254 140 -328 q 101 -169 126 -217 q 190 -86 139 -126 q 257 -169 228 -122 q 99 -400 239 -300 z "},"Ľ":{"ha":764,"x_min":49,"x_max":854,"o":"m 565 972 l 563 944 q 435 919 467 944 q 393 817 404 893 l 301 164 q 313 74 292 101 q 401 47 335 47 l 560 47 q 675 80 635 47 q 746 221 715 113 l 771 221 l 728 0 l 49 0 l 53 28 q 159 53 133 28 q 196 156 185 78 l 289 817 q 283 919 300 893 q 182 944 267 944 l 185 972 l 565 972 m 765 821 q 700 904 728 853 q 789 988 742 954 q 854 904 831 949 q 694 663 833 761 l 678 686 q 765 821 732 731 z "},"ľ":{"ha":338,"x_min":132,"x_max":550,"o":"m 364 972 l 239 103 q 245 65 235 79 q 283 56 256 51 q 349 92 311 61 l 364 69 q 285 7 326 28 q 217 -14 243 -14 q 156 19 179 -14 q 142 118 132 51 l 242 829 q 242 925 254 906 q 163 944 231 944 l 167 972 l 351 986 q 361 982 357 986 q 364 972 365 978 m 461 844 q 396 928 424 876 q 485 1011 438 978 q 550 928 526 972 q 390 686 529 785 l 374 710 q 461 844 428 754 z "},"Ł":{"ha":764,"x_min":49,"x_max":771,"o":"m 114 463 l 119 508 l 244 508 l 289 817 q 283 919 300 893 q 182 944 267 944 l 185 972 l 565 972 l 563 944 q 435 919 467 944 q 393 817 404 893 l 349 508 l 525 508 l 519 463 l 343 463 l 301 164 q 313 74 292 101 q 401 47 335 47 l 560 47 q 675 80 635 47 q 746 221 715 113 l 771 221 l 728 0 l 49 0 l 53 28 q 159 53 133 28 q 196 156 185 78 l 239 463 l 114 463 z "},"ł":{"ha":338,"x_min":89,"x_max":390,"o":"m 364 972 l 297 508 l 390 508 l 385 463 l 290 463 l 239 103 q 245 65 235 79 q 283 56 256 51 q 349 92 311 61 l 364 69 q 285 7 326 28 q 217 -14 243 -14 q 156 19 179 -14 q 142 118 132 51 l 190 463 l 89 463 l 94 508 l 196 508 l 242 829 q 242 925 254 906 q 163 944 231 944 l 167 972 l 351 986 q 361 982 357 986 q 364 972 365 978 z "},"Ń":{"ha":1047,"x_min":49,"x_max":1172,"o":"m 896 207 l 982 817 q 969 919 992 893 q 874 944 947 944 l 876 972 l 1172 972 l 1169 944 q 1072 917 1101 944 q 1033 817 1043 889 l 917 -7 l 894 -7 l 339 804 l 249 156 q 261 51 238 75 q 379 28 285 28 l 375 0 l 49 0 l 53 28 q 160 51 132 28 q 199 156 188 75 l 292 817 q 275 917 303 890 q 161 944 247 944 l 164 972 l 381 972 l 896 207 m 808 1278 l 593 1036 l 567 1036 l 692 1264 q 756 1287 722 1283 q 808 1278 789 1290 z "},"ń":{"ha":708,"x_min":111,"x_max":750,"o":"m 310 542 l 285 383 q 440 597 360 513 q 589 681 521 681 q 683 513 707 681 l 625 103 q 631 65 621 79 q 669 56 642 51 q 735 92 697 61 l 750 69 q 671 7 713 28 q 603 -14 629 -14 q 542 19 565 -14 q 528 118 518 51 l 578 478 q 581 581 589 547 q 542 614 572 614 q 413 514 497 614 q 278 315 329 414 l 233 0 l 143 -12 q 131 0 131 -12 l 210 551 q 211 588 214 571 q 201 617 208 606 q 175 624 194 628 q 126 596 156 619 l 111 618 q 235 674 183 674 q 297 640 272 674 q 310 542 321 607 m 571 972 l 356 731 l 329 731 l 454 958 q 518 981 485 978 q 571 972 551 985 z "},"Ņ":{"ha":1047,"x_min":49,"x_max":1172,"o":"m 896 207 l 982 817 q 969 919 992 893 q 874 944 947 944 l 876 972 l 1172 972 l 1169 944 q 1072 917 1101 944 q 1033 817 1043 889 l 917 -7 l 894 -7 l 339 804 l 249 156 q 261 51 238 75 q 379 28 285 28 l 375 0 l 49 0 l 53 28 q 160 51 132 28 q 199 156 188 75 l 292 817 q 275 917 303 890 q 161 944 247 944 l 164 972 l 381 972 l 896 207 m 453 -400 l 435 -376 q 521 -254 494 -328 q 456 -169 481 -217 q 544 -86 493 -126 q 611 -169 582 -122 q 453 -400 593 -300 z "},"ņ":{"ha":708,"x_min":111,"x_max":750,"o":"m 310 542 l 285 383 q 440 597 360 513 q 589 681 521 681 q 683 513 707 681 l 625 103 q 631 65 621 79 q 669 56 642 51 q 735 92 697 61 l 750 69 q 671 7 713 28 q 603 -14 629 -14 q 542 19 565 -14 q 528 118 518 51 l 578 478 q 581 581 589 547 q 542 614 572 614 q 413 514 497 614 q 278 315 329 414 l 233 0 l 143 -12 q 131 0 131 -12 l 210 551 q 211 588 214 571 q 201 617 208 606 q 175 624 194 628 q 126 596 156 619 l 111 618 q 235 674 183 674 q 297 640 272 674 q 310 542 321 607 m 283 -400 l 265 -376 q 351 -254 325 -328 q 286 -169 311 -217 q 375 -86 324 -126 q 442 -169 413 -122 q 283 -400 424 -300 z "},"Ň":{"ha":1047,"x_min":49,"x_max":1172,"o":"m 896 207 l 982 817 q 969 919 992 893 q 874 944 947 944 l 876 972 l 1172 972 l 1169 944 q 1072 917 1101 944 q 1033 817 1043 889 l 917 -7 l 894 -7 l 339 804 l 249 156 q 261 51 238 75 q 379 28 285 28 l 375 0 l 49 0 l 53 28 q 160 51 132 28 q 199 156 188 75 l 292 817 q 275 917 303 890 q 161 944 247 944 l 164 972 l 381 972 l 896 207 m 872 1268 l 904 1268 l 711 1036 l 642 1036 l 518 1268 l 549 1268 l 689 1124 l 872 1268 z "},"ň":{"ha":708,"x_min":111,"x_max":750,"o":"m 310 542 l 285 383 q 440 597 360 513 q 589 681 521 681 q 683 513 707 681 l 625 103 q 631 65 621 79 q 669 56 642 51 q 735 92 697 61 l 750 69 q 671 7 713 28 q 603 -14 629 -14 q 542 19 565 -14 q 528 118 518 51 l 578 478 q 581 581 589 547 q 542 614 572 614 q 413 514 497 614 q 278 315 329 414 l 233 0 l 143 -12 q 131 0 131 -12 l 210 551 q 211 588 214 571 q 201 617 208 606 q 175 624 194 628 q 126 596 156 619 l 111 618 q 235 674 183 674 q 297 640 272 674 q 310 542 321 607 m 621 963 l 653 963 l 460 731 l 390 731 l 267 963 l 297 963 l 438 818 l 621 963 z "},"Ŋ":{"ha":1075,"x_min":49,"x_max":1172,"o":"m 896 207 l 982 817 q 969 919 992 893 q 874 944 947 944 l 876 972 l 1172 972 l 1169 944 q 1072 917 1101 944 q 1033 817 1043 889 l 924 43 q 888 -88 914 -29 q 820 -193 861 -147 q 744 -267 779 -239 q 660 -329 710 -294 l 649 -310 q 817 18 785 -211 l 826 93 l 339 804 l 249 156 q 261 51 238 75 q 379 28 285 28 l 375 0 l 49 0 l 53 28 q 160 51 132 28 q 199 156 188 75 l 292 817 q 274 917 301 890 q 161 944 247 944 l 164 972 l 381 972 l 896 207 z "},"ŋ":{"ha":721,"x_min":111,"x_max":707,"o":"m 310 542 l 285 383 q 440 597 360 513 q 589 681 521 681 q 683 513 707 681 l 617 43 q 558 -128 604 -51 q 468 -244 513 -204 q 356 -329 424 -283 l 344 -310 q 514 18 482 -210 l 578 478 q 581 581 589 547 q 542 614 572 614 q 413 514 497 614 q 278 315 329 414 l 233 0 l 143 -12 q 131 0 131 -12 l 210 551 q 211 588 214 571 q 201 617 208 606 q 175 624 194 628 q 126 596 156 619 l 111 618 q 235 674 183 674 q 297 640 272 674 q 310 542 321 607 z "},"Ō":{"ha":1022,"x_min":125,"x_max":1036,"o":"m 511 -14 q 231 108 338 -14 q 125 417 125 231 q 280 819 125 651 q 651 986 435 986 q 930 864 824 986 q 1036 556 1036 742 q 882 153 1036 321 q 511 -14 728 -14 m 518 35 q 797 191 674 35 q 921 556 921 347 q 843 827 921 717 q 644 938 765 938 q 363 781 486 938 q 240 417 240 625 q 318 144 240 254 q 518 35 396 35 m 864 1168 l 854 1096 l 456 1096 l 465 1168 l 864 1168 z "},"ō":{"ha":625,"x_min":111,"x_max":667,"o":"m 442 681 q 607 599 547 681 q 667 392 667 517 q 570 106 667 225 q 335 -14 474 -14 q 170 67 229 -14 q 111 274 111 147 q 207 561 111 442 q 442 681 303 681 m 346 26 q 453 65 408 26 q 522 167 499 104 q 554 294 544 231 q 564 424 564 357 q 432 640 564 640 q 324 602 369 640 q 256 500 278 564 q 224 373 233 436 q 214 243 214 310 q 346 26 214 26 m 660 863 l 650 790 l 251 790 l 261 863 l 660 863 z "},"Ŏ":{"ha":1022,"x_min":125,"x_max":1036,"o":"m 511 -14 q 231 108 338 -14 q 125 417 125 231 q 280 819 125 651 q 651 986 435 986 q 930 864 824 986 q 1036 556 1036 742 q 882 153 1036 321 q 511 -14 728 -14 m 518 35 q 797 191 674 35 q 921 556 921 347 q 843 827 921 717 q 644 938 765 938 q 363 781 486 938 q 240 417 240 625 q 318 144 240 254 q 518 35 396 35 m 500 1257 l 532 1257 q 572 1172 535 1207 q 665 1136 608 1136 q 767 1172 721 1136 q 829 1257 813 1207 l 861 1257 q 788 1110 850 1174 q 653 1046 725 1046 q 542 1105 585 1046 q 500 1257 500 1164 z "},"ŏ":{"ha":625,"x_min":111,"x_max":667,"o":"m 442 681 q 607 599 547 681 q 667 392 667 517 q 570 106 667 225 q 335 -14 474 -14 q 170 67 229 -14 q 111 274 111 147 q 207 561 111 442 q 442 681 303 681 m 346 26 q 453 65 408 26 q 522 167 499 104 q 554 294 544 231 q 564 424 564 357 q 432 640 564 640 q 324 602 369 640 q 256 500 278 564 q 224 373 233 436 q 214 243 214 310 q 346 26 214 26 m 269 951 l 301 951 q 341 866 304 901 q 435 831 378 831 q 536 866 490 831 q 599 951 582 901 l 631 951 q 557 804 619 868 q 422 740 494 740 q 312 799 354 740 q 269 951 269 858 z "},"Ő":{"ha":1022,"x_min":125,"x_max":1036,"o":"m 511 -14 q 231 108 338 -14 q 125 417 125 231 q 280 819 125 651 q 651 986 435 986 q 930 864 824 986 q 1036 556 1036 742 q 882 153 1036 321 q 511 -14 728 -14 m 518 35 q 797 191 674 35 q 921 556 921 347 q 843 827 921 717 q 644 938 765 938 q 363 781 486 938 q 240 417 240 625 q 318 144 240 254 q 518 35 396 35 m 733 1278 l 518 1036 l 492 1036 l 617 1264 q 681 1287 647 1283 q 733 1278 714 1290 m 899 1278 l 683 1036 l 657 1036 l 782 1264 q 899 1278 847 1306 z "},"ő":{"ha":625,"x_min":111,"x_max":681,"o":"m 442 681 q 607 599 547 681 q 667 392 667 517 q 570 106 667 225 q 335 -14 474 -14 q 170 67 229 -14 q 111 274 111 147 q 207 561 111 442 q 442 681 303 681 m 346 26 q 453 65 408 26 q 522 167 499 104 q 554 294 544 231 q 564 424 564 357 q 432 640 564 640 q 324 602 369 640 q 256 500 278 564 q 224 373 233 436 q 214 243 214 310 q 346 26 214 26 m 515 972 l 300 731 l 274 731 l 399 958 q 463 981 429 978 q 515 972 496 985 m 681 972 l 465 731 l 439 731 l 564 958 q 681 972 629 1000 z "},"Œ":{"ha":1308,"x_min":125,"x_max":1371,"o":"m 849 935 l 854 972 l 1371 972 l 1349 774 l 1324 774 q 1319 847 1324 821 q 1308 891 1315 874 q 1278 915 1300 908 q 1234 924 1256 922 q 1165 926 1213 926 l 953 926 l 897 532 l 1081 532 q 1172 552 1151 532 q 1204 654 1193 572 l 1231 654 l 1189 360 l 1163 360 q 1160 465 1175 443 q 1074 486 1144 486 l 890 486 l 846 164 q 858 74 836 101 q 946 47 879 47 l 1104 47 q 1219 80 1179 47 q 1290 221 1260 113 l 1315 221 l 1272 0 l 846 0 q 743 47 764 0 q 511 -14 633 -14 q 231 108 338 -14 q 125 417 125 231 q 280 819 125 651 q 651 986 435 986 q 849 935 760 986 m 644 938 q 363 781 486 938 q 240 417 240 625 q 318 144 240 254 q 518 35 396 35 q 740 131 636 35 l 836 842 q 644 938 758 938 z "},"œ":{"ha":1004,"x_min":111,"x_max":1060,"o":"m 442 681 q 640 539 582 681 q 757 643 689 606 q 892 681 825 681 q 1008 648 957 681 q 1060 544 1060 615 q 1019 433 1060 475 q 919 379 979 390 q 794 376 860 368 q 675 408 729 383 q 660 268 660 329 q 708 109 660 164 q 833 58 756 54 q 999 121 911 61 l 1008 96 q 748 -10 864 -21 q 583 122 632 1 q 335 -14 483 -14 q 170 67 229 -14 q 111 274 111 147 q 207 561 111 442 q 442 681 303 681 m 346 26 q 453 65 408 26 q 522 167 499 104 q 554 294 544 231 q 564 424 564 357 q 432 640 564 640 q 324 602 369 640 q 256 500 278 564 q 224 373 233 436 q 214 243 214 310 q 346 26 214 26 m 886 640 q 759 583 810 640 q 683 438 708 526 q 776 418 731 422 q 867 423 822 414 q 938 468 911 432 q 965 565 965 504 q 886 640 965 640 z "},"Ŕ":{"ha":829,"x_min":49,"x_max":899,"o":"m 817 758 q 727 563 817 653 q 501 431 638 472 q 551 286 517 353 q 622 178 585 219 q 699 108 660 138 q 765 66 738 78 q 807 54 793 54 q 883 92 836 54 l 899 69 q 819 7 861 28 q 751 -14 778 -14 q 683 -1 721 -14 q 603 44 646 13 q 523 121 560 75 q 458 240 486 167 q 424 403 431 314 l 335 403 l 300 156 q 313 53 289 79 q 433 28 338 28 l 429 0 l 49 0 l 53 28 q 159 53 133 28 q 196 156 185 78 l 289 817 q 283 919 300 893 q 182 944 267 944 l 185 972 l 483 972 q 736 913 656 972 q 817 758 817 854 m 408 926 l 340 444 l 418 444 q 628 563 556 485 q 701 749 701 642 q 640 879 701 832 q 453 926 578 926 l 408 926 m 631 1278 l 415 1036 l 389 1036 l 514 1264 q 578 1287 544 1283 q 631 1278 611 1290 z "},"ŕ":{"ha":467,"x_min":111,"x_max":578,"o":"m 310 542 l 282 375 q 333 490 304 435 q 398 594 363 544 q 474 667 433 643 q 553 678 515 690 q 563 671 557 676 q 574 654 569 665 q 576 628 578 643 q 560 591 575 614 q 517 543 546 568 q 278 315 411 632 l 233 0 l 143 -12 q 131 0 131 -12 l 210 551 q 211 588 214 571 q 201 617 208 606 q 175 624 194 628 q 126 596 156 619 l 111 618 q 235 674 183 674 q 297 640 272 674 q 310 542 321 607 m 457 972 l 242 731 l 215 731 l 340 958 q 404 981 371 978 q 457 972 438 985 z "},"Ŗ":{"ha":829,"x_min":49,"x_max":899,"o":"m 817 758 q 727 563 817 653 q 501 431 638 472 q 551 286 517 353 q 622 178 585 219 q 699 108 660 138 q 765 66 738 78 q 807 54 793 54 q 883 92 836 54 l 899 69 q 819 7 861 28 q 751 -14 778 -14 q 683 -1 721 -14 q 603 44 646 13 q 523 121 560 75 q 458 240 486 167 q 424 403 431 314 l 335 403 l 300 156 q 313 53 289 79 q 433 28 338 28 l 429 0 l 49 0 l 53 28 q 159 53 133 28 q 196 156 185 78 l 289 817 q 283 919 300 893 q 182 944 267 944 l 185 972 l 483 972 q 736 913 656 972 q 817 758 817 854 m 408 926 l 340 444 l 418 444 q 628 563 556 485 q 701 749 701 642 q 640 879 701 832 q 453 926 578 926 l 408 926 m 344 -400 l 326 -376 q 413 -254 386 -328 q 347 -169 372 -217 q 436 -86 385 -126 q 503 -169 474 -122 q 344 -400 485 -300 z "},"ŗ":{"ha":467,"x_min":74,"x_max":578,"o":"m 310 542 l 282 375 q 333 490 304 435 q 398 594 363 544 q 474 667 433 643 q 553 678 515 690 q 563 671 557 676 q 574 654 569 665 q 576 628 578 643 q 560 591 575 614 q 517 543 546 568 q 278 315 411 632 l 233 0 l 143 -12 q 131 0 131 -12 l 210 551 q 211 588 214 571 q 201 617 208 606 q 175 624 194 628 q 126 596 156 619 l 111 618 q 235 674 183 674 q 297 640 272 674 q 310 542 321 607 m 92 -400 l 74 -376 q 160 -254 133 -328 q 94 -169 119 -217 q 183 -86 132 -126 q 250 -169 221 -122 q 92 -400 232 -300 z "},"Ř":{"ha":829,"x_min":49,"x_max":899,"o":"m 817 758 q 727 563 817 653 q 501 431 638 472 q 551 286 517 353 q 622 178 585 219 q 699 108 660 138 q 765 66 738 78 q 807 54 793 54 q 883 92 836 54 l 899 69 q 819 7 861 28 q 751 -14 778 -14 q 683 -1 721 -14 q 603 44 646 13 q 523 121 560 75 q 458 240 486 167 q 424 403 431 314 l 335 403 l 300 156 q 313 53 289 79 q 433 28 338 28 l 429 0 l 49 0 l 53 28 q 159 53 133 28 q 196 156 185 78 l 289 817 q 283 919 300 893 q 182 944 267 944 l 185 972 l 483 972 q 736 913 656 972 q 817 758 817 854 m 408 926 l 340 444 l 418 444 q 628 563 556 485 q 701 749 701 642 q 640 879 701 832 q 453 926 578 926 l 408 926 m 681 1268 l 713 1268 l 519 1036 l 450 1036 l 326 1268 l 357 1268 l 497 1124 l 681 1268 z "},"ř":{"ha":467,"x_min":111,"x_max":578,"o":"m 310 542 l 282 375 q 333 490 304 435 q 398 594 363 544 q 474 667 433 643 q 553 678 515 690 q 563 671 557 676 q 574 654 569 665 q 576 628 578 643 q 560 591 575 614 q 517 543 546 568 q 278 315 411 632 l 233 0 l 143 -12 q 131 0 131 -12 l 210 551 q 211 588 214 571 q 201 617 208 606 q 175 624 194 628 q 126 596 156 619 l 111 618 q 235 674 183 674 q 297 640 272 674 q 310 542 321 607 m 508 963 l 540 963 l 347 731 l 278 731 l 154 963 l 185 963 l 325 818 l 508 963 z "},"Ś":{"ha":653,"x_min":76,"x_max":682,"o":"m 682 940 l 649 772 l 624 772 q 595 897 636 851 q 489 943 554 943 q 349 890 411 943 q 286 743 286 836 q 312 658 286 697 q 375 590 338 618 q 458 529 413 563 q 540 464 503 496 q 603 384 578 432 q 629 279 629 336 q 541 67 629 150 q 308 -17 453 -17 q 76 57 174 -17 l 108 242 l 135 242 q 177 72 128 118 q 314 26 226 26 q 461 86 408 26 q 514 225 514 146 q 478 331 514 282 q 393 418 443 381 q 293 494 343 456 q 208 587 243 532 q 172 708 172 642 q 269 917 172 849 q 501 986 367 986 q 682 940 614 986 m 629 1278 l 414 1036 l 388 1036 l 513 1264 q 576 1287 543 1283 q 629 1278 610 1290 z "},"ś":{"ha":515,"x_min":97,"x_max":557,"o":"m 275 -14 q 151 23 206 -14 q 97 135 97 60 q 134 176 97 156 q 199 185 171 196 q 187 72 168 117 q 276 26 206 26 q 382 63 344 26 q 419 144 419 99 q 381 243 419 194 q 296 324 342 292 q 211 403 250 357 q 172 497 172 450 q 238 633 172 586 q 393 681 303 681 q 509 642 461 681 q 557 536 557 604 q 522 497 557 517 q 460 489 488 478 q 468 594 486 549 q 393 640 450 640 q 311 607 347 640 q 275 525 275 574 q 315 446 275 488 q 401 372 354 404 q 487 289 447 339 q 526 186 526 239 q 501 93 526 133 q 438 31 476 53 q 357 -3 399 8 q 275 -14 315 -14 m 540 972 l 325 731 l 299 731 l 424 958 q 488 981 454 978 q 540 972 521 985 z "},"Ŝ":{"ha":653,"x_min":76,"x_max":682,"o":"m 682 940 l 649 772 l 624 772 q 595 897 636 851 q 489 943 554 943 q 349 890 411 943 q 286 743 286 836 q 312 658 286 697 q 375 590 338 618 q 458 529 413 563 q 540 464 503 496 q 603 384 578 432 q 629 279 629 336 q 541 67 629 150 q 308 -17 453 -17 q 76 57 174 -17 l 108 242 l 135 242 q 177 72 128 118 q 314 26 226 26 q 461 86 408 26 q 514 225 514 146 q 478 331 514 282 q 393 418 443 381 q 293 494 343 456 q 208 587 243 532 q 172 708 172 642 q 269 917 172 849 q 501 986 367 986 q 682 940 614 986 m 647 1036 l 615 1036 l 474 1181 l 292 1036 l 261 1036 l 451 1268 l 521 1268 l 647 1036 z "},"ŝ":{"ha":515,"x_min":97,"x_max":578,"o":"m 275 -14 q 151 23 206 -14 q 97 135 97 60 q 134 176 97 156 q 199 185 171 196 q 187 72 168 117 q 276 26 206 26 q 382 63 344 26 q 419 144 419 99 q 381 243 419 194 q 296 324 342 292 q 211 403 250 357 q 172 497 172 450 q 238 633 172 586 q 393 681 303 681 q 509 642 461 681 q 557 536 557 604 q 522 497 557 517 q 460 489 488 478 q 468 594 486 549 q 393 640 450 640 q 311 607 347 640 q 275 525 275 574 q 315 446 275 488 q 401 372 354 404 q 487 289 447 339 q 526 186 526 239 q 501 93 526 133 q 438 31 476 53 q 357 -3 399 8 q 275 -14 315 -14 m 578 731 l 546 731 l 404 875 l 222 731 l 192 731 l 382 963 l 451 963 l 578 731 z "},"Ş":{"ha":653,"x_min":76,"x_max":682,"o":"m 682 940 l 649 772 l 624 772 q 595 897 636 851 q 489 943 554 943 q 349 890 411 943 q 286 743 286 836 q 312 658 286 697 q 375 590 338 618 q 458 529 413 563 q 540 464 503 496 q 603 384 578 432 q 629 279 629 336 q 547 73 629 156 q 329 -17 464 -10 l 324 -47 q 338 -76 321 -65 q 378 -92 356 -87 q 421 -114 401 -97 q 440 -160 440 -131 q 365 -256 440 -217 q 214 -290 289 -296 l 213 -257 q 360 -175 360 -257 q 346 -137 360 -150 q 317 -122 332 -124 q 292 -106 301 -119 q 288 -64 282 -92 l 296 -17 q 76 57 168 -14 l 108 242 l 135 242 q 177 72 128 118 q 314 26 226 26 q 461 86 408 26 q 514 225 514 146 q 478 331 514 282 q 393 418 443 381 q 293 494 343 456 q 208 587 243 532 q 172 708 172 642 q 269 917 172 849 q 501 986 367 986 q 682 940 614 986 z "},"ş":{"ha":515,"x_min":97,"x_max":557,"o":"m 97 135 q 134 176 97 156 q 199 185 171 196 q 187 72 168 117 q 276 26 206 26 q 382 63 344 26 q 419 144 419 99 q 381 243 419 194 q 296 324 342 292 q 211 403 250 357 q 172 497 172 450 q 238 633 172 586 q 393 681 303 681 q 509 642 461 681 q 557 536 557 604 q 522 497 557 517 q 460 489 488 478 q 468 594 486 549 q 393 640 450 640 q 311 607 347 640 q 275 525 275 574 q 315 446 275 488 q 401 372 354 404 q 487 289 447 339 q 526 186 526 239 q 456 44 526 93 q 296 -12 385 -6 l 290 -47 q 305 -76 288 -65 q 345 -92 322 -87 q 388 -114 368 -97 q 407 -160 407 -131 q 331 -256 407 -217 q 181 -290 256 -296 l 179 -257 q 326 -175 326 -257 q 313 -137 326 -150 q 283 -122 299 -124 q 258 -106 268 -119 q 254 -64 249 -92 l 264 -14 q 147 26 197 -10 q 97 135 97 63 z "},"Š":{"ha":653,"x_min":76,"x_max":682,"o":"m 682 940 l 649 772 l 624 772 q 595 897 636 851 q 489 943 554 943 q 349 890 411 943 q 286 743 286 836 q 312 658 286 697 q 375 590 338 618 q 458 529 413 563 q 540 464 503 496 q 603 384 578 432 q 629 279 629 336 q 541 67 629 150 q 308 -17 453 -17 q 76 57 174 -17 l 108 242 l 135 242 q 177 72 128 118 q 314 26 226 26 q 461 86 408 26 q 514 225 514 146 q 478 331 514 282 q 393 418 443 381 q 293 494 343 456 q 208 587 243 532 q 172 708 172 642 q 269 917 172 849 q 501 986 367 986 q 682 940 614 986 m 640 1268 l 672 1268 l 479 1036 l 410 1036 l 286 1268 l 317 1268 l 457 1124 l 640 1268 z "},"š":{"ha":515,"x_min":97,"x_max":610,"o":"m 275 -14 q 151 23 206 -14 q 97 135 97 60 q 134 176 97 156 q 199 185 171 196 q 187 72 168 117 q 276 26 206 26 q 382 63 344 26 q 419 144 419 99 q 381 243 419 194 q 296 324 342 292 q 211 403 250 357 q 172 497 172 450 q 238 633 172 586 q 393 681 303 681 q 509 642 461 681 q 557 536 557 604 q 522 497 557 517 q 460 489 488 478 q 468 594 486 549 q 393 640 450 640 q 311 607 347 640 q 275 525 275 574 q 315 446 275 488 q 401 372 354 404 q 487 289 447 339 q 526 186 526 239 q 501 93 526 133 q 438 31 476 53 q 357 -3 399 8 q 275 -14 315 -14 m 578 963 l 610 963 l 417 731 l 347 731 l 224 963 l 254 963 l 394 818 l 578 963 z "},"Ţ":{"ha":882,"x_min":139,"x_max":972,"o":"m 172 972 l 972 972 l 951 774 l 925 774 q 921 861 925 832 q 896 906 917 890 q 851 924 875 921 q 768 926 826 926 l 619 926 l 511 156 q 524 53 500 79 q 643 28 549 28 l 639 0 l 233 0 l 238 28 q 364 53 333 28 q 406 156 394 79 l 514 926 l 367 926 q 283 924 308 926 q 231 906 257 921 q 193 861 206 890 q 164 774 181 832 l 139 774 l 172 972 m 335 -400 l 317 -376 q 403 -254 376 -328 q 338 -169 363 -217 q 426 -86 375 -126 q 493 -169 464 -122 q 335 -400 475 -300 z "},"ţ":{"ha":431,"x_min":126,"x_max":500,"o":"m 358 829 l 335 667 l 500 667 l 494 621 l 329 621 l 272 213 q 303 48 254 83 q 436 92 351 13 l 451 69 q 283 -14 375 -14 q 208 10 236 -14 q 172 72 179 35 q 165 135 165 110 q 168 183 165 161 l 229 621 l 153 621 l 158 660 q 274 711 226 660 q 346 829 321 763 l 358 829 m 144 -400 l 126 -376 q 213 -254 186 -328 q 147 -169 172 -217 q 236 -86 185 -126 q 303 -169 274 -122 q 144 -400 285 -300 z "},"Ť":{"ha":882,"x_min":139,"x_max":972,"o":"m 172 972 l 972 972 l 951 774 l 925 774 q 921 861 925 832 q 896 906 917 890 q 851 924 875 921 q 768 926 826 926 l 619 926 l 511 156 q 524 53 500 79 q 643 28 549 28 l 639 0 l 233 0 l 238 28 q 364 53 333 28 q 406 156 394 79 l 514 926 l 367 926 q 283 924 308 926 q 231 906 257 921 q 193 861 206 890 q 164 774 181 832 l 139 774 l 172 972 m 778 1268 l 810 1268 l 617 1036 l 547 1036 l 424 1268 l 454 1268 l 594 1124 l 778 1268 z "},"ť":{"ha":431,"x_min":153,"x_max":569,"o":"m 358 829 l 335 667 l 500 667 l 494 621 l 329 621 l 272 213 q 303 48 254 83 q 436 92 351 13 l 451 69 q 283 -14 375 -14 q 208 10 236 -14 q 172 72 179 35 q 165 135 165 110 q 168 183 165 161 l 229 621 l 153 621 l 158 660 q 274 711 226 660 q 346 829 321 763 l 358 829 m 507 696 l 460 696 l 479 988 l 569 988 l 507 696 z "},"Ŧ":{"ha":882,"x_min":139,"x_max":972,"o":"m 299 463 l 304 508 l 454 508 l 514 926 l 367 926 q 283 924 308 926 q 231 906 257 921 q 193 861 206 890 q 164 774 181 832 l 139 774 l 172 972 l 972 972 l 951 774 l 925 774 q 921 861 925 832 q 896 906 917 890 q 851 924 875 921 q 768 926 826 926 l 619 926 l 560 508 l 710 508 l 704 463 l 554 463 l 511 156 q 524 53 500 79 q 643 28 549 28 l 639 0 l 233 0 l 238 28 q 364 53 333 28 q 406 156 394 79 l 449 463 l 299 463 z "},"ŧ":{"ha":431,"x_min":118,"x_max":500,"o":"m 358 829 l 335 667 l 500 667 l 494 621 l 329 621 l 300 417 l 388 417 l 382 371 l 294 371 l 272 213 q 303 48 254 83 q 436 92 351 13 l 451 69 q 283 -14 375 -14 q 208 10 236 -14 q 172 72 179 35 q 165 135 165 110 q 168 183 165 161 l 194 371 l 118 371 l 124 417 l 200 417 l 229 621 l 153 621 l 158 660 q 274 711 226 660 q 346 829 321 763 l 358 829 z "},"Ũ":{"ha":967,"x_min":167,"x_max":1092,"o":"m 957 817 l 892 351 q 856 209 881 271 q 789 94 832 147 q 673 14 746 42 q 500 -14 600 -14 q 344 16 408 -14 q 251 98 281 46 q 212 219 222 150 q 215 365 201 288 l 279 817 q 270 918 289 892 q 167 944 251 944 l 169 972 l 525 972 l 522 944 q 418 919 440 944 q 385 817 396 893 l 328 413 q 535 39 275 39 q 839 347 794 39 l 906 817 q 893 917 915 889 q 783 944 871 944 l 786 972 l 1092 972 l 1089 944 q 992 917 1018 944 q 957 817 967 890 m 488 1079 l 469 1094 q 608 1204 543 1204 q 706 1182 644 1204 q 800 1160 768 1160 q 876 1206 839 1160 l 894 1190 q 756 1081 821 1081 q 658 1103 719 1081 q 564 1125 596 1125 q 488 1079 525 1125 z "},"ũ":{"ha":697,"x_min":111,"x_max":739,"o":"m 310 542 l 260 189 q 257 86 249 119 q 296 53 265 53 q 417 151 340 53 q 549 351 494 249 l 593 667 l 683 679 q 696 667 696 679 l 614 103 q 620 65 610 79 q 658 56 631 51 q 724 92 686 61 l 739 69 q 660 7 701 28 q 592 -14 618 -14 q 531 19 554 -14 q 517 118 507 51 l 542 283 q 249 -14 368 -14 q 154 154 131 -14 l 210 551 q 211 588 214 571 q 201 617 208 606 q 175 624 194 628 q 126 596 156 619 l 111 618 q 235 674 183 674 q 296 641 272 674 q 310 542 319 608 m 294 774 l 276 789 q 415 899 350 899 q 513 876 451 899 q 607 854 575 854 q 683 900 646 854 l 701 885 q 563 775 628 775 q 465 797 526 775 q 371 819 403 819 q 294 774 332 819 z "},"Ū":{"ha":967,"x_min":167,"x_max":1092,"o":"m 957 817 l 892 351 q 856 209 881 271 q 789 94 832 147 q 673 14 746 42 q 500 -14 600 -14 q 344 16 408 -14 q 251 98 281 46 q 212 219 222 150 q 215 365 201 288 l 279 817 q 270 918 289 892 q 167 944 251 944 l 169 972 l 525 972 l 522 944 q 418 919 440 944 q 385 817 396 893 l 328 413 q 535 39 275 39 q 839 347 794 39 l 906 817 q 893 917 915 889 q 783 944 871 944 l 786 972 l 1092 972 l 1089 944 q 992 917 1018 944 q 957 817 967 890 m 886 1168 l 876 1096 l 478 1096 l 488 1168 l 886 1168 z "},"ū":{"ha":697,"x_min":111,"x_max":739,"o":"m 310 542 l 260 189 q 257 86 249 119 q 296 53 265 53 q 417 151 340 53 q 549 351 494 249 l 593 667 l 683 679 q 696 667 696 679 l 614 103 q 620 65 610 79 q 658 56 631 51 q 724 92 686 61 l 739 69 q 660 7 701 28 q 592 -14 618 -14 q 531 19 554 -14 q 517 118 507 51 l 542 283 q 249 -14 368 -14 q 154 154 131 -14 l 210 551 q 211 588 214 571 q 201 617 208 606 q 175 624 194 628 q 126 596 156 619 l 111 618 q 235 674 183 674 q 296 641 272 674 q 310 542 319 608 m 682 863 l 672 790 l 274 790 l 283 863 l 682 863 z "},"Ŭ":{"ha":967,"x_min":167,"x_max":1092,"o":"m 957 817 l 892 351 q 856 209 881 271 q 789 94 832 147 q 673 14 746 42 q 500 -14 600 -14 q 344 16 408 -14 q 251 98 281 46 q 212 219 222 150 q 215 365 201 288 l 279 817 q 270 918 289 892 q 167 944 251 944 l 169 972 l 525 972 l 522 944 q 418 919 440 944 q 385 817 396 893 l 328 413 q 535 39 275 39 q 839 347 794 39 l 906 817 q 893 917 915 889 q 783 944 871 944 l 786 972 l 1092 972 l 1089 944 q 992 917 1018 944 q 957 817 967 890 m 501 1257 l 533 1257 q 573 1172 536 1207 q 667 1136 610 1136 q 768 1172 722 1136 q 831 1257 814 1207 l 863 1257 q 789 1110 851 1174 q 654 1046 726 1046 q 544 1105 586 1046 q 501 1257 501 1164 z "},"ŭ":{"ha":697,"x_min":111,"x_max":739,"o":"m 310 542 l 260 189 q 257 86 249 119 q 296 53 265 53 q 417 151 340 53 q 549 351 494 249 l 593 667 l 683 679 q 696 667 696 679 l 614 103 q 620 65 610 79 q 658 56 631 51 q 724 92 686 61 l 739 69 q 660 7 701 28 q 592 -14 618 -14 q 531 19 554 -14 q 517 118 507 51 l 542 283 q 249 -14 368 -14 q 154 154 131 -14 l 210 551 q 211 588 214 571 q 201 617 208 606 q 175 624 194 628 q 126 596 156 619 l 111 618 q 235 674 183 674 q 296 641 272 674 q 310 542 319 608 m 303 951 l 335 951 q 374 866 338 901 q 468 831 411 831 q 569 866 524 831 q 632 951 615 901 l 664 951 q 590 804 653 868 q 456 740 528 740 q 345 799 388 740 q 303 951 303 858 z "},"Ů":{"ha":967,"x_min":167,"x_max":1092,"o":"m 957 817 l 892 351 q 856 209 881 271 q 789 94 832 147 q 673 14 746 42 q 500 -14 600 -14 q 344 16 408 -14 q 251 98 281 46 q 212 219 222 150 q 215 365 201 288 l 279 817 q 270 918 289 892 q 167 944 251 944 l 169 972 l 525 972 l 522 944 q 418 919 440 944 q 385 817 396 893 l 328 413 q 535 39 275 39 q 839 347 794 39 l 906 817 q 893 917 915 889 q 783 944 871 944 l 786 972 l 1092 972 l 1089 944 q 992 917 1018 944 q 957 817 967 890 m 538 1136 q 583 1247 538 1200 q 688 1294 628 1294 q 767 1259 735 1294 q 799 1172 799 1224 q 753 1061 799 1108 q 647 1014 707 1014 q 568 1049 599 1014 q 538 1136 538 1085 m 589 1143 q 608 1090 589 1111 q 656 1069 626 1069 q 718 1098 690 1069 q 746 1164 746 1126 q 727 1217 746 1196 q 679 1239 708 1239 q 616 1210 643 1239 q 589 1143 589 1182 z "},"ů":{"ha":697,"x_min":111,"x_max":739,"o":"m 310 542 l 260 189 q 257 86 249 119 q 296 53 265 53 q 417 151 340 53 q 549 351 494 249 l 593 667 l 683 679 q 696 667 696 679 l 614 103 q 620 65 610 79 q 658 56 631 51 q 724 92 686 61 l 739 69 q 660 7 701 28 q 592 -14 618 -14 q 531 19 554 -14 q 517 118 507 51 l 542 283 q 249 -14 368 -14 q 154 154 131 -14 l 210 551 q 211 588 214 571 q 201 617 208 606 q 175 624 194 628 q 126 596 156 619 l 111 618 q 235 674 183 674 q 296 641 272 674 q 310 542 319 608 m 364 886 q 409 997 364 950 q 514 1044 454 1044 q 593 1009 561 1044 q 625 922 625 974 q 579 811 625 858 q 474 764 533 764 q 394 799 425 764 q 364 886 364 835 m 415 893 q 434 840 415 861 q 482 819 453 819 q 544 848 517 819 q 572 914 572 876 q 553 967 572 946 q 506 989 535 989 q 442 960 469 989 q 415 893 415 932 z "},"Ű":{"ha":967,"x_min":167,"x_max":1092,"o":"m 957 817 l 892 351 q 856 209 881 271 q 789 94 832 147 q 673 14 746 42 q 500 -14 600 -14 q 344 16 408 -14 q 251 98 281 46 q 212 219 222 150 q 215 365 201 288 l 279 817 q 270 918 289 892 q 167 944 251 944 l 169 972 l 525 972 l 522 944 q 418 919 440 944 q 385 817 396 893 l 328 413 q 535 39 275 39 q 839 347 794 39 l 906 817 q 893 917 915 889 q 783 944 871 944 l 786 972 l 1092 972 l 1089 944 q 992 917 1018 944 q 957 817 967 890 m 738 1278 l 522 1036 l 496 1036 l 621 1264 q 685 1287 651 1283 q 738 1278 718 1290 m 903 1278 l 688 1036 l 661 1036 l 786 1264 q 903 1278 851 1306 z "},"ű":{"ha":697,"x_min":111,"x_max":739,"o":"m 310 542 l 260 189 q 257 86 249 119 q 296 53 265 53 q 417 151 340 53 q 549 351 494 249 l 593 667 l 683 679 q 696 667 696 679 l 614 103 q 620 65 610 79 q 658 56 631 51 q 724 92 686 61 l 739 69 q 660 7 701 28 q 592 -14 618 -14 q 531 19 554 -14 q 517 118 507 51 l 542 283 q 249 -14 368 -14 q 154 154 131 -14 l 210 551 q 211 588 214 571 q 201 617 208 606 q 175 624 194 628 q 126 596 156 619 l 111 618 q 235 674 183 674 q 296 641 272 674 q 310 542 319 608 m 572 972 l 357 731 l 331 731 l 456 958 q 519 981 486 978 q 572 972 553 985 m 738 972 l 522 731 l 496 731 l 621 958 q 738 972 686 1000 z "},"Ų":{"ha":967,"x_min":167,"x_max":1092,"o":"m 957 817 l 892 351 q 806 115 871 207 q 606 -4 740 22 q 492 -187 485 -111 q 556 -240 497 -237 q 647 -218 596 -242 l 642 -260 q 507 -318 568 -318 q 434 -289 461 -318 q 407 -214 407 -260 q 544 -11 407 -103 q 500 -14 514 -14 q 344 16 408 -14 q 251 98 281 46 q 212 219 222 150 q 215 365 201 288 l 279 817 q 270 918 289 892 q 167 944 251 944 l 169 972 l 525 972 l 522 944 q 418 919 440 944 q 385 817 396 893 l 328 413 q 535 39 275 39 q 839 347 794 39 l 906 817 q 893 917 915 889 q 783 944 871 944 l 786 972 l 1092 972 l 1089 944 q 992 917 1018 944 q 957 817 967 890 z "},"ų":{"ha":697,"x_min":111,"x_max":739,"o":"m 310 542 l 260 189 q 257 86 249 119 q 296 53 265 53 q 417 151 340 53 q 549 351 494 249 l 593 667 l 683 679 q 696 667 696 679 l 614 103 q 620 65 610 79 q 658 56 631 51 q 724 92 686 61 l 739 69 q 642 -1 693 18 q 525 -186 518 -110 q 588 -240 529 -237 q 681 -218 628 -243 l 675 -260 q 540 -318 601 -318 q 467 -289 494 -318 q 440 -214 440 -260 q 578 -12 440 -103 q 526 26 544 -7 q 517 118 508 58 l 542 283 q 249 -14 368 -14 q 154 154 131 -14 l 210 551 q 211 588 214 571 q 201 617 208 606 q 175 624 194 628 q 126 596 156 619 l 111 618 q 235 674 183 674 q 296 641 272 674 q 310 542 319 608 z "},"Ŵ":{"ha":1331,"x_min":139,"x_max":1456,"o":"m 810 818 l 932 181 l 1222 818 q 1241 868 1236 849 q 1242 907 1246 888 q 1217 935 1239 926 q 1154 944 1196 944 l 1157 972 l 1456 972 l 1453 944 q 1365 922 1401 944 q 1314 878 1328 900 q 1282 818 1300 857 l 896 -7 l 860 -7 l 740 567 l 474 -7 l 436 -7 l 265 817 q 253 864 258 849 q 236 902 249 879 q 199 935 224 925 q 139 944 175 944 l 142 972 l 446 972 l 443 944 q 400 933 415 944 q 382 899 385 921 q 381 860 379 876 q 388 818 382 844 l 508 181 l 722 653 l 689 817 q 677 864 682 847 q 659 903 672 881 q 622 935 646 925 q 563 944 599 944 l 565 972 l 907 972 l 904 944 q 824 923 849 944 q 803 873 799 901 q 810 818 807 844 m 1019 1036 l 988 1036 l 846 1181 l 664 1036 l 633 1036 l 824 1268 l 893 1268 l 1019 1036 z "},"ŵ":{"ha":947,"x_min":83,"x_max":989,"o":"m 624 667 l 719 92 q 806 235 775 182 q 874 372 838 288 q 911 507 911 457 q 857 600 911 579 q 938 700 888 700 q 989 611 989 700 q 708 0 989 431 l 650 -12 q 638 0 638 -12 l 558 433 q 360 0 444 131 l 301 -12 q 289 0 289 -12 l 188 572 q 182 595 185 588 q 170 615 179 603 q 143 623 161 628 q 99 596 125 618 l 83 618 q 207 674 156 674 q 267 650 244 674 q 300 560 290 626 l 371 92 q 494 366 422 175 q 593 657 567 557 l 624 667 m 804 731 l 772 731 l 631 875 l 449 731 l 418 731 l 608 963 l 678 963 l 804 731 z "},"Ŷ":{"ha":858,"x_min":139,"x_max":983,"o":"m 385 835 l 518 474 l 753 842 q 697 944 819 944 l 700 972 l 983 972 l 981 944 q 878 917 918 944 q 797 825 839 890 l 536 417 l 500 156 q 516 52 489 76 q 632 28 543 28 l 628 0 l 222 0 l 226 28 q 349 52 314 28 q 394 156 383 76 l 431 417 l 263 844 q 224 921 238 908 q 139 944 200 944 l 142 972 l 471 972 l 468 944 q 381 919 400 944 q 385 835 363 894 m 772 1036 l 740 1036 l 599 1181 l 417 1036 l 386 1036 l 576 1268 l 646 1268 l 772 1036 z "},"ŷ":{"ha":603,"x_min":13,"x_max":644,"o":"m 328 -28 l 192 572 q 185 594 188 588 q 172 614 182 601 q 145 622 163 626 q 103 596 128 617 l 88 618 q 211 674 160 674 q 269 650 247 674 q 304 560 292 626 l 397 79 q 515 308 463 183 q 567 507 567 432 q 513 600 567 579 q 593 700 543 700 q 644 611 644 700 q 584 385 644 542 q 437 67 524 228 q 242 -215 350 -93 q 53 -337 135 -337 q 40 -335 47 -337 q 24 -322 32 -332 q 15 -299 17 -312 q 22 -260 13 -285 q 53 -204 31 -235 q 132 -218 107 -221 q 328 -28 225 -207 m 636 731 l 604 731 l 463 875 l 281 731 l 250 731 l 440 963 l 510 963 l 636 731 z "},"Ÿ":{"ha":858,"x_min":139,"x_max":983,"o":"m 385 835 l 518 474 l 753 842 q 697 944 819 944 l 700 972 l 983 972 l 981 944 q 878 917 918 944 q 797 825 839 890 l 536 417 l 500 156 q 516 52 489 76 q 632 28 543 28 l 628 0 l 222 0 l 226 28 q 349 52 314 28 q 394 156 383 76 l 431 417 l 263 844 q 224 921 238 908 q 139 944 200 944 l 142 972 l 471 972 l 468 944 q 381 919 400 944 q 385 835 363 894 m 461 1086 q 401 1163 429 1111 q 482 1238 443 1211 q 542 1163 515 1207 q 461 1086 510 1121 m 697 1086 q 638 1163 664 1114 q 718 1238 679 1211 q 778 1163 756 1204 q 697 1086 749 1124 z "},"Ź":{"ha":825,"x_min":49,"x_max":901,"o":"m 879 972 l 901 944 l 200 60 l 569 60 q 726 93 681 60 q 804 236 771 126 l 831 236 l 783 0 l 69 0 l 49 28 l 751 914 l 360 914 q 285 904 314 914 q 238 869 256 894 q 213 822 221 843 q 193 757 206 801 l 168 757 l 208 972 l 879 972 m 700 1278 l 485 1036 l 458 1036 l 583 1264 q 647 1287 614 1283 q 700 1278 681 1290 z "},"ź":{"ha":567,"x_min":83,"x_max":622,"o":"m 617 667 l 622 656 l 206 101 q 347 80 258 107 q 458 53 436 53 q 564 92 515 53 l 579 69 q 390 -18 499 -18 q 261 -3 367 -18 q 93 0 156 13 l 83 18 l 506 583 l 339 583 q 244 567 268 583 q 204 488 219 550 l 179 488 l 213 653 q 229 667 215 667 l 617 667 m 554 972 l 339 731 l 313 731 l 438 958 q 501 981 468 978 q 554 972 535 985 z "},"Ż":{"ha":825,"x_min":49,"x_max":901,"o":"m 879 972 l 901 944 l 200 60 l 569 60 q 726 93 681 60 q 804 236 771 126 l 831 236 l 783 0 l 69 0 l 49 28 l 751 914 l 360 914 q 285 904 314 914 q 238 869 256 894 q 213 822 221 843 q 193 757 206 801 l 168 757 l 208 972 l 879 972 m 549 1086 q 489 1163 517 1111 q 569 1238 531 1211 q 629 1163 603 1207 q 549 1086 597 1121 z "},"ż":{"ha":567,"x_min":83,"x_max":622,"o":"m 617 667 l 622 656 l 206 101 q 347 80 258 107 q 458 53 436 53 q 564 92 515 53 l 579 69 q 390 -18 499 -18 q 261 -3 367 -18 q 93 0 156 13 l 83 18 l 506 583 l 339 583 q 244 567 268 583 q 204 488 219 550 l 179 488 l 213 653 q 229 667 215 667 l 617 667 m 415 781 q 356 857 383 806 q 436 932 397 906 q 496 857 469 901 q 415 781 464 815 z "},"Ž":{"ha":825,"x_min":49,"x_max":901,"o":"m 879 972 l 901 944 l 200 60 l 569 60 q 726 93 681 60 q 804 236 771 126 l 831 236 l 783 0 l 69 0 l 49 28 l 751 914 l 360 914 q 285 904 314 914 q 238 869 256 894 q 213 822 221 843 q 193 757 206 801 l 168 757 l 208 972 l 879 972 m 735 1268 l 767 1268 l 574 1036 l 504 1036 l 381 1268 l 411 1268 l 551 1124 l 735 1268 z "},"ž":{"ha":567,"x_min":83,"x_max":638,"o":"m 617 667 l 622 656 l 206 101 q 347 80 258 107 q 458 53 436 53 q 564 92 515 53 l 579 69 q 390 -18 499 -18 q 261 -3 367 -18 q 93 0 156 13 l 83 18 l 506 583 l 339 583 q 244 567 268 583 q 204 488 219 550 l 179 488 l 213 653 q 229 667 215 667 l 617 667 m 606 963 l 638 963 l 444 731 l 375 731 l 251 963 l 282 963 l 422 818 l 606 963 z "},"ſ":{"ha":347,"x_min":39,"x_max":558,"o":"m 340 667 l 268 150 q 276 49 257 71 q 379 28 294 28 l 375 0 l 39 0 l 43 28 q 135 50 114 28 q 168 150 157 72 l 244 692 q 356 906 263 813 q 522 1000 449 1000 q 547 996 536 1000 q 557 963 558 992 q 519 885 556 935 q 509 895 518 886 q 494 908 500 904 q 480 919 489 913 q 463 929 471 926 q 446 932 454 932 q 340 667 379 932 z "},"ƒ":{"ha":549,"x_min":-160,"x_max":701,"o":"m 279 576 l 183 576 l 199 622 l 294 622 l 311 678 q 456 892 347 799 q 639 986 565 986 q 651 913 701 986 l 618 871 q 553 918 579 918 q 394 622 485 918 l 540 622 l 526 576 l 381 576 l 222 50 q 76 -165 185 -71 q -106 -258 -32 -258 q -125 -199 -160 -258 q -83 -143 -111 -175 q -19 -190 -44 -190 q 129 75 49 -190 l 279 576 z "},"Ǻ":{"ha":883,"x_min":14,"x_max":939,"o":"m 694 156 l 668 283 l 308 283 l 246 156 q 233 60 214 93 q 328 28 251 28 l 324 0 l 14 0 l 18 28 q 119 53 86 28 q 192 156 151 78 l 608 986 l 624 986 l 806 156 q 847 53 824 78 q 939 28 871 28 l 935 0 l 583 0 l 588 28 q 687 55 667 28 q 694 156 707 82 m 564 806 l 331 329 l 660 329 l 564 806 m 824 1418 l 661 1265 l 638 1265 l 721 1406 q 778 1426 747 1422 q 824 1418 808 1429 m 529 1110 q 563 1194 529 1158 q 643 1229 597 1229 q 703 1203 679 1229 q 726 1138 726 1176 q 692 1053 726 1089 q 614 1018 658 1018 q 553 1044 576 1018 q 529 1110 529 1071 m 575 1117 q 588 1081 575 1096 q 621 1067 601 1067 q 662 1086 643 1067 q 681 1131 681 1106 q 667 1165 681 1150 q 636 1179 654 1179 q 594 1160 613 1179 q 575 1117 575 1142 z "},"ǻ":{"ha":685,"x_min":111,"x_max":726,"o":"m 681 653 l 601 103 q 608 65 597 79 q 646 56 618 51 q 711 92 674 61 l 726 69 q 647 7 689 28 q 579 -14 606 -14 q 518 19 542 -14 q 504 118 494 51 l 529 283 q 380 65 447 143 q 246 -14 313 -14 q 149 57 188 -14 q 111 221 111 128 q 120 328 111 274 q 157 449 129 383 q 228 564 185 514 q 350 647 272 614 q 528 681 428 681 q 668 667 594 681 q 681 653 683 664 m 536 351 l 578 643 q 405 633 479 663 q 290 539 331 604 q 229 394 249 474 q 210 222 210 314 q 235 103 210 153 q 293 53 260 53 q 408 148 336 53 q 536 351 479 243 m 676 1128 l 514 975 l 490 975 l 574 1115 q 631 1135 600 1132 q 676 1128 661 1139 m 382 819 q 416 903 382 868 q 496 939 450 939 q 556 913 532 939 q 579 847 579 886 q 545 763 579 799 q 467 728 511 728 q 406 754 429 728 q 382 819 382 781 m 428 826 q 441 791 428 806 q 474 776 454 776 q 515 796 496 776 q 533 840 533 815 q 520 874 533 860 q 489 889 507 889 q 447 870 465 889 q 428 826 428 851 z "},"Ǽ":{"ha":1161,"x_min":14,"x_max":1224,"o":"m 1126 0 l 699 0 q 615 22 642 0 q 589 79 589 44 q 593 156 589 114 l 611 283 l 319 283 l 242 156 q 217 114 226 131 q 204 80 208 97 q 206 52 200 63 q 228 35 211 42 q 276 29 246 29 l 272 0 l 14 0 l 18 29 q 94 45 64 29 q 140 81 125 61 q 190 156 156 101 l 690 972 l 1224 972 l 1203 774 l 1176 774 q 1172 847 1176 821 q 1160 891 1168 874 q 1131 915 1153 908 q 1087 924 1108 922 q 1018 926 1065 926 l 807 926 l 751 532 l 933 532 q 1026 553 1004 532 q 1058 654 1047 574 l 1083 654 l 1042 360 l 1017 360 q 1013 465 1029 443 q 926 486 997 486 l 744 486 l 700 164 q 711 74 690 100 q 799 47 732 47 l 958 47 q 1074 80 1033 47 q 1143 221 1114 113 l 1169 221 l 1126 0 m 347 329 l 617 329 l 697 904 l 347 329 m 982 1278 l 767 1036 l 740 1036 l 865 1264 q 929 1287 896 1283 q 982 1278 963 1290 z "},"ǽ":{"ha":899,"x_min":111,"x_max":954,"o":"m 479 117 q 353 21 421 56 q 231 -14 285 -14 q 144 27 176 -14 q 111 136 111 68 q 140 219 111 186 q 230 268 168 253 q 326 288 292 283 q 435 296 360 292 q 441 297 439 296 q 447 297 443 297 q 453 297 450 297 q 485 519 454 331 q 413 642 501 642 q 304 589 340 642 q 275 485 268 536 q 210 457 235 460 q 179 463 185 454 q 174 485 174 472 q 270 619 174 558 q 457 681 367 681 q 589 600 576 681 q 786 681 678 681 q 903 648 851 681 q 954 544 954 615 q 914 433 954 475 q 814 379 874 390 q 689 376 754 368 q 569 408 624 383 q 554 268 554 342 q 602 109 554 164 q 728 58 650 54 q 893 121 806 61 l 903 96 q 645 -11 761 -21 q 479 117 529 -1 m 271 39 q 369 65 313 39 q 471 143 425 92 q 453 268 453 196 q 376 263 401 265 q 315 254 350 261 q 264 236 281 247 q 233 204 247 225 q 215 154 219 183 q 271 39 207 39 m 781 640 q 653 583 704 640 q 578 438 603 526 q 671 418 625 422 q 761 423 717 414 q 833 468 806 432 q 860 565 860 504 q 781 640 860 640 m 783 972 l 568 731 l 542 731 l 667 958 q 731 981 697 978 q 783 972 764 985 z "},"Ǿ":{"ha":1056,"x_min":125,"x_max":1069,"o":"m 154 -29 l 125 0 l 238 122 q 143 417 143 240 q 298 819 143 651 q 669 986 453 986 q 931 882 824 986 l 1040 1001 l 1069 972 l 958 850 q 1054 556 1054 731 q 900 153 1054 321 q 529 -14 746 -14 q 265 92 368 -14 l 154 -29 m 258 417 q 306 197 258 292 l 869 814 q 663 938 789 938 q 381 781 504 938 q 258 417 258 625 m 536 35 q 815 191 692 35 q 939 556 939 347 q 890 776 939 676 l 326 158 q 536 35 406 35 m 794 1278 l 579 1036 l 553 1036 l 678 1264 q 742 1287 708 1283 q 794 1278 775 1290 z "},"ǿ":{"ha":667,"x_min":100,"x_max":672,"o":"m 131 -26 l 100 0 l 163 79 q 113 274 113 156 q 208 561 113 442 q 443 681 304 681 q 586 624 529 681 l 642 693 l 672 667 l 614 592 q 668 392 668 514 q 572 106 668 225 q 336 -14 475 -14 q 188 47 244 -14 l 131 -26 m 347 26 q 450 63 406 26 q 519 157 494 100 q 557 281 544 214 q 569 410 569 347 q 556 518 568 472 l 235 108 q 347 26 267 26 m 433 640 q 330 604 375 640 q 260 513 285 568 q 224 392 236 458 q 212 264 211 325 q 222 156 213 203 l 542 565 q 433 640 507 640 m 604 972 l 389 731 l 363 731 l 488 958 q 551 981 518 978 q 604 972 585 985 z "},"Ș":{"ha":653,"x_min":76,"x_max":682,"o":"m 682 940 l 649 772 l 624 772 q 595 897 636 851 q 489 943 554 943 q 349 890 411 943 q 286 743 286 836 q 312 658 286 697 q 375 590 338 618 q 458 529 413 563 q 540 464 503 496 q 603 384 578 432 q 629 279 629 336 q 541 67 629 150 q 308 -17 453 -17 q 76 57 174 -17 l 108 242 l 135 242 q 177 72 128 118 q 314 26 226 26 q 461 86 408 26 q 514 225 514 146 q 478 331 514 282 q 393 418 443 381 q 293 494 343 456 q 208 587 243 532 q 172 708 172 642 q 269 917 172 849 q 501 986 367 986 q 682 940 614 986 m 256 -400 l 238 -376 q 324 -254 297 -328 q 258 -169 283 -217 q 347 -86 296 -126 q 414 -169 385 -122 q 256 -400 396 -300 z "},"ș":{"ha":515,"x_min":97,"x_max":557,"o":"m 275 -14 q 151 23 206 -14 q 97 135 97 60 q 134 176 97 156 q 199 185 171 196 q 187 72 168 117 q 276 26 206 26 q 382 63 344 26 q 419 144 419 99 q 381 243 419 194 q 296 324 342 292 q 211 403 250 357 q 172 497 172 450 q 238 633 172 586 q 393 681 303 681 q 509 642 461 681 q 557 536 557 604 q 522 497 557 517 q 460 489 488 478 q 468 594 486 549 q 393 640 450 640 q 311 607 347 640 q 275 525 275 574 q 315 446 275 488 q 401 372 354 404 q 487 289 447 339 q 526 186 526 239 q 501 93 526 133 q 438 31 476 53 q 357 -3 399 8 q 275 -14 315 -14 m 188 -400 l 169 -376 q 256 -254 229 -328 q 190 -169 215 -217 q 279 -86 228 -126 q 346 -169 317 -122 q 188 -400 328 -300 z "},"ˆ":{"ha":514,"x_min":163,"x_max":549,"o":"m 549 731 l 517 731 l 375 875 l 193 731 l 163 731 l 353 963 l 422 963 l 549 731 z "},"ˇ":{"ha":514,"x_min":196,"x_max":582,"o":"m 550 963 l 582 963 l 389 731 l 319 731 l 196 963 l 226 963 l 367 818 l 550 963 z "},"˘":{"ha":488,"x_min":192,"x_max":553,"o":"m 192 951 l 224 951 q 263 866 226 901 q 357 831 300 831 q 458 866 413 831 q 521 951 504 901 l 553 951 q 479 804 542 868 q 344 740 417 740 q 234 799 276 740 q 192 951 192 858 z "},"˙":{"ha":268,"x_min":181,"x_max":321,"o":"m 240 781 q 181 857 208 806 q 261 932 222 906 q 321 857 294 901 q 240 781 289 815 z "},"˚":{"ha":386,"x_min":186,"x_max":447,"o":"m 186 886 q 231 997 186 950 q 336 1044 276 1044 q 415 1009 383 1044 q 447 922 447 974 q 401 811 447 858 q 296 764 356 764 q 217 799 247 764 q 186 886 186 835 m 238 893 q 256 840 238 861 q 304 819 275 819 q 367 848 339 819 q 394 914 394 876 q 376 967 394 946 q 328 989 357 989 q 265 960 292 989 q 238 893 238 932 z "},"˛":{"ha":369,"x_min":35,"x_max":275,"o":"m 192 0 l 239 0 q 119 -186 115 -108 q 179 -240 124 -236 q 275 -218 221 -244 l 269 -260 q 135 -318 196 -318 q 62 -289 89 -318 q 35 -214 35 -260 q 192 0 35 -96 z "},"˜":{"ha":539,"x_min":171,"x_max":596,"o":"m 189 774 l 171 789 q 310 899 244 899 q 408 876 346 899 q 501 854 469 854 q 578 900 540 854 l 596 885 q 457 775 522 775 q 359 797 421 775 q 265 819 297 819 q 189 774 226 819 z "},"˝":{"ha":500,"x_min":163,"x_max":569,"o":"m 404 972 l 189 731 l 163 731 l 288 958 q 351 981 318 978 q 404 972 385 985 m 569 972 l 354 731 l 328 731 l 453 958 q 569 972 518 1000 z "},"̀":{"ha":335,"x_min":197,"x_max":369,"o":"m 343 828 l 197 1069 q 251 1078 218 1082 q 308 1056 285 1075 l 369 828 l 343 828 z "},"́":{"ha":335,"x_min":163,"x_max":404,"o":"m 404 1069 l 189 828 l 163 828 l 288 1056 q 351 1078 318 1075 q 404 1069 385 1082 z "},"̂":{"ha":514,"x_min":163,"x_max":549,"o":"m 549 828 l 517 828 l 375 972 l 193 828 l 163 828 l 353 1060 l 422 1060 l 549 828 z "},"̃":{"ha":539,"x_min":171,"x_max":596,"o":"m 189 871 l 171 886 q 310 996 244 996 q 408 974 346 996 q 501 951 469 951 q 578 997 540 951 l 596 982 q 457 872 522 872 q 359 894 421 872 q 265 917 297 917 q 189 871 226 917 z "},"̄":{"ha":526,"x_min":171,"x_max":579,"o":"m 579 960 l 569 888 l 171 888 l 181 960 l 579 960 z "},"̆":{"ha":488,"x_min":192,"x_max":553,"o":"m 192 1049 l 224 1049 q 263 963 226 999 q 357 928 300 928 q 458 963 413 928 q 521 1049 504 999 l 553 1049 q 479 901 542 965 q 344 838 417 838 q 234 897 276 838 q 192 1049 192 956 z "},"̇":{"ha":268,"x_min":181,"x_max":321,"o":"m 240 836 q 181 913 208 861 q 261 988 222 961 q 321 913 294 957 q 240 836 289 871 z "},"̈":{"ha":504,"x_min":181,"x_max":557,"o":"m 240 836 q 181 913 208 861 q 261 988 222 961 q 321 913 294 957 q 240 836 289 871 m 476 836 q 417 913 443 864 q 497 988 458 961 q 557 913 535 954 q 476 836 528 874 z "},"Δ":{"ha":817,"x_min":69,"x_max":747,"o":"m 747 0 l 69 0 l 531 865 l 747 0 m 196 83 l 643 83 l 500 653 l 196 83 z "},"∆":{"ha":817,"x_min":69,"x_max":747,"o":"m 747 0 l 69 0 l 531 865 l 747 0 m 196 83 l 643 83 l 500 653 l 196 83 z "},"π":{"ha":753,"x_min":49,"x_max":801,"o":"m 142 667 l 801 667 l 799 639 q 717 617 736 639 q 686 517 697 596 l 635 150 q 637 49 624 71 q 713 28 650 28 l 708 0 l 411 0 l 415 28 q 504 49 485 28 q 535 150 524 71 l 586 517 q 584 617 597 596 q 501 639 571 639 l 435 639 q 353 617 372 639 q 324 517 335 596 l 272 150 q 274 49 261 71 q 349 28 286 28 l 344 0 l 49 0 l 53 28 q 141 49 122 28 q 171 150 160 71 l 222 517 q 222 617 235 596 q 139 639 208 639 l 142 667 z "},"Ẁ":{"ha":1331,"x_min":139,"x_max":1456,"o":"m 810 818 l 932 181 l 1222 818 q 1241 868 1236 849 q 1242 907 1246 888 q 1217 935 1239 926 q 1154 944 1196 944 l 1157 972 l 1456 972 l 1453 944 q 1365 922 1401 944 q 1314 878 1328 900 q 1282 818 1300 857 l 896 -7 l 860 -7 l 740 567 l 474 -7 l 436 -7 l 265 817 q 253 864 258 849 q 236 902 249 879 q 199 935 224 925 q 139 944 175 944 l 142 972 l 446 972 l 443 944 q 400 933 415 944 q 382 899 385 921 q 381 860 379 876 q 388 818 382 844 l 508 181 l 722 653 l 689 817 q 677 864 682 847 q 659 903 672 881 q 622 935 646 925 q 563 944 599 944 l 565 972 l 907 972 l 904 944 q 824 923 849 944 q 803 873 799 901 q 810 818 807 844 m 804 1036 l 658 1278 q 713 1287 679 1290 q 769 1264 746 1283 l 831 1036 l 804 1036 z "},"ẁ":{"ha":947,"x_min":83,"x_max":989,"o":"m 624 667 l 719 92 q 806 235 775 182 q 874 372 838 288 q 911 507 911 457 q 857 600 911 579 q 938 700 888 700 q 989 611 989 700 q 708 0 989 431 l 650 -12 q 638 0 638 -12 l 558 433 q 360 0 444 131 l 301 -12 q 289 0 289 -12 l 188 572 q 182 595 185 588 q 170 615 179 603 q 143 623 161 628 q 99 596 125 618 l 83 618 q 207 674 156 674 q 267 650 244 674 q 300 560 290 626 l 371 92 q 494 366 422 175 q 593 657 567 557 l 624 667 m 618 731 l 472 972 q 526 981 493 985 q 583 958 560 978 l 644 731 l 618 731 z "},"Ẃ":{"ha":1331,"x_min":139,"x_max":1456,"o":"m 810 818 l 932 181 l 1222 818 q 1241 868 1236 849 q 1242 907 1246 888 q 1217 935 1239 926 q 1154 944 1196 944 l 1157 972 l 1456 972 l 1453 944 q 1365 922 1401 944 q 1314 878 1328 900 q 1282 818 1300 857 l 896 -7 l 860 -7 l 740 567 l 474 -7 l 436 -7 l 265 817 q 253 864 258 849 q 236 902 249 879 q 199 935 224 925 q 139 944 175 944 l 142 972 l 446 972 l 443 944 q 400 933 415 944 q 382 899 385 921 q 381 860 379 876 q 388 818 382 844 l 508 181 l 722 653 l 689 817 q 677 864 682 847 q 659 903 672 881 q 622 935 646 925 q 563 944 599 944 l 565 972 l 907 972 l 904 944 q 824 923 849 944 q 803 873 799 901 q 810 818 807 844 m 967 1278 l 751 1036 l 725 1036 l 850 1264 q 914 1287 881 1283 q 967 1278 947 1290 z "},"ẃ":{"ha":947,"x_min":83,"x_max":989,"o":"m 624 667 l 719 92 q 806 235 775 182 q 874 372 838 288 q 911 507 911 457 q 857 600 911 579 q 938 700 888 700 q 989 611 989 700 q 708 0 989 431 l 650 -12 q 638 0 638 -12 l 558 433 q 360 0 444 131 l 301 -12 q 289 0 289 -12 l 188 572 q 182 595 185 588 q 170 615 179 603 q 143 623 161 628 q 99 596 125 618 l 83 618 q 207 674 156 674 q 267 650 244 674 q 300 560 290 626 l 371 92 q 494 366 422 175 q 593 657 567 557 l 624 667 m 778 972 l 563 731 l 536 731 l 661 958 q 725 981 692 978 q 778 972 758 985 z "},"Ẅ":{"ha":1331,"x_min":139,"x_max":1456,"o":"m 810 818 l 932 181 l 1222 818 q 1241 868 1236 849 q 1242 907 1246 888 q 1217 935 1239 926 q 1154 944 1196 944 l 1157 972 l 1456 972 l 1453 944 q 1365 922 1401 944 q 1314 878 1328 900 q 1282 818 1300 857 l 896 -7 l 860 -7 l 740 567 l 474 -7 l 436 -7 l 265 817 q 253 864 258 849 q 236 902 249 879 q 199 935 224 925 q 139 944 175 944 l 142 972 l 446 972 l 443 944 q 400 933 415 944 q 382 899 385 921 q 381 860 379 876 q 388 818 382 844 l 508 181 l 722 653 l 689 817 q 677 864 682 847 q 659 903 672 881 q 622 935 646 925 q 563 944 599 944 l 565 972 l 907 972 l 904 944 q 824 923 849 944 q 803 873 799 901 q 810 818 807 844 m 694 1086 q 635 1163 663 1111 q 715 1238 676 1211 q 775 1163 749 1207 q 694 1086 743 1121 m 931 1086 q 871 1163 897 1114 q 951 1238 913 1211 q 1011 1163 989 1204 q 931 1086 982 1124 z "},"ẅ":{"ha":947,"x_min":83,"x_max":989,"o":"m 624 667 l 719 92 q 806 235 775 182 q 874 372 838 288 q 911 507 911 457 q 857 600 911 579 q 938 700 888 700 q 989 611 989 700 q 708 0 989 431 l 650 -12 q 638 0 638 -12 l 558 433 q 360 0 444 131 l 301 -12 q 289 0 289 -12 l 188 572 q 182 595 185 588 q 170 615 179 603 q 143 623 161 628 q 99 596 125 618 l 83 618 q 207 674 156 674 q 267 650 244 674 q 300 560 290 626 l 371 92 q 494 366 422 175 q 593 657 567 557 l 624 667 m 493 781 q 433 857 461 806 q 514 932 475 906 q 574 857 547 901 q 493 781 542 815 m 729 781 q 669 857 696 808 q 750 932 711 906 q 810 857 788 899 q 729 781 781 818 z "},"Ỳ":{"ha":858,"x_min":139,"x_max":983,"o":"m 385 835 l 518 474 l 753 842 q 697 944 819 944 l 700 972 l 983 972 l 981 944 q 878 917 918 944 q 797 825 839 890 l 536 417 l 500 156 q 516 52 489 76 q 632 28 543 28 l 628 0 l 222 0 l 226 28 q 349 52 314 28 q 394 156 383 76 l 431 417 l 263 844 q 224 921 238 908 q 139 944 200 944 l 142 972 l 471 972 l 468 944 q 381 919 400 944 q 385 835 363 894 m 615 1036 l 469 1278 q 524 1287 490 1290 q 581 1264 557 1283 l 642 1036 l 615 1036 z "},"ỳ":{"ha":603,"x_min":13,"x_max":644,"o":"m 328 -28 l 192 572 q 185 594 188 588 q 172 614 182 601 q 145 622 163 626 q 103 596 128 617 l 88 618 q 211 674 160 674 q 269 650 247 674 q 304 560 292 626 l 397 79 q 515 308 463 183 q 567 507 567 432 q 513 600 567 579 q 593 700 543 700 q 644 611 644 700 q 584 385 644 542 q 437 67 524 228 q 242 -215 350 -93 q 53 -337 135 -337 q 40 -335 47 -337 q 24 -322 32 -332 q 15 -299 17 -312 q 22 -260 13 -285 q 53 -204 31 -235 q 132 -218 107 -221 q 328 -28 225 -207 m 443 731 l 297 972 q 351 981 318 985 q 408 958 385 978 l 469 731 l 443 731 z "},"–":{"ha":876,"x_min":167,"x_max":814,"o":"m 801 294 l 167 294 l 179 381 l 814 381 l 801 294 z "},"—":{"ha":1547,"x_min":167,"x_max":1485,"o":"m 1472 294 l 167 294 l 179 381 l 1485 381 l 1472 294 z "},"‘":{"ha":421,"x_min":222,"x_max":442,"o":"m 333 814 q 415 708 379 772 q 304 604 365 651 q 222 708 260 646 q 421 1011 247 888 l 442 982 q 333 814 378 931 z "},"’":{"ha":422,"x_min":222,"x_max":443,"o":"m 332 781 q 250 886 283 824 q 361 990 303 947 q 443 886 408 944 q 243 583 418 708 l 222 613 q 332 781 288 667 z "},"‚":{"ha":442,"x_min":104,"x_max":324,"o":"m 214 -22 q 131 83 167 19 q 243 188 188 147 q 324 83 292 140 q 125 -219 299 -96 l 104 -190 q 214 -22 165 -140 z "},"“":{"ha":703,"x_min":222,"x_max":724,"o":"m 333 814 q 415 708 379 772 q 304 604 365 651 q 222 708 260 646 q 421 1011 247 888 l 442 982 q 333 814 378 931 m 615 814 q 699 708 664 769 q 586 604 647 650 q 504 708 542 646 q 703 1011 529 888 l 724 982 q 615 814 660 931 z "},"”":{"ha":706,"x_min":222,"x_max":726,"o":"m 332 781 q 250 886 283 824 q 361 990 303 947 q 443 886 408 944 q 243 583 418 708 l 222 613 q 332 781 288 667 m 614 781 q 532 886 565 824 q 643 990 585 947 q 726 886 692 946 q 526 583 701 710 l 504 613 q 614 781 574 669 z "},"„":{"ha":725,"x_min":104,"x_max":607,"o":"m 214 -22 q 131 83 167 19 q 243 188 188 147 q 324 83 292 140 q 125 -219 299 -96 l 104 -190 q 214 -22 165 -140 m 496 -22 q 413 83 449 19 q 525 188 469 147 q 607 83 575 142 q 408 -219 582 -94 l 386 -190 q 496 -22 451 -136 z "},"†":{"ha":767,"x_min":208,"x_max":732,"o":"m 492 981 l 536 981 l 511 704 l 732 689 l 725 642 l 501 626 l 386 -93 l 342 -93 l 426 626 l 208 642 l 215 689 l 439 704 l 492 981 z "},"‡":{"ha":749,"x_min":111,"x_max":714,"o":"m 354 -158 l 310 -158 l 331 90 l 111 106 l 118 154 l 342 169 l 390 411 l 410 654 l 190 669 l 197 717 l 421 732 l 469 981 l 514 981 l 493 732 l 714 717 l 707 669 l 482 654 l 435 411 l 414 169 l 635 154 l 628 106 l 403 90 l 354 -158 z "},"•":{"ha":554,"x_min":167,"x_max":499,"o":"m 167 475 q 224 615 167 556 q 357 675 282 675 q 458 630 418 675 q 499 519 499 585 q 440 379 499 439 q 307 319 382 319 q 206 365 246 319 q 167 475 167 410 z "},"…":{"ha":1078,"x_min":122,"x_max":958,"o":"m 206 -14 q 122 92 158 28 q 235 196 174 150 q 315 92 279 153 q 206 -14 269 35 m 526 -14 q 443 92 479 28 q 556 196 494 150 q 636 92 600 153 q 526 -14 590 35 m 847 -14 q 764 92 800 28 q 876 196 815 150 q 958 92 919 156 q 847 -14 910 33 z "},"‰":{"ha":1531,"x_min":222,"x_max":1433,"o":"m 231 4 l 925 1000 l 963 972 l 271 -24 l 231 4 m 974 257 q 901 67 974 147 q 733 -14 829 -14 q 608 44 657 -14 q 560 190 560 103 q 631 381 560 301 q 800 461 703 461 q 925 403 876 461 q 974 257 974 344 m 649 167 q 739 28 649 28 q 827 70 793 28 q 872 165 861 113 q 883 279 883 217 q 793 419 883 419 q 715 392 747 419 q 671 321 683 365 q 653 241 658 276 q 649 167 649 206 m 638 782 q 565 591 638 671 q 396 511 492 511 q 271 569 319 511 q 222 715 222 628 q 294 906 222 826 q 463 986 367 986 q 588 928 539 986 q 638 782 638 869 m 311 692 q 401 553 311 553 q 475 577 444 553 q 520 642 506 601 q 541 723 535 683 q 547 806 547 763 q 457 944 547 944 q 383 920 414 944 q 338 855 353 896 q 317 774 324 814 q 311 692 311 735 m 1433 257 q 1361 67 1433 147 q 1193 -14 1289 -14 q 1068 44 1117 -14 q 1019 190 1019 103 q 1091 381 1019 301 q 1260 461 1163 461 q 1385 403 1336 461 q 1433 257 1433 344 m 1108 167 q 1199 28 1108 28 q 1272 52 1242 28 q 1316 117 1301 76 q 1337 198 1331 158 q 1343 281 1343 238 q 1253 419 1343 419 q 1175 392 1207 419 q 1131 321 1143 365 q 1113 241 1118 276 q 1108 167 1108 206 z "},"‹":{"ha":525,"x_min":167,"x_max":490,"o":"m 167 343 l 465 618 l 490 593 l 315 369 q 299 340 300 347 q 308 314 297 333 l 419 92 l 388 67 l 167 343 z "},"›":{"ha":526,"x_min":139,"x_max":464,"o":"m 243 618 l 464 343 l 165 67 l 139 92 l 314 314 q 329 340 328 333 q 321 369 331 347 l 210 593 l 243 618 z "},"⁄":{"ha":1071,"x_min":231,"x_max":963,"o":"m 231 4 l 925 1000 l 963 972 l 271 -24 l 231 4 z "},"⁰":{"ha":535,"x_min":110,"x_max":494,"o":"m 197 847 q 215 733 197 778 q 265 688 233 688 q 366 797 325 688 q 407 1013 407 906 q 390 1126 407 1082 q 339 1171 372 1171 q 239 1063 281 1171 q 197 847 197 954 m 494 983 q 428 756 494 853 q 263 660 361 660 q 150 721 190 660 q 110 876 110 782 q 176 1103 110 1007 q 343 1199 243 1199 q 454 1138 414 1199 q 494 983 494 1076 z "},"⁴":{"ha":510,"x_min":83,"x_max":465,"o":"m 447 800 l 390 800 l 383 753 q 387 699 376 711 q 449 686 397 686 l 446 667 l 211 667 l 214 686 q 278 699 264 686 q 300 753 293 711 l 307 800 l 83 800 l 90 851 l 410 1196 l 450 1196 l 399 851 l 465 851 l 447 800 m 131 851 l 317 851 l 354 1090 l 131 851 z "},"⁵":{"ha":497,"x_min":85,"x_max":472,"o":"m 217 660 q 122 688 160 660 q 89 758 85 715 q 121 786 92 782 q 169 774 150 790 q 168 713 153 740 q 221 686 183 686 q 307 722 265 686 q 349 828 349 757 q 293 929 349 890 q 157 979 238 968 l 201 1192 l 472 1192 l 449 1129 l 222 1129 l 200 1022 q 316 1003 267 1019 q 390 960 365 986 q 426 906 415 933 q 438 851 438 879 q 365 710 438 760 q 217 660 293 660 z "},"⁶":{"ha":500,"x_min":104,"x_max":449,"o":"m 419 1199 l 426 1181 q 300 1093 357 1156 q 210 938 243 1031 q 322 978 264 978 q 413 942 376 978 q 449 844 449 906 q 386 711 449 763 q 250 660 324 660 q 142 707 181 660 q 104 825 104 754 q 137 968 104 900 q 219 1081 169 1036 q 322 1156 269 1126 q 419 1199 374 1186 m 285 942 q 201 908 243 942 q 188 842 192 879 q 187 769 183 806 q 208 708 190 732 q 257 683 225 683 q 328 721 294 683 q 361 838 361 758 q 340 915 361 888 q 285 942 318 942 z "},"⁷":{"ha":461,"x_min":114,"x_max":475,"o":"m 418 1129 l 221 1129 q 181 1126 193 1129 q 156 1112 168 1124 q 136 1074 144 1100 l 118 1074 l 147 1192 l 460 1192 l 475 1174 l 206 667 l 114 667 l 418 1129 z "},"⁸":{"ha":506,"x_min":96,"x_max":465,"o":"m 427 1171 q 446 1157 427 1171 q 465 1093 465 1143 q 428 1006 465 1043 q 339 949 390 968 q 406 898 376 933 q 435 815 435 863 q 381 704 435 749 q 242 660 328 660 q 96 772 96 660 q 236 932 96 882 q 178 981 203 950 q 153 1051 153 1011 q 209 1159 153 1119 q 333 1199 265 1199 q 427 1171 389 1199 m 239 1065 q 310 965 239 1010 q 385 1100 385 1015 q 366 1156 385 1139 q 326 1172 347 1172 q 296 1165 314 1172 q 258 1132 278 1158 q 239 1065 239 1106 m 249 686 q 316 718 285 686 q 347 800 347 750 q 321 866 347 835 q 263 915 294 897 q 206 857 229 894 q 182 775 182 819 q 202 710 182 733 q 249 686 222 686 z "},"⁹":{"ha":497,"x_min":125,"x_max":468,"o":"m 154 660 l 147 678 q 274 767 217 704 q 363 921 331 829 q 251 881 310 881 q 161 917 197 881 q 125 1014 125 953 q 188 1147 125 1096 q 324 1199 250 1199 q 431 1152 393 1199 q 468 1035 468 1106 q 435 891 468 960 q 353 777 403 822 q 251 702 303 732 q 154 660 200 672 m 289 917 q 371 950 329 917 q 385 1017 381 979 q 386 1090 389 1054 q 366 1151 383 1126 q 317 1175 349 1175 q 245 1138 279 1175 q 211 1021 211 1100 q 233 944 211 971 q 289 917 254 917 z "},"ⁿ":{"ha":518,"x_min":99,"x_max":499,"o":"m 239 951 l 226 876 q 397 1035 321 1035 q 456 938 471 1035 l 425 733 q 428 707 422 717 q 451 699 435 697 q 489 718 467 701 l 499 704 q 403 660 453 660 q 356 679 374 660 q 343 738 338 699 l 372 926 q 356 981 381 981 q 292 933 335 981 q 222 838 250 886 l 196 667 l 119 660 q 113 667 113 660 l 158 960 q 153 995 163 986 q 110 982 143 1004 l 99 997 q 181 1031 140 1031 q 228 1011 210 1031 q 239 951 246 992 z "},"₀":{"ha":535,"x_min":110,"x_max":494,"o":"m 197 -97 q 215 -212 197 -167 q 265 -257 233 -257 q 366 -148 325 -257 q 407 68 407 -39 q 390 182 407 138 q 339 226 372 226 q 239 118 281 226 q 197 -97 197 10 m 494 39 q 428 -188 494 -92 q 263 -285 361 -285 q 150 -224 190 -285 q 110 -68 110 -162 q 176 158 110 63 q 343 254 243 254 q 454 193 414 254 q 494 39 494 132 z "},"₁":{"ha":371,"x_min":65,"x_max":304,"o":"m 299 -278 l 65 -278 l 68 -258 q 133 -246 118 -258 q 154 -192 147 -233 l 206 149 q 201 201 213 189 q 140 213 190 213 l 143 232 l 286 251 l 304 251 l 238 -192 q 240 -245 231 -233 q 301 -258 250 -257 l 299 -278 z "},"₂":{"ha":476,"x_min":74,"x_max":454,"o":"m 83 -278 l 74 -261 q 149 -199 131 -215 q 221 -134 168 -183 q 297 -53 274 -85 q 342 24 319 -22 q 364 113 364 71 q 342 177 364 154 q 282 200 319 200 q 156 122 207 200 l 140 131 q 225 221 175 188 q 329 254 275 254 q 422 224 389 254 q 454 138 454 193 q 443 78 454 108 q 408 16 432 47 q 365 -40 385 -15 q 308 -95 344 -64 q 253 -141 271 -126 q 199 -184 236 -156 q 160 -215 163 -212 l 429 -215 l 406 -278 l 83 -278 z "},"₃":{"ha":493,"x_min":86,"x_max":451,"o":"m 326 254 q 418 224 385 254 q 451 151 451 194 q 408 60 451 106 q 303 -1 365 14 l 303 -3 q 399 -40 364 -7 q 433 -119 433 -74 q 367 -242 433 -200 q 218 -285 300 -285 q 124 -257 161 -285 q 90 -186 86 -229 q 123 -158 94 -162 q 171 -171 151 -154 q 169 -231 154 -204 q 222 -258 185 -258 q 309 -218 275 -258 q 343 -112 343 -178 q 322 -44 343 -71 q 261 -17 301 -17 l 225 -17 l 229 10 l 256 10 q 333 45 303 10 q 364 124 364 81 q 342 179 364 158 q 283 200 319 200 q 153 122 208 200 l 139 131 q 221 219 171 185 q 326 254 271 254 z "},"₄":{"ha":510,"x_min":83,"x_max":465,"o":"m 447 -144 l 390 -144 l 383 -192 q 387 -246 376 -233 q 449 -258 397 -258 l 446 -278 l 211 -278 l 214 -258 q 278 -246 264 -258 q 300 -192 293 -233 l 307 -144 l 83 -144 l 90 -93 l 410 251 l 450 251 l 399 -93 l 465 -93 l 447 -144 m 131 -93 l 317 -93 l 354 146 l 131 -93 z "},"₅":{"ha":497,"x_min":85,"x_max":472,"o":"m 217 -285 q 122 -257 160 -285 q 89 -186 85 -229 q 121 -158 92 -162 q 169 -171 150 -154 q 168 -231 153 -204 q 221 -258 183 -258 q 307 -223 265 -258 q 349 -117 349 -187 q 293 -15 349 -54 q 157 35 238 24 l 201 247 l 472 247 l 449 185 l 222 185 l 200 78 q 316 58 267 75 q 390 15 365 42 q 426 -38 415 -11 q 438 -93 438 -65 q 365 -235 438 -185 q 217 -285 293 -285 z "},"₆":{"ha":500,"x_min":104,"x_max":449,"o":"m 419 254 l 426 236 q 300 149 357 211 q 210 -7 243 86 q 322 33 264 33 q 413 -3 376 33 q 449 -100 449 -39 q 386 -233 449 -182 q 250 -285 324 -285 q 142 -237 181 -285 q 104 -119 104 -190 q 137 24 104 -44 q 219 137 169 92 q 322 212 269 182 q 419 254 374 242 m 285 -3 q 201 -36 243 -3 q 188 -102 192 -65 q 187 -176 183 -139 q 208 -237 190 -212 q 257 -261 225 -261 q 328 -224 294 -261 q 361 -107 361 -186 q 340 -30 361 -57 q 285 -3 318 -3 z "},"₇":{"ha":461,"x_min":114,"x_max":475,"o":"m 418 185 l 221 185 q 181 182 193 185 q 156 167 168 179 q 136 129 144 156 l 118 129 l 147 247 l 460 247 l 475 229 l 206 -278 l 114 -278 l 418 185 z "},"₈":{"ha":506,"x_min":96,"x_max":465,"o":"m 427 226 q 446 213 427 226 q 465 149 465 199 q 428 61 465 99 q 339 4 390 24 q 406 -47 376 -11 q 435 -129 435 -82 q 381 -240 435 -196 q 242 -285 328 -285 q 96 -172 96 -285 q 236 -12 96 -62 q 178 36 203 6 q 153 107 153 67 q 209 215 153 175 q 333 254 265 254 q 427 226 389 254 m 239 121 q 310 21 239 65 q 385 156 385 71 q 366 211 385 194 q 326 228 347 228 q 296 221 314 228 q 258 188 278 214 q 239 121 239 161 m 249 -258 q 316 -226 285 -258 q 347 -144 347 -194 q 321 -78 347 -110 q 263 -29 294 -47 q 206 -87 229 -50 q 182 -169 182 -125 q 202 -235 182 -211 q 249 -258 222 -258 z "},"₉":{"ha":497,"x_min":125,"x_max":468,"o":"m 154 -285 l 147 -267 q 274 -178 217 -240 q 363 -24 331 -115 q 251 -64 310 -64 q 161 -28 197 -64 q 125 69 125 8 q 188 203 125 151 q 324 254 250 254 q 431 208 393 254 q 468 90 468 161 q 435 -53 468 15 q 353 -167 403 -122 q 251 -242 303 -212 q 154 -285 200 -272 m 289 -28 q 371 6 329 -28 q 385 72 381 35 q 386 146 389 110 q 366 206 383 182 q 317 231 349 231 q 245 193 279 231 q 211 76 211 156 q 233 -1 211 26 q 289 -28 254 -28 z "},"€":{"ha":947,"x_min":111,"x_max":982,"o":"m 133 542 l 139 588 l 231 588 q 406 885 275 785 q 707 986 536 986 q 982 878 863 986 l 951 638 l 926 638 q 928 762 939 710 q 897 848 917 814 q 844 902 878 882 q 778 930 811 922 q 708 938 746 938 q 480 842 575 938 q 346 588 385 747 l 615 588 l 610 542 l 338 542 q 326 431 329 497 l 594 431 l 588 385 l 325 385 q 392 129 326 224 q 582 35 458 35 q 673 48 629 35 q 761 92 717 61 q 838 186 806 124 q 883 335 871 249 l 908 335 l 872 94 q 567 -14 721 -14 q 309 85 407 -14 q 210 385 211 183 l 111 385 l 118 431 l 211 431 q 221 542 214 496 l 133 542 z "},"ℓ":{"ha":625,"x_min":94,"x_max":606,"o":"m 569 214 l 590 208 q 494 50 554 114 q 358 -14 435 -14 q 219 260 182 -14 l 228 319 l 108 204 l 94 219 l 233 357 l 281 694 q 353 894 299 814 q 500 974 408 974 q 578 942 550 974 q 606 858 606 911 q 598 798 606 829 q 581 742 590 767 q 550 684 572 718 q 515 631 528 650 q 472 577 503 613 q 430 530 440 542 q 383 480 419 518 q 342 436 347 442 l 311 215 q 392 28 283 28 q 569 214 492 28 m 385 742 l 347 474 q 569 835 569 711 q 549 907 569 881 q 497 933 529 933 q 435 903 460 933 q 402 837 411 872 q 385 742 393 801 z "},"™":{"ha":1435,"x_min":208,"x_max":1435,"o":"m 225 972 l 710 972 l 693 851 l 667 851 q 667 909 675 892 q 622 926 660 926 l 503 926 l 439 476 q 444 424 433 433 q 497 414 456 414 l 493 386 l 278 386 l 282 414 q 339 423 328 414 q 356 476 350 432 l 419 926 l 299 926 q 260 915 274 926 q 243 892 247 904 q 235 851 239 879 l 208 851 l 225 972 m 1140 386 l 1144 414 q 1200 428 1186 414 q 1219 483 1214 443 l 1269 838 l 1006 386 l 978 386 l 847 838 l 797 483 q 799 424 790 433 q 850 414 807 414 l 846 386 l 678 386 l 682 414 q 741 424 729 414 q 760 485 753 435 l 815 875 q 813 934 822 924 q 757 944 804 944 l 760 972 l 897 972 l 1031 511 l 1297 972 l 1435 972 l 1432 944 q 1373 933 1385 944 q 1354 875 1361 922 l 1299 485 q 1301 425 1292 436 q 1357 414 1310 414 l 1353 386 l 1140 386 z "},"℮":{"ha":992,"x_min":133,"x_max":1017,"o":"m 986 482 l 326 482 l 281 163 q 504 56 368 56 q 853 268 706 56 l 903 235 q 714 51 808 108 q 494 -7 619 -7 q 230 113 326 -7 q 133 411 133 233 q 278 809 133 644 q 633 974 424 974 q 919 836 821 974 q 986 482 1017 699 m 335 547 l 810 547 l 846 804 q 622 910 757 910 q 371 804 485 910 l 335 547 z "},"∂":{"ha":657,"x_min":81,"x_max":686,"o":"m 349 957 l 369 986 q 471 938 418 975 q 573 842 524 901 q 654 689 622 782 q 686 489 686 596 q 640 253 686 368 q 503 63 593 139 q 304 -14 414 -14 q 147 49 213 -14 q 81 219 81 113 q 181 474 81 371 q 404 576 281 576 q 581 485 507 576 q 349 957 601 850 m 440 511 q 264 417 343 511 q 185 183 185 322 q 222 64 185 100 q 307 28 260 28 q 417 71 367 28 q 498 180 467 114 q 548 310 529 246 q 574 433 567 375 q 440 511 522 511 z "},"∏":{"ha":804,"x_min":35,"x_max":856,"o":"m 171 972 l 856 972 l 853 944 q 772 923 790 944 q 742 822 754 901 l 647 150 q 649 49 636 71 q 724 28 661 28 l 719 0 l 422 0 l 426 28 q 515 49 496 28 q 546 150 535 71 l 640 822 q 639 923 653 901 q 556 944 625 944 l 464 944 q 383 923 401 944 q 353 822 364 901 l 258 150 q 260 49 247 71 q 335 28 272 28 l 331 0 l 35 0 l 39 28 q 127 49 108 28 q 157 150 146 71 l 251 822 q 251 923 264 901 q 168 944 238 944 l 171 972 z "},"∑":{"ha":840,"x_min":63,"x_max":883,"o":"m 333 914 l 551 486 l 214 60 l 533 60 q 689 92 644 60 q 768 236 733 125 l 793 236 l 746 0 l 83 0 l 63 28 l 425 486 l 192 946 l 221 974 l 883 974 l 864 738 l 839 738 q 800 881 836 847 q 653 914 764 914 l 333 914 z "},"−":{"ha":806,"x_min":174,"x_max":736,"o":"m 183 486 l 736 486 l 726 417 l 174 417 l 183 486 z "},"√":{"ha":832,"x_min":150,"x_max":894,"o":"m 150 531 l 183 611 l 388 611 l 457 124 l 817 972 l 894 972 l 479 0 l 401 0 l 322 531 l 150 531 z "},"∞":{"ha":1067,"x_min":146,"x_max":1017,"o":"m 940 557 q 978 538 940 557 q 1017 417 1017 518 q 940 276 1017 315 q 759 269 863 238 q 581 385 656 300 q 403 269 507 300 q 223 276 300 238 q 146 417 146 315 q 223 557 146 518 q 403 565 300 596 q 581 449 507 533 q 759 565 656 533 q 940 557 863 596 m 224 505 q 206 490 224 505 q 188 417 188 475 q 224 328 188 358 q 315 299 260 299 q 442 330 376 299 q 556 417 508 361 q 444 504 508 474 q 315 535 379 535 q 224 505 260 535 m 939 328 q 957 343 939 328 q 975 417 975 358 q 939 505 975 475 q 847 535 903 535 q 720 503 786 535 q 607 417 654 472 q 719 329 654 360 q 847 299 783 299 q 939 328 903 299 z "},"∫":{"ha":410,"x_min":-93,"x_max":533,"o":"m 125 17 l 219 692 q 331 906 238 813 q 497 1000 424 1000 q 522 996 511 1000 q 532 963 533 992 q 494 885 531 935 q 484 895 493 886 q 469 908 475 904 q 455 919 464 913 q 438 929 446 926 q 421 932 429 932 q 315 667 354 932 l 221 -8 q 110 -223 204 -129 q -57 -317 17 -317 q -82 -312 -71 -317 q -91 -280 -93 -308 q -53 -201 -89 -251 q 19 -249 -6 -249 q 125 17 86 -249 z "},"≈":{"ha":865,"x_min":153,"x_max":824,"o":"m 796 529 l 824 507 q 643 363 725 363 q 476 386 583 363 q 314 410 368 410 q 211 356 258 410 l 182 378 q 364 522 281 522 q 531 499 424 522 q 692 475 638 475 q 796 529 747 475 m 767 322 l 794 300 q 614 156 696 156 q 447 179 554 156 q 286 203 340 203 q 182 149 229 203 l 153 171 q 335 315 251 315 q 501 292 394 315 q 663 268 608 268 q 767 322 718 268 z "},"≠":{"ha":814,"x_min":160,"x_max":758,"o":"m 547 582 l 758 582 l 749 513 l 518 513 l 440 328 l 722 328 l 713 258 l 411 258 l 343 96 l 272 96 l 340 258 l 160 258 l 169 328 l 369 328 l 449 513 l 196 513 l 206 582 l 478 582 l 542 736 l 611 736 l 547 582 z "},"≤":{"ha":760,"x_min":139,"x_max":725,"o":"m 657 192 l 644 99 l 185 329 l 201 444 l 725 675 l 713 582 l 261 386 l 657 192 m 151 86 l 643 86 l 631 0 l 139 0 l 151 86 z "},"≥":{"ha":763,"x_min":139,"x_max":693,"o":"m 153 99 l 165 192 l 615 386 l 221 582 l 233 675 l 693 444 l 676 329 l 153 99 m 151 86 l 643 86 l 631 0 l 139 0 l 151 86 z "},"◊":{"ha":975,"x_min":192,"x_max":917,"o":"m 489 3 l 192 465 l 619 929 l 917 465 l 489 3 m 293 467 l 507 133 l 815 465 l 601 799 l 293 467 z "},"ﬀ":{"ha":819,"x_min":-82,"x_max":957,"o":"m 546 -4 l 633 621 l 324 621 l 232 -29 q 121 -244 214 -150 q -46 -337 28 -337 q -71 -333 -60 -337 q -81 -301 -82 -329 q -43 -222 -79 -272 q -33 -233 -42 -224 q -18 -246 -24 -242 q -3 -257 -12 -250 q 14 -267 6 -264 q 31 -269 22 -269 q 136 -4 99 -269 l 224 621 l 128 621 l 133 667 l 229 667 l 233 692 q 344 906 251 813 q 511 1000 438 1000 q 536 996 525 1000 q 546 963 547 992 q 508 885 544 935 q 498 895 507 886 q 483 908 489 904 q 469 919 478 913 q 451 929 460 926 q 435 932 443 932 q 329 667 368 932 l 639 667 l 643 692 q 754 906 661 813 q 921 1000 847 1000 q 946 996 935 1000 q 956 963 957 992 q 918 885 954 935 q 908 895 917 886 q 893 908 899 904 q 878 919 888 913 q 861 929 869 926 q 844 932 853 932 q 739 667 778 932 l 885 667 l 879 621 l 733 621 l 642 -29 q 531 -244 624 -150 q 364 -337 438 -337 q 339 -333 350 -337 q 329 -301 328 -329 q 367 -222 331 -272 q 377 -233 368 -224 q 392 -246 386 -242 q 406 -257 397 -250 q 424 -267 415 -264 q 440 -269 432 -269 q 546 -4 508 -269 z "},"ﬁ":{"ha":754,"x_min":-82,"x_max":796,"o":"m 324 621 l 232 -29 q 121 -244 214 -150 q -46 -337 28 -337 q -71 -333 -60 -337 q -81 -301 -82 -329 q -43 -222 -79 -272 q -33 -233 -42 -224 q -18 -246 -24 -242 q -3 -257 -12 -250 q 14 -267 6 -264 q 31 -269 22 -269 q 136 -4 99 -269 l 224 621 l 128 621 l 133 667 l 229 667 l 233 692 q 344 906 251 813 q 511 1000 438 1000 q 536 996 525 1000 q 546 963 547 992 q 508 885 544 935 q 498 895 507 886 q 483 908 489 904 q 469 919 478 913 q 451 929 460 926 q 435 932 443 932 q 329 667 368 932 q 513 672 401 667 q 647 674 597 678 q 713 640 696 669 q 719 542 729 611 l 656 103 q 662 65 651 79 q 700 56 672 51 q 765 92 728 61 l 781 69 q 701 7 743 28 q 633 -14 660 -14 q 572 19 596 -14 q 558 118 549 51 l 619 551 q 615 612 625 594 q 573 631 604 629 q 488 628 542 633 q 324 621 392 621 m 699 790 q 628 882 660 822 q 724 972 674 936 q 796 882 769 933 q 699 790 758 833 z "},"ﬂ":{"ha":747,"x_min":-82,"x_max":776,"o":"m 774 972 l 649 103 q 655 65 644 79 q 693 56 665 51 q 758 92 721 61 l 774 69 q 694 7 736 28 q 626 -14 653 -14 q 565 19 589 -14 q 551 118 542 51 l 667 938 q 610 951 643 946 q 522 953 576 957 q 421 926 467 949 q 329 667 361 885 l 475 667 l 469 621 l 324 621 l 232 -29 q 121 -244 214 -150 q -46 -337 28 -337 q -71 -333 -60 -337 q -81 -301 -82 -329 q -43 -222 -79 -272 q -33 -233 -42 -224 q -18 -246 -24 -242 q -3 -257 -12 -250 q 14 -267 6 -264 q 31 -269 22 -269 q 136 -4 99 -269 l 224 621 l 128 621 l 133 667 l 229 667 q 297 851 246 776 q 411 956 349 925 q 547 998 474 988 q 672 1003 619 1008 q 761 986 724 997 q 774 972 776 983 z "},"ﬃ":{"ha":1164,"x_min":-82,"x_max":1206,"o":"m 136 -4 l 224 621 l 128 621 l 133 667 l 229 667 l 233 692 q 344 906 251 813 q 511 1000 438 1000 q 536 996 525 1000 q 546 963 547 992 q 508 885 544 935 q 498 895 507 886 q 483 908 489 904 q 469 919 478 913 q 451 929 460 926 q 435 932 443 932 q 329 667 368 932 l 639 667 l 643 692 q 754 906 661 813 q 921 1000 847 1000 q 946 996 935 1000 q 956 963 957 992 q 918 885 954 935 q 908 895 917 886 q 893 908 899 904 q 878 919 888 913 q 861 929 869 926 q 844 932 853 932 q 739 667 778 932 q 922 672 811 667 q 1056 674 1007 678 q 1122 640 1106 669 q 1129 542 1139 611 l 1065 103 q 1072 65 1061 79 q 1110 56 1082 51 q 1175 92 1138 61 l 1190 69 q 1111 7 1153 28 q 1043 -14 1069 -14 q 982 19 1006 -14 q 968 118 958 51 l 1029 551 q 1024 612 1035 594 q 983 631 1014 629 q 897 628 951 633 q 733 621 801 621 l 642 -29 q 531 -244 624 -150 q 364 -337 438 -337 q 339 -333 350 -337 q 329 -301 328 -329 q 367 -222 331 -272 q 377 -233 368 -224 q 392 -246 386 -242 q 406 -257 397 -250 q 424 -267 415 -264 q 440 -269 432 -269 q 546 -4 508 -269 l 633 621 l 324 621 l 232 -29 q 121 -244 214 -150 q -46 -337 28 -337 q -71 -333 -60 -337 q -81 -301 -82 -329 q -43 -222 -79 -272 q -33 -233 -42 -224 q -18 -246 -24 -242 q -3 -257 -12 -250 q 14 -267 6 -264 q 31 -269 22 -269 q 136 -4 99 -269 m 1108 790 q 1038 882 1069 822 q 1133 972 1083 936 q 1206 882 1179 933 q 1108 790 1168 833 z "},"ﬄ":{"ha":1157,"x_min":-82,"x_max":1186,"o":"m 136 -4 l 224 621 l 128 621 l 133 667 l 229 667 l 233 692 q 344 906 251 813 q 511 1000 438 1000 q 536 996 525 1000 q 546 963 547 992 q 508 885 544 935 q 498 895 507 886 q 483 908 489 904 q 469 919 478 913 q 451 929 460 926 q 435 932 443 932 q 329 667 368 932 l 639 667 q 707 851 656 776 q 821 956 758 925 q 956 998 883 988 q 1081 1003 1029 1008 q 1171 986 1133 997 q 1183 972 1186 983 l 1058 103 q 1065 65 1054 79 q 1103 56 1075 51 q 1168 92 1131 61 l 1183 69 q 1104 7 1146 28 q 1036 -14 1063 -14 q 975 19 999 -14 q 961 118 951 51 l 1076 938 q 1019 951 1053 946 q 931 953 986 957 q 831 926 876 949 q 739 667 771 885 l 885 667 l 879 621 l 733 621 l 642 -29 q 531 -244 624 -150 q 364 -337 438 -337 q 339 -333 350 -337 q 329 -301 328 -329 q 367 -222 331 -272 q 377 -233 368 -224 q 392 -246 386 -242 q 406 -257 397 -250 q 424 -267 415 -264 q 440 -269 432 -269 q 546 -4 508 -269 l 633 621 l 324 621 l 232 -29 q 121 -244 214 -150 q -46 -337 28 -337 q -71 -333 -60 -337 q -81 -301 -82 -329 q -43 -222 -79 -272 q -33 -233 -42 -224 q -18 -246 -24 -242 q -3 -257 -12 -250 q 14 -267 6 -264 q 31 -269 22 -269 q 136 -4 99 -269 z "},"ﬆ":{"ha":946,"x_min":97,"x_max":1015,"o":"m 275 -14 q 151 23 206 -14 q 97 135 97 60 q 134 176 97 156 q 199 185 171 196 q 187 72 168 117 q 276 26 206 26 q 382 63 344 26 q 419 144 419 99 q 381 243 419 194 q 296 324 342 292 q 211 403 250 357 q 172 497 172 450 q 238 633 172 586 q 393 681 303 681 q 471 665 433 681 q 424 963 389 840 q 529 996 446 994 q 705 979 613 997 q 890 933 797 961 l 850 667 l 1015 667 l 1010 621 l 844 621 l 788 213 q 818 48 769 83 q 951 92 867 13 l 967 69 q 799 -14 890 -14 q 723 10 751 -14 q 688 72 694 35 q 681 135 681 110 q 683 183 681 161 l 744 621 l 668 621 l 674 660 q 790 713 749 660 q 864 913 832 765 q 685 949 758 939 q 558 948 613 958 q 481 902 503 938 q 467 800 460 867 q 515 635 474 733 q 557 536 557 596 q 522 497 557 517 q 460 489 488 478 q 468 594 486 549 q 393 640 450 640 q 311 607 347 640 q 275 525 275 574 q 315 446 275 488 q 401 372 354 404 q 487 289 447 339 q 526 186 526 239 q 501 93 526 133 q 438 31 476 53 q 357 -3 399 8 q 275 -14 315 -14 z "}}}
